<?xml version="1.0" encoding="UTF-8" standalone="no"?>
<!DOCTYPE svg PUBLIC "-//W3C//DTD SVG 1.1//EN"
 "http://www.w3.org/Graphics/SVG/1.1/DTD/svg11.dtd">
<!-- Generated by graphviz version 2.47.0 (20210316.0004)
 -->
<!-- Title: dependencies Pages: 1 -->
<svg width="976pt" height="284pt"
 viewBox="0.00 0.00 976.00 284.00" xmlns="http://www.w3.org/2000/svg" xmlns:xlink="http://www.w3.org/1999/xlink">
<g id="graph0" class="graph" transform="scale(1 1) rotate(0) translate(4 280)">
<title>dependencies</title>
<polygon fill="white" stroke="transparent" points="-4,4 -4,-280 972,-280 972,4 -4,4"/>
<text text-anchor="start" x="463.01" y="-42.4" font-family="Times-12" font-weight="bold" font-size="14.00">Legend</text>
<polygon fill="#ffffb3" stroke="transparent" points="250,-10 250,-30 270,-30 270,-10 250,-10"/>
<text text-anchor="start" x="273.63" y="-15.4" font-family="Times-12" font-size="14.00"> &#160;Declarations</text>
<polygon fill="#8dd3c7" stroke="transparent" points="363,-10 363,-30 383,-30 383,-10 363,-10"/>
<text text-anchor="start" x="386.73" y="-15.4" font-family="Times-12" font-size="14.00"> &#160;Module</text>
<polygon fill="#80b1d3" stroke="transparent" points="449,-10 449,-30 469,-30 469,-10 449,-10"/>
<text text-anchor="start" x="472.78" y="-15.4" font-family="Times-12" font-size="14.00"> &#160;Bootstrap</text>
<polygon fill="#fdb462" stroke="transparent" points="546,-10 546,-30 566,-30 566,-10 546,-10"/>
<text text-anchor="start" x="569.67" y="-15.4" font-family="Times-12" font-size="14.00"> &#160;Providers</text>
<polygon fill="#fb8072" stroke="transparent" points="642,-10 642,-30 662,-30 662,-10 642,-10"/>
<text text-anchor="start" x="665.73" y="-15.4" font-family="Times-12" font-size="14.00"> &#160;Exports</text>
<g id="clust1" class="cluster">
<title>cluster_RoomQueueModule</title>
<polygon fill="none" stroke="black" stroke-dasharray="1,5" points="8,-70 8,-268 960,-268 960,-70 8,-70"/>
</g>
<g id="clust3" class="cluster">
<title>cluster_RoomQueueModule_imports</title>
<polygon fill="none" stroke="black" points="218,-78 218,-130 952,-130 952,-78 218,-78"/>
</g>
<g id="clust6" class="cluster">
<title>cluster_RoomQueueModule_providers</title>
<polygon fill="none" stroke="black" points="16,-78 16,-130 210,-130 210,-78 16,-78"/>
</g>
<g id="clust4" class="cluster">
<title>cluster_RoomQueueModule_exports</title>
<polygon fill="none" stroke="black" points="445,-208 445,-260 593,-260 593,-208 445,-208"/>
</g>
<!-- DbUtilsModule -->
<g id="node1" class="node">
<title>DbUtilsModule</title>
<polygon fill="#8dd3c7" stroke="black" points="943.88,-122 940.88,-126 919.88,-126 916.88,-122 840.12,-122 840.12,-86 943.88,-86 943.88,-122"/>
<text text-anchor="middle" x="892" y="-99.8" font-family="Times,serif" font-size="14.00">DbUtilsModule</text>
</g>
<!-- RoomQueueModule -->
<g id="node7" class="node">
<title>RoomQueueModule</title>
<polygon fill="#8dd3c7" stroke="black" points="584.31,-187 581.31,-191 560.31,-191 557.31,-187 453.69,-187 453.69,-151 584.31,-151 584.31,-187"/>
<text text-anchor="middle" x="519" y="-164.8" font-family="Times,serif" font-size="14.00">RoomQueueModule</text>
</g>
<!-- DbUtilsModule&#45;&gt;RoomQueueModule -->
<g id="edge1" class="edge">
<title>DbUtilsModule&#45;&gt;RoomQueueModule</title>
<path fill="none" stroke="black" d="M892,-122.29C892,-144.21 892,-178 892,-178 892,-178 594.4,-178 594.4,-178"/>
<polygon fill="black" stroke="black" points="594.4,-174.5 584.4,-178 594.4,-181.5 594.4,-174.5"/>
</g>
<!-- DtoGenModule -->
<g id="node2" class="node">
<title>DtoGenModule</title>
<polygon fill="#8dd3c7" stroke="black" points="821.87,-122 818.87,-126 797.87,-126 794.87,-122 718.13,-122 718.13,-86 821.87,-86 821.87,-122"/>
<text text-anchor="middle" x="770" y="-99.8" font-family="Times,serif" font-size="14.00">DtoGenModule</text>
</g>
<!-- DtoGenModule&#45;&gt;RoomQueueModule -->
<g id="edge2" class="edge">
<title>DtoGenModule&#45;&gt;RoomQueueModule</title>
<path fill="none" stroke="black" d="M770,-122.11C770,-141.34 770,-169 770,-169 770,-169 594.29,-169 594.29,-169"/>
<polygon fill="black" stroke="black" points="594.29,-165.5 584.29,-169 594.29,-172.5 594.29,-165.5"/>
</g>
<!-- PrismaModule -->
<g id="node3" class="node">
<title>PrismaModule</title>
<polygon fill="#8dd3c7" stroke="black" points="700.43,-122 697.43,-126 676.43,-126 673.43,-122 601.57,-122 601.57,-86 700.43,-86 700.43,-122"/>
<text text-anchor="middle" x="651" y="-99.8" font-family="Times,serif" font-size="14.00">PrismaModule</text>
</g>
<!-- PrismaModule&#45;&gt;RoomQueueModule -->
<g id="edge3" class="edge">
<title>PrismaModule&#45;&gt;RoomQueueModule</title>
<path fill="none" stroke="black" d="M651,-122.03C651,-138.4 651,-160 651,-160 651,-160 594.23,-160 594.23,-160"/>
<polygon fill="black" stroke="black" points="594.23,-156.5 584.23,-160 594.23,-163.5 594.23,-156.5"/>
</g>
<!-- SpotifyAuthModule -->
<g id="node4" class="node">
<title>SpotifyAuthModule</title>
<polygon fill="#8dd3c7" stroke="black" points="583.27,-122 580.27,-126 559.27,-126 556.27,-122 454.73,-122 454.73,-86 583.27,-86 583.27,-122"/>
<text text-anchor="middle" x="519" y="-99.8" font-family="Times,serif" font-size="14.00">SpotifyAuthModule</text>
</g>
<!-- SpotifyAuthModule&#45;&gt;RoomQueueModule -->
<g id="edge4" class="edge">
<title>SpotifyAuthModule&#45;&gt;RoomQueueModule</title>
<path fill="none" stroke="black" d="M519,-122.11C519,-122.11 519,-140.99 519,-140.99"/>
<polygon fill="black" stroke="black" points="515.5,-140.99 519,-150.99 522.5,-140.99 515.5,-140.99"/>
</g>
<!-- SpotifyModule -->
<g id="node5" class="node">
<title>SpotifyModule</title>
<polygon fill="#8dd3c7" stroke="black" points="436.27,-122 433.27,-126 412.27,-126 409.27,-122 335.73,-122 335.73,-86 436.27,-86 436.27,-122"/>
<text text-anchor="middle" x="386" y="-99.8" font-family="Times,serif" font-size="14.00">SpotifyModule</text>
</g>
<!-- SpotifyModule&#45;&gt;RoomQueueModule -->
<g id="edge5" class="edge">
<title>SpotifyModule&#45;&gt;RoomQueueModule</title>
<path fill="none" stroke="black" d="M386,-122.03C386,-138.4 386,-160 386,-160 386,-160 443.67,-160 443.67,-160"/>
<polygon fill="black" stroke="black" points="443.67,-163.5 453.67,-160 443.67,-156.5 443.67,-163.5"/>
</g>
<!-- TasksModule -->
<g id="node6" class="node">
<title>TasksModule</title>
<polygon fill="#8dd3c7" stroke="black" points="318.21,-122 315.21,-126 294.21,-126 291.21,-122 225.79,-122 225.79,-86 318.21,-86 318.21,-122"/>
<text text-anchor="middle" x="272" y="-99.8" font-family="Times,serif" font-size="14.00">TasksModule</text>
</g>
<!-- TasksModule&#45;&gt;RoomQueueModule -->
<g id="edge6" class="edge">
<title>TasksModule&#45;&gt;RoomQueueModule</title>
<path fill="none" stroke="black" d="M272,-122.11C272,-141.34 272,-169 272,-169 272,-169 443.78,-169 443.78,-169"/>
<polygon fill="black" stroke="black" points="443.78,-172.5 453.78,-169 443.78,-165.5 443.78,-172.5"/>
</g>
<!-- RoomQueueService  -->
<g id="node8" class="node">
<title>RoomQueueService </title>
<polygon fill="#fb8072" stroke="black" points="585.24,-252 452.76,-252 452.76,-216 585.24,-216 585.24,-252"/>
<text text-anchor="middle" x="519" y="-229.8" font-family="Times,serif" font-size="14.00">RoomQueueService </text>
</g>
<!-- RoomQueueModule&#45;&gt;RoomQueueService  -->
<g id="edge7" class="edge">
<title>RoomQueueModule&#45;&gt;RoomQueueService </title>
<path fill="none" stroke="black" stroke-dasharray="5,2" d="M519,-187.11C519,-187.11 519,-205.99 519,-205.99"/>
<polygon fill="black" stroke="black" points="515.5,-205.99 519,-215.99 522.5,-205.99 515.5,-205.99"/>
</g>
<!-- RoomQueueService -->
<g id="node9" class="node">
<title>RoomQueueService</title>
<ellipse fill="#fdb462" stroke="black" cx="113" cy="-104" rx="88.61" ry="18"/>
<text text-anchor="middle" x="113" y="-99.8" font-family="Times,serif" font-size="14.00">RoomQueueService</text>
</g>
<!-- RoomQueueService&#45;&gt;RoomQueueModule -->
<g id="edge8" class="edge">
<title>RoomQueueService&#45;&gt;RoomQueueModule</title>
<path fill="none" stroke="black" d="M113,-122.29C113,-144.21 113,-178 113,-178 113,-178 443.77,-178 443.77,-178"/>
<polygon fill="black" stroke="black" points="443.77,-181.5 453.77,-178 443.77,-174.5 443.77,-181.5"/>
</g>
</g>
</svg>
