<?xml version="1.0" encoding="UTF-8" standalone="no"?>
<!DOCTYPE svg PUBLIC "-//W3C//DTD SVG 1.1//EN"
 "http://www.w3.org/Graphics/SVG/1.1/DTD/svg11.dtd">
<!-- Generated by graphviz version 2.47.0 (20210316.0004)
 -->
<!-- Title: dependencies Pages: 1 -->
<svg width="1188pt" height="211pt"
 viewBox="0.00 0.00 1188.00 211.00" xmlns="http://www.w3.org/2000/svg" xmlns:xlink="http://www.w3.org/1999/xlink">
<g id="graph0" class="graph" transform="scale(1 1) rotate(0) translate(4 207)">
<title>dependencies</title>
<polygon fill="white" stroke="transparent" points="-4,4 -4,-207 1184,-207 1184,4 -4,4"/>
<text text-anchor="start" x="569.01" y="-42.4" font-family="Times-12" font-weight="bold" font-size="14.00">Legend</text>
<polygon fill="#ffffb3" stroke="transparent" points="356,-10 356,-30 376,-30 376,-10 356,-10"/>
<text text-anchor="start" x="379.63" y="-15.4" font-family="Times-12" font-size="14.00"> &#160;Declarations</text>
<polygon fill="#8dd3c7" stroke="transparent" points="469,-10 469,-30 489,-30 489,-10 469,-10"/>
<text text-anchor="start" x="492.73" y="-15.4" font-family="Times-12" font-size="14.00"> &#160;Module</text>
<polygon fill="#80b1d3" stroke="transparent" points="555,-10 555,-30 575,-30 575,-10 555,-10"/>
<text text-anchor="start" x="578.78" y="-15.4" font-family="Times-12" font-size="14.00"> &#160;Bootstrap</text>
<polygon fill="#fdb462" stroke="transparent" points="652,-10 652,-30 672,-30 672,-10 652,-10"/>
<text text-anchor="start" x="675.67" y="-15.4" font-family="Times-12" font-size="14.00"> &#160;Providers</text>
<polygon fill="#fb8072" stroke="transparent" points="748,-10 748,-30 768,-30 768,-10 748,-10"/>
<text text-anchor="start" x="771.73" y="-15.4" font-family="Times-12" font-size="14.00"> &#160;Exports</text>
<g id="clust1" class="cluster">
<title>cluster_AuthModule</title>
<polygon fill="none" stroke="black" stroke-dasharray="1,5" points="8,-70 8,-195 1172,-195 1172,-70 8,-70"/>
</g>
<g id="clust6" class="cluster">
<title>cluster_AuthModule_providers</title>
<polygon fill="none" stroke="black" points="138,-78 138,-130 1164,-130 1164,-78 138,-78"/>
</g>
<g id="clust3" class="cluster">
<title>cluster_AuthModule_imports</title>
<polygon fill="none" stroke="black" points="16,-78 16,-130 130,-130 130,-78 16,-78"/>
</g>
<!-- PrismaModule -->
<g id="node1" class="node">
<title>PrismaModule</title>
<polygon fill="#8dd3c7" stroke="black" points="122.43,-122 119.43,-126 98.43,-126 95.43,-122 23.57,-122 23.57,-86 122.43,-86 122.43,-122"/>
<text text-anchor="middle" x="73" y="-99.8" font-family="Times,serif" font-size="14.00">PrismaModule</text>
</g>
<!-- AuthModule -->
<g id="node2" class="node">
<title>AuthModule</title>
<polygon fill="#8dd3c7" stroke="black" points="618.55,-187 615.55,-191 594.55,-191 591.55,-187 531.45,-187 531.45,-151 618.55,-151 618.55,-187"/>
<text text-anchor="middle" x="575" y="-164.8" font-family="Times,serif" font-size="14.00">AuthModule</text>
</g>
<!-- PrismaModule&#45;&gt;AuthModule -->
<g id="edge1" class="edge">
<title>PrismaModule&#45;&gt;AuthModule</title>
<path fill="none" stroke="black" d="M73,-122.29C73,-144.21 73,-178 73,-178 73,-178 521.33,-178 521.33,-178"/>
<polygon fill="black" stroke="black" points="521.33,-181.5 531.33,-178 521.33,-174.5 521.33,-181.5"/>
</g>
<!-- AuthService -->
<g id="node3" class="node">
<title>AuthService</title>
<ellipse fill="#fdb462" stroke="black" cx="1097" cy="-104" rx="59.11" ry="18"/>
<text text-anchor="middle" x="1097" y="-99.8" font-family="Times,serif" font-size="14.00">AuthService</text>
</g>
<!-- AuthService&#45;&gt;AuthModule -->
<g id="edge2" class="edge">
<title>AuthService&#45;&gt;AuthModule</title>
<path fill="none" stroke="black" d="M1097,-122.29C1097,-144.21 1097,-178 1097,-178 1097,-178 628.61,-178 628.61,-178"/>
<polygon fill="black" stroke="black" points="628.61,-174.5 618.61,-178 628.61,-181.5 628.61,-174.5"/>
</g>
<!-- DbUtilsService -->
<g id="node4" class="node">
<title>DbUtilsService</title>
<ellipse fill="#fdb462" stroke="black" cx="949" cy="-104" rx="70.64" ry="18"/>
<text text-anchor="middle" x="949" y="-99.8" font-family="Times,serif" font-size="14.00">DbUtilsService</text>
</g>
<!-- DbUtilsService&#45;&gt;AuthModule -->
<g id="edge3" class="edge">
<title>DbUtilsService&#45;&gt;AuthModule</title>
<path fill="none" stroke="black" d="M949,-122.11C949,-141.34 949,-169 949,-169 949,-169 628.63,-169 628.63,-169"/>
<polygon fill="black" stroke="black" points="628.63,-165.5 618.63,-169 628.63,-172.5 628.63,-165.5"/>
</g>
<!-- DtoGenService -->
<g id="node5" class="node">
<title>DtoGenService</title>
<ellipse fill="#fdb462" stroke="black" cx="790" cy="-104" rx="70.62" ry="18"/>
<text text-anchor="middle" x="790" y="-99.8" font-family="Times,serif" font-size="14.00">DtoGenService</text>
</g>
<!-- DtoGenService&#45;&gt;AuthModule -->
<g id="edge4" class="edge">
<title>DtoGenService&#45;&gt;AuthModule</title>
<path fill="none" stroke="black" d="M790,-122.03C790,-138.4 790,-160 790,-160 790,-160 628.77,-160 628.77,-160"/>
<polygon fill="black" stroke="black" points="628.77,-156.5 618.77,-160 628.77,-163.5 628.77,-156.5"/>
</g>
<!-- JwtStrategy -->
<g id="node6" class="node">
<title>JwtStrategy</title>
<ellipse fill="#fdb462" stroke="black" cx="645" cy="-104" rx="56.76" ry="18"/>
<text text-anchor="middle" x="645" y="-99.8" font-family="Times,serif" font-size="14.00">JwtStrategy</text>
</g>
<!-- JwtStrategy&#45;&gt;AuthModule -->
<g id="edge5" class="edge">
<title>JwtStrategy&#45;&gt;AuthModule</title>
<path fill="none" stroke="black" d="M603.57,-116.53C603.57,-116.53 603.57,-140.85 603.57,-140.85"/>
<polygon fill="black" stroke="black" points="600.07,-140.85 603.57,-150.85 607.07,-140.85 600.07,-140.85"/>
</g>
<!-- LocalStrategy -->
<g id="node7" class="node">
<title>LocalStrategy</title>
<ellipse fill="#fdb462" stroke="black" cx="505" cy="-104" rx="65.41" ry="18"/>
<text text-anchor="middle" x="505" y="-99.8" font-family="Times,serif" font-size="14.00">LocalStrategy</text>
</g>
<!-- LocalStrategy&#45;&gt;AuthModule -->
<g id="edge6" class="edge">
<title>LocalStrategy&#45;&gt;AuthModule</title>
<path fill="none" stroke="black" d="M550.71,-116.84C550.71,-116.84 550.71,-140.52 550.71,-140.52"/>
<polygon fill="black" stroke="black" points="547.21,-140.52 550.71,-150.52 554.21,-140.52 547.21,-140.52"/>
</g>
<!-- PrismaService -->
<g id="node8" class="node">
<title>PrismaService</title>
<ellipse fill="#fdb462" stroke="black" cx="355" cy="-104" rx="66.63" ry="18"/>
<text text-anchor="middle" x="355" y="-99.8" font-family="Times,serif" font-size="14.00">PrismaService</text>
</g>
<!-- PrismaService&#45;&gt;AuthModule -->
<g id="edge7" class="edge">
<title>PrismaService&#45;&gt;AuthModule</title>
<path fill="none" stroke="black" d="M355,-122.03C355,-138.4 355,-160 355,-160 355,-160 521.27,-160 521.27,-160"/>
<polygon fill="black" stroke="black" points="521.27,-163.5 531.27,-160 521.27,-156.5 521.27,-163.5"/>
</g>
<!-- UsersService -->
<g id="node9" class="node">
<title>UsersService</title>
<ellipse fill="#fdb462" stroke="black" cx="208" cy="-104" rx="61.95" ry="18"/>
<text text-anchor="middle" x="208" y="-99.8" font-family="Times,serif" font-size="14.00">UsersService</text>
</g>
<!-- UsersService&#45;&gt;AuthModule -->
<g id="edge8" class="edge">
<title>UsersService&#45;&gt;AuthModule</title>
<path fill="none" stroke="black" d="M208,-122.11C208,-141.34 208,-169 208,-169 208,-169 521.1,-169 521.1,-169"/>
<polygon fill="black" stroke="black" points="521.1,-172.5 531.1,-169 521.1,-165.5 521.1,-172.5"/>
</g>
</g>
</svg>
