<?xml version="1.0" encoding="UTF-8" standalone="no"?>
<!DOCTYPE svg PUBLIC "-//W3C//DTD SVG 1.1//EN"
 "http://www.w3.org/Graphics/SVG/1.1/DTD/svg11.dtd">
<!-- Generated by graphviz version 2.47.0 (20210316.0004)
 -->
<!-- Title: dependencies Pages: 1 -->
<svg width="723pt" height="284pt"
 viewBox="0.00 0.00 723.00 284.00" xmlns="http://www.w3.org/2000/svg" xmlns:xlink="http://www.w3.org/1999/xlink">
<g id="graph0" class="graph" transform="scale(1 1) rotate(0) translate(4 280)">
<title>dependencies</title>
<polygon fill="white" stroke="transparent" points="-4,4 -4,-280 719,-280 719,4 -4,4"/>
<text text-anchor="start" x="336.51" y="-42.4" font-family="Times-12" font-weight="bold" font-size="14.00">Legend</text>
<polygon fill="#ffffb3" stroke="transparent" points="123.5,-10 123.5,-30 143.5,-30 143.5,-10 123.5,-10"/>
<text text-anchor="start" x="147.13" y="-15.4" font-family="Times-12" font-size="14.00"> &#160;Declarations</text>
<polygon fill="#8dd3c7" stroke="transparent" points="236.5,-10 236.5,-30 256.5,-30 256.5,-10 236.5,-10"/>
<text text-anchor="start" x="260.23" y="-15.4" font-family="Times-12" font-size="14.00"> &#160;Module</text>
<polygon fill="#80b1d3" stroke="transparent" points="322.5,-10 322.5,-30 342.5,-30 342.5,-10 322.5,-10"/>
<text text-anchor="start" x="346.28" y="-15.4" font-family="Times-12" font-size="14.00"> &#160;Bootstrap</text>
<polygon fill="#fdb462" stroke="transparent" points="419.5,-10 419.5,-30 439.5,-30 439.5,-10 419.5,-10"/>
<text text-anchor="start" x="443.17" y="-15.4" font-family="Times-12" font-size="14.00"> &#160;Providers</text>
<polygon fill="#fb8072" stroke="transparent" points="515.5,-10 515.5,-30 535.5,-30 535.5,-10 515.5,-10"/>
<text text-anchor="start" x="539.23" y="-15.4" font-family="Times-12" font-size="14.00"> &#160;Exports</text>
<g id="clust1" class="cluster">
<title>cluster_AuthModule</title>
<polygon fill="none" stroke="black" stroke-dasharray="1,5" points="8,-70 8,-268 707,-268 707,-70 8,-70"/>
</g>
<g id="clust6" class="cluster">
<title>cluster_AuthModule_providers</title>
<polygon fill="none" stroke="black" points="285,-78 285,-130 699,-130 699,-78 285,-78"/>
</g>
<g id="clust3" class="cluster">
<title>cluster_AuthModule_imports</title>
<polygon fill="none" stroke="black" points="16,-78 16,-130 277,-130 277,-78 16,-78"/>
</g>
<g id="clust4" class="cluster">
<title>cluster_AuthModule_exports</title>
<polygon fill="none" stroke="black" points="305,-208 305,-260 411,-260 411,-208 305,-208"/>
</g>
<!-- PrismaModule -->
<g id="node1" class="node">
<title>PrismaModule</title>
<polygon fill="#8dd3c7" stroke="black" points="269.43,-122 266.43,-126 245.43,-126 242.43,-122 170.57,-122 170.57,-86 269.43,-86 269.43,-122"/>
<text text-anchor="middle" x="220" y="-99.8" font-family="Times,serif" font-size="14.00">PrismaModule</text>
</g>
<!-- AuthModule -->
<g id="node3" class="node">
<title>AuthModule</title>
<polygon fill="#8dd3c7" stroke="black" points="401.55,-187 398.55,-191 377.55,-191 374.55,-187 314.45,-187 314.45,-151 401.55,-151 401.55,-187"/>
<text text-anchor="middle" x="358" y="-164.8" font-family="Times,serif" font-size="14.00">AuthModule</text>
</g>
<!-- PrismaModule&#45;&gt;AuthModule -->
<g id="edge1" class="edge">
<title>PrismaModule&#45;&gt;AuthModule</title>
<path fill="none" stroke="black" d="M220,-122.02C220,-139.37 220,-163 220,-163 220,-163 304.34,-163 304.34,-163"/>
<polygon fill="black" stroke="black" points="304.34,-166.5 314.34,-163 304.34,-159.5 304.34,-166.5"/>
</g>
<!-- SpotifyAuthModule -->
<g id="node2" class="node">
<title>SpotifyAuthModule</title>
<polygon fill="#8dd3c7" stroke="black" points="152.27,-122 149.27,-126 128.27,-126 125.27,-122 23.73,-122 23.73,-86 152.27,-86 152.27,-122"/>
<text text-anchor="middle" x="88" y="-99.8" font-family="Times,serif" font-size="14.00">SpotifyAuthModule</text>
</g>
<!-- SpotifyAuthModule&#45;&gt;AuthModule -->
<g id="edge2" class="edge">
<title>SpotifyAuthModule&#45;&gt;AuthModule</title>
<path fill="none" stroke="black" d="M88,-122.28C88,-143.32 88,-175 88,-175 88,-175 304.32,-175 304.32,-175"/>
<polygon fill="black" stroke="black" points="304.32,-178.5 314.32,-175 304.32,-171.5 304.32,-178.5"/>
</g>
<!-- AuthService  -->
<g id="node4" class="node">
<title>AuthService </title>
<polygon fill="#fb8072" stroke="black" points="402.98,-252 313.02,-252 313.02,-216 402.98,-216 402.98,-252"/>
<text text-anchor="middle" x="358" y="-229.8" font-family="Times,serif" font-size="14.00">AuthService </text>
</g>
<!-- AuthModule&#45;&gt;AuthService  -->
<g id="edge3" class="edge">
<title>AuthModule&#45;&gt;AuthService </title>
<path fill="none" stroke="black" stroke-dasharray="5,2" d="M358,-187.11C358,-187.11 358,-205.99 358,-205.99"/>
<polygon fill="black" stroke="black" points="354.5,-205.99 358,-215.99 361.5,-205.99 354.5,-205.99"/>
</g>
<!-- AuthService -->
<g id="node5" class="node">
<title>AuthService</title>
<ellipse fill="#fdb462" stroke="black" cx="632" cy="-104" rx="59.11" ry="18"/>
<text text-anchor="middle" x="632" y="-99.8" font-family="Times,serif" font-size="14.00">AuthService</text>
</g>
<!-- AuthService&#45;&gt;AuthModule -->
<g id="edge4" class="edge">
<title>AuthService&#45;&gt;AuthModule</title>
<path fill="none" stroke="black" d="M632,-122.28C632,-143.32 632,-175 632,-175 632,-175 411.72,-175 411.72,-175"/>
<polygon fill="black" stroke="black" points="411.72,-171.5 401.72,-175 411.72,-178.5 411.72,-171.5"/>
</g>
<!-- JwtStrategy -->
<g id="node6" class="node">
<title>JwtStrategy</title>
<ellipse fill="#fdb462" stroke="black" cx="498" cy="-104" rx="56.76" ry="18"/>
<text text-anchor="middle" x="498" y="-99.8" font-family="Times,serif" font-size="14.00">JwtStrategy</text>
</g>
<!-- JwtStrategy&#45;&gt;AuthModule -->
<g id="edge5" class="edge">
<title>JwtStrategy&#45;&gt;AuthModule</title>
<path fill="none" stroke="black" d="M498,-122.02C498,-139.37 498,-163 498,-163 498,-163 411.91,-163 411.91,-163"/>
<polygon fill="black" stroke="black" points="411.91,-159.5 401.91,-163 411.91,-166.5 411.91,-159.5"/>
</g>
<!-- LocalStrategy -->
<g id="node7" class="node">
<title>LocalStrategy</title>
<ellipse fill="#fdb462" stroke="black" cx="358" cy="-104" rx="65.41" ry="18"/>
<text text-anchor="middle" x="358" y="-99.8" font-family="Times,serif" font-size="14.00">LocalStrategy</text>
</g>
<!-- LocalStrategy&#45;&gt;AuthModule -->
<g id="edge6" class="edge">
<title>LocalStrategy&#45;&gt;AuthModule</title>
<path fill="none" stroke="black" d="M358,-122.11C358,-122.11 358,-140.99 358,-140.99"/>
<polygon fill="black" stroke="black" points="354.5,-140.99 358,-150.99 361.5,-140.99 354.5,-140.99"/>
</g>
</g>
</svg>
