<?xml version="1.0" encoding="UTF-8" standalone="no"?>
<!DOCTYPE svg PUBLIC "-//W3C//DTD SVG 1.1//EN"
 "http://www.w3.org/Graphics/SVG/1.1/DTD/svg11.dtd">
<!-- Generated by graphviz version 2.47.0 (20210316.0004)
 -->
<!-- Title: dependencies Pages: 1 -->
<svg width="1433pt" height="284pt"
 viewBox="0.00 0.00 1433.00 284.00" xmlns="http://www.w3.org/2000/svg" xmlns:xlink="http://www.w3.org/1999/xlink">
<g id="graph0" class="graph" transform="scale(1 1) rotate(0) translate(4 280)">
<title>dependencies</title>
<polygon fill="white" stroke="transparent" points="-4,4 -4,-280 1429,-280 1429,4 -4,4"/>
<text text-anchor="start" x="691.51" y="-42.4" font-family="Times-12" font-weight="bold" font-size="14.00">Legend</text>
<polygon fill="#ffffb3" stroke="transparent" points="478.5,-10 478.5,-30 498.5,-30 498.5,-10 478.5,-10"/>
<text text-anchor="start" x="502.13" y="-15.4" font-family="Times-12" font-size="14.00"> &#160;Declarations</text>
<polygon fill="#8dd3c7" stroke="transparent" points="591.5,-10 591.5,-30 611.5,-30 611.5,-10 591.5,-10"/>
<text text-anchor="start" x="615.23" y="-15.4" font-family="Times-12" font-size="14.00"> &#160;Module</text>
<polygon fill="#80b1d3" stroke="transparent" points="677.5,-10 677.5,-30 697.5,-30 697.5,-10 677.5,-10"/>
<text text-anchor="start" x="701.28" y="-15.4" font-family="Times-12" font-size="14.00"> &#160;Bootstrap</text>
<polygon fill="#fdb462" stroke="transparent" points="774.5,-10 774.5,-30 794.5,-30 794.5,-10 774.5,-10"/>
<text text-anchor="start" x="798.17" y="-15.4" font-family="Times-12" font-size="14.00"> &#160;Providers</text>
<polygon fill="#fb8072" stroke="transparent" points="870.5,-10 870.5,-30 890.5,-30 890.5,-10 870.5,-10"/>
<text text-anchor="start" x="894.23" y="-15.4" font-family="Times-12" font-size="14.00"> &#160;Exports</text>
<g id="clust1" class="cluster">
<title>cluster_LiveModule</title>
<polygon fill="none" stroke="black" stroke-dasharray="1,5" points="8,-70 8,-268 1417,-268 1417,-70 8,-70"/>
</g>
<g id="clust6" class="cluster">
<title>cluster_LiveModule_providers</title>
<polygon fill="none" stroke="black" points="1084,-78 1084,-130 1409,-130 1409,-78 1084,-78"/>
</g>
<g id="clust3" class="cluster">
<title>cluster_LiveModule_imports</title>
<polygon fill="none" stroke="black" points="16,-78 16,-130 1076,-130 1076,-78 16,-78"/>
</g>
<g id="clust4" class="cluster">
<title>cluster_LiveModule_exports</title>
<polygon fill="none" stroke="black" points="454,-208 454,-260 846,-260 846,-208 454,-208"/>
</g>
<!-- AutoModerationModule -->
<g id="node1" class="node">
<title>AutoModerationModule</title>
<polygon fill="#8dd3c7" stroke="black" points="1068.36,-122 1065.36,-126 1044.36,-126 1041.36,-122 915.64,-122 915.64,-86 1068.36,-86 1068.36,-122"/>
<text text-anchor="middle" x="992" y="-99.8" font-family="Times,serif" font-size="14.00">AutoModerationModule</text>
</g>
<!-- LiveModule -->
<g id="node9" class="node">
<title>LiveModule</title>
<polygon fill="#8dd3c7" stroke="black" points="699.71,-187 696.71,-191 675.71,-191 672.71,-187 614.29,-187 614.29,-151 699.71,-151 699.71,-187"/>
<text text-anchor="middle" x="657" y="-164.8" font-family="Times,serif" font-size="14.00">LiveModule</text>
</g>
<!-- AutoModerationModule&#45;&gt;LiveModule -->
<g id="edge1" class="edge">
<title>AutoModerationModule&#45;&gt;LiveModule</title>
<path fill="none" stroke="black" d="M992,-122.02C992,-139.37 992,-163 992,-163 992,-163 709.77,-163 709.77,-163"/>
<polygon fill="black" stroke="black" points="709.77,-159.5 699.77,-163 709.77,-166.5 709.77,-159.5"/>
</g>
<!-- DbUtilsModule -->
<g id="node2" class="node">
<title>DbUtilsModule</title>
<polygon fill="#8dd3c7" stroke="black" points="897.88,-122 894.88,-126 873.88,-126 870.88,-122 794.12,-122 794.12,-86 897.88,-86 897.88,-122"/>
<text text-anchor="middle" x="846" y="-99.8" font-family="Times,serif" font-size="14.00">DbUtilsModule</text>
</g>
<!-- DbUtilsModule&#45;&gt;LiveModule -->
<g id="edge2" class="edge">
<title>DbUtilsModule&#45;&gt;LiveModule</title>
<path fill="none" stroke="black" d="M816.01,-122.24C816.01,-137.57 816.01,-157 816.01,-157 816.01,-157 709.61,-157 709.61,-157"/>
<polygon fill="black" stroke="black" points="709.61,-153.5 699.61,-157 709.61,-160.5 709.61,-153.5"/>
</g>
<!-- DmUsersModule -->
<g id="node3" class="node">
<title>DmUsersModule</title>
<polygon fill="#8dd3c7" stroke="black" points="776.42,-122 773.42,-126 752.42,-126 749.42,-122 663.58,-122 663.58,-86 776.42,-86 776.42,-122"/>
<text text-anchor="middle" x="720" y="-99.8" font-family="Times,serif" font-size="14.00">DmUsersModule</text>
</g>
<!-- DmUsersModule&#45;&gt;LiveModule -->
<g id="edge3" class="edge">
<title>DmUsersModule&#45;&gt;LiveModule</title>
<path fill="none" stroke="black" d="M681.7,-122.11C681.7,-122.11 681.7,-140.99 681.7,-140.99"/>
<polygon fill="black" stroke="black" points="678.2,-140.99 681.7,-150.99 685.2,-140.99 678.2,-140.99"/>
</g>
<!-- DtoGenModule -->
<g id="node4" class="node">
<title>DtoGenModule</title>
<polygon fill="#8dd3c7" stroke="black" points="645.87,-122 642.87,-126 621.87,-126 618.87,-122 542.13,-122 542.13,-86 645.87,-86 645.87,-122"/>
<text text-anchor="middle" x="594" y="-99.8" font-family="Times,serif" font-size="14.00">DtoGenModule</text>
</g>
<!-- DtoGenModule&#45;&gt;LiveModule -->
<g id="edge4" class="edge">
<title>DtoGenModule&#45;&gt;LiveModule</title>
<path fill="none" stroke="black" d="M630.17,-122.11C630.17,-122.11 630.17,-140.99 630.17,-140.99"/>
<polygon fill="black" stroke="black" points="626.67,-140.99 630.17,-150.99 633.67,-140.99 626.67,-140.99"/>
</g>
<!-- RoomQueueModule -->
<g id="node5" class="node">
<title>RoomQueueModule</title>
<polygon fill="#8dd3c7" stroke="black" points="524.31,-122 521.31,-126 500.31,-126 497.31,-122 393.69,-122 393.69,-86 524.31,-86 524.31,-122"/>
<text text-anchor="middle" x="459" y="-99.8" font-family="Times,serif" font-size="14.00">RoomQueueModule</text>
</g>
<!-- RoomQueueModule&#45;&gt;LiveModule -->
<g id="edge5" class="edge">
<title>RoomQueueModule&#45;&gt;LiveModule</title>
<path fill="none" stroke="black" d="M493.29,-122.24C493.29,-137.57 493.29,-157 493.29,-157 493.29,-157 603.99,-157 603.99,-157"/>
<polygon fill="black" stroke="black" points="603.99,-160.5 613.99,-157 603.99,-153.5 603.99,-160.5"/>
</g>
<!-- RoomUsersModule -->
<g id="node6" class="node">
<title>RoomUsersModule</title>
<polygon fill="#8dd3c7" stroke="black" points="375.65,-122 372.65,-126 351.65,-126 348.65,-122 250.35,-122 250.35,-86 375.65,-86 375.65,-122"/>
<text text-anchor="middle" x="313" y="-99.8" font-family="Times,serif" font-size="14.00">RoomUsersModule</text>
</g>
<!-- RoomUsersModule&#45;&gt;LiveModule -->
<g id="edge6" class="edge">
<title>RoomUsersModule&#45;&gt;LiveModule</title>
<path fill="none" stroke="black" d="M313,-122.02C313,-139.37 313,-163 313,-163 313,-163 604.13,-163 604.13,-163"/>
<polygon fill="black" stroke="black" points="604.13,-166.5 614.13,-163 604.13,-159.5 604.13,-166.5"/>
</g>
<!-- RoomsModule -->
<g id="node7" class="node">
<title>RoomsModule</title>
<polygon fill="#8dd3c7" stroke="black" points="232.72,-122 229.72,-126 208.72,-126 205.72,-122 133.28,-122 133.28,-86 232.72,-86 232.72,-122"/>
<text text-anchor="middle" x="183" y="-99.8" font-family="Times,serif" font-size="14.00">RoomsModule</text>
</g>
<!-- RoomsModule&#45;&gt;LiveModule -->
<g id="edge7" class="edge">
<title>RoomsModule&#45;&gt;LiveModule</title>
<path fill="none" stroke="black" d="M183,-122.11C183,-141.34 183,-169 183,-169 183,-169 604.1,-169 604.1,-169"/>
<polygon fill="black" stroke="black" points="604.1,-172.5 614.1,-169 604.1,-165.5 604.1,-172.5"/>
</g>
<!-- UsersModule -->
<g id="node8" class="node">
<title>UsersModule</title>
<polygon fill="#8dd3c7" stroke="black" points="115.92,-122 112.92,-126 91.92,-126 88.92,-122 24.08,-122 24.08,-86 115.92,-86 115.92,-122"/>
<text text-anchor="middle" x="70" y="-99.8" font-family="Times,serif" font-size="14.00">UsersModule</text>
</g>
<!-- UsersModule&#45;&gt;LiveModule -->
<g id="edge8" class="edge">
<title>UsersModule&#45;&gt;LiveModule</title>
<path fill="none" stroke="black" d="M70,-122.28C70,-143.32 70,-175 70,-175 70,-175 604.31,-175 604.31,-175"/>
<polygon fill="black" stroke="black" points="604.31,-178.5 614.31,-175 604.31,-171.5 604.31,-178.5"/>
</g>
<!-- DmUsersModule  -->
<g id="node10" class="node">
<title>DmUsersModule </title>
<polygon fill="#fb8072" stroke="black" points="837.92,-252 722.08,-252 722.08,-216 837.92,-216 837.92,-252"/>
<text text-anchor="middle" x="780" y="-229.8" font-family="Times,serif" font-size="14.00">DmUsersModule </text>
</g>
<!-- LiveModule&#45;&gt;DmUsersModule  -->
<g id="edge9" class="edge">
<title>LiveModule&#45;&gt;DmUsersModule </title>
<path fill="none" stroke="black" stroke-dasharray="5,2" d="M699.83,-181C723.88,-181 749.12,-181 749.12,-181 749.12,-181 749.12,-205.76 749.12,-205.76"/>
<polygon fill="black" stroke="black" points="745.63,-205.76 749.12,-215.76 752.63,-205.76 745.63,-205.76"/>
</g>
<!-- LiveGateway  -->
<g id="node11" class="node">
<title>LiveGateway </title>
<polygon fill="#fb8072" stroke="black" points="704.41,-252 609.59,-252 609.59,-216 704.41,-216 704.41,-252"/>
<text text-anchor="middle" x="657" y="-229.8" font-family="Times,serif" font-size="14.00">LiveGateway </text>
</g>
<!-- LiveModule&#45;&gt;LiveGateway  -->
<g id="edge10" class="edge">
<title>LiveModule&#45;&gt;LiveGateway </title>
<path fill="none" stroke="black" stroke-dasharray="5,2" d="M657,-187.11C657,-187.11 657,-205.99 657,-205.99"/>
<polygon fill="black" stroke="black" points="653.5,-205.99 657,-215.99 660.5,-205.99 653.5,-205.99"/>
</g>
<!-- RoomUsersModule  -->
<g id="node12" class="node">
<title>RoomUsersModule </title>
<polygon fill="#fb8072" stroke="black" points="591.65,-252 462.35,-252 462.35,-216 591.65,-216 591.65,-252"/>
<text text-anchor="middle" x="527" y="-229.8" font-family="Times,serif" font-size="14.00">RoomUsersModule </text>
</g>
<!-- LiveModule&#45;&gt;RoomUsersModule  -->
<g id="edge11" class="edge">
<title>LiveModule&#45;&gt;RoomUsersModule </title>
<path fill="none" stroke="black" stroke-dasharray="5,2" d="M614.29,-181C590.98,-181 566.82,-181 566.82,-181 566.82,-181 566.82,-205.76 566.82,-205.76"/>
<polygon fill="black" stroke="black" points="563.32,-205.76 566.82,-215.76 570.32,-205.76 563.32,-205.76"/>
</g>
<!-- EventQueueService -->
<g id="node13" class="node">
<title>EventQueueService</title>
<ellipse fill="#fdb462" stroke="black" cx="1313" cy="-104" rx="87.94" ry="18"/>
<text text-anchor="middle" x="1313" y="-99.8" font-family="Times,serif" font-size="14.00">EventQueueService</text>
</g>
<!-- EventQueueService&#45;&gt;LiveModule -->
<g id="edge12" class="edge">
<title>EventQueueService&#45;&gt;LiveModule</title>
<path fill="none" stroke="black" d="M1313,-122.28C1313,-143.32 1313,-175 1313,-175 1313,-175 709.79,-175 709.79,-175"/>
<polygon fill="black" stroke="black" points="709.79,-171.5 699.79,-175 709.79,-178.5 709.79,-171.5"/>
</g>
<!-- LiveService -->
<g id="node14" class="node">
<title>LiveService</title>
<ellipse fill="#fdb462" stroke="black" cx="1150" cy="-104" rx="57.88" ry="18"/>
<text text-anchor="middle" x="1150" y="-99.8" font-family="Times,serif" font-size="14.00">LiveService</text>
</g>
<!-- LiveService&#45;&gt;LiveModule -->
<g id="edge13" class="edge">
<title>LiveService&#45;&gt;LiveModule</title>
<path fill="none" stroke="black" d="M1150,-122.11C1150,-141.34 1150,-169 1150,-169 1150,-169 709.89,-169 709.89,-169"/>
<polygon fill="black" stroke="black" points="709.89,-165.5 699.89,-169 709.89,-172.5 709.89,-165.5"/>
</g>
</g>
</svg>
