<?xml version="1.0" encoding="UTF-8" standalone="no"?>
<!DOCTYPE svg PUBLIC "-//W3C//DTD SVG 1.1//EN"
 "http://www.w3.org/Graphics/SVG/1.1/DTD/svg11.dtd">
<!-- Generated by graphviz version 2.47.0 (20210316.0004)
 -->
<!-- Title: dependencies Pages: 1 -->
<svg width="535pt" height="284pt"
 viewBox="0.00 0.00 535.00 284.00" xmlns="http://www.w3.org/2000/svg" xmlns:xlink="http://www.w3.org/1999/xlink">
<g id="graph0" class="graph" transform="scale(1 1) rotate(0) translate(4 280)">
<title>dependencies</title>
<polygon fill="white" stroke="transparent" points="-4,4 -4,-280 531,-280 531,4 -4,4"/>
<text text-anchor="start" x="242.51" y="-42.4" font-family="Times-12" font-weight="bold" font-size="14.00">Legend</text>
<polygon fill="#ffffb3" stroke="transparent" points="29.5,-10 29.5,-30 49.5,-30 49.5,-10 29.5,-10"/>
<text text-anchor="start" x="53.13" y="-15.4" font-family="Times-12" font-size="14.00"> &#160;Declarations</text>
<polygon fill="#8dd3c7" stroke="transparent" points="142.5,-10 142.5,-30 162.5,-30 162.5,-10 142.5,-10"/>
<text text-anchor="start" x="166.23" y="-15.4" font-family="Times-12" font-size="14.00"> &#160;Module</text>
<polygon fill="#80b1d3" stroke="transparent" points="228.5,-10 228.5,-30 248.5,-30 248.5,-10 228.5,-10"/>
<text text-anchor="start" x="252.28" y="-15.4" font-family="Times-12" font-size="14.00"> &#160;Bootstrap</text>
<polygon fill="#fdb462" stroke="transparent" points="325.5,-10 325.5,-30 345.5,-30 345.5,-10 325.5,-10"/>
<text text-anchor="start" x="349.17" y="-15.4" font-family="Times-12" font-size="14.00"> &#160;Providers</text>
<polygon fill="#fb8072" stroke="transparent" points="421.5,-10 421.5,-30 441.5,-30 441.5,-10 421.5,-10"/>
<text text-anchor="start" x="445.23" y="-15.4" font-family="Times-12" font-size="14.00"> &#160;Exports</text>
<g id="clust1" class="cluster">
<title>cluster_SpotifyModule</title>
<polygon fill="none" stroke="black" stroke-dasharray="1,5" points="8,-70 8,-268 519,-268 519,-70 8,-70"/>
</g>
<g id="clust3" class="cluster">
<title>cluster_SpotifyModule_imports</title>
<polygon fill="none" stroke="black" points="176,-78 176,-130 511,-130 511,-78 176,-78"/>
</g>
<g id="clust4" class="cluster">
<title>cluster_SpotifyModule_exports</title>
<polygon fill="none" stroke="black" points="226,-208 226,-260 344,-260 344,-208 226,-208"/>
</g>
<g id="clust6" class="cluster">
<title>cluster_SpotifyModule_providers</title>
<polygon fill="none" stroke="black" points="16,-78 16,-130 168,-130 168,-78 16,-78"/>
</g>
<!-- ImageModule -->
<g id="node1" class="node">
<title>ImageModule</title>
<polygon fill="#8dd3c7" stroke="black" points="503.03,-122 500.03,-126 479.03,-126 476.03,-122 408.97,-122 408.97,-86 503.03,-86 503.03,-122"/>
<text text-anchor="middle" x="456" y="-99.8" font-family="Times,serif" font-size="14.00">ImageModule</text>
</g>
<!-- SpotifyModule -->
<g id="node4" class="node">
<title>SpotifyModule</title>
<polygon fill="#8dd3c7" stroke="black" points="335.27,-187 332.27,-191 311.27,-191 308.27,-187 234.73,-187 234.73,-151 335.27,-151 335.27,-187"/>
<text text-anchor="middle" x="285" y="-164.8" font-family="Times,serif" font-size="14.00">SpotifyModule</text>
</g>
<!-- ImageModule&#45;&gt;SpotifyModule -->
<g id="edge1" class="edge">
<title>ImageModule&#45;&gt;SpotifyModule</title>
<path fill="none" stroke="black" d="M456,-122.11C456,-141.34 456,-169 456,-169 456,-169 345.38,-169 345.38,-169"/>
<polygon fill="black" stroke="black" points="345.38,-165.5 335.38,-169 345.38,-172.5 345.38,-165.5"/>
</g>
<!-- PrismaModule -->
<g id="node2" class="node">
<title>PrismaModule</title>
<polygon fill="#8dd3c7" stroke="black" points="391.43,-122 388.43,-126 367.43,-126 364.43,-122 292.57,-122 292.57,-86 391.43,-86 391.43,-122"/>
<text text-anchor="middle" x="342" y="-99.8" font-family="Times,serif" font-size="14.00">PrismaModule</text>
</g>
<!-- PrismaModule&#45;&gt;SpotifyModule -->
<g id="edge2" class="edge">
<title>PrismaModule&#45;&gt;SpotifyModule</title>
<path fill="none" stroke="black" d="M314.09,-122.11C314.09,-122.11 314.09,-140.99 314.09,-140.99"/>
<polygon fill="black" stroke="black" points="310.59,-140.99 314.09,-150.99 317.59,-140.99 310.59,-140.99"/>
</g>
<!-- RetryModule -->
<g id="node3" class="node">
<title>RetryModule</title>
<polygon fill="#8dd3c7" stroke="black" points="274.15,-122 271.15,-126 250.15,-126 247.15,-122 183.85,-122 183.85,-86 274.15,-86 274.15,-122"/>
<text text-anchor="middle" x="229" y="-99.8" font-family="Times,serif" font-size="14.00">RetryModule</text>
</g>
<!-- RetryModule&#45;&gt;SpotifyModule -->
<g id="edge3" class="edge">
<title>RetryModule&#45;&gt;SpotifyModule</title>
<path fill="none" stroke="black" d="M254.47,-122.11C254.47,-122.11 254.47,-140.99 254.47,-140.99"/>
<polygon fill="black" stroke="black" points="250.97,-140.99 254.47,-150.99 257.97,-140.99 250.97,-140.99"/>
</g>
<!-- SpotifyService  -->
<g id="node5" class="node">
<title>SpotifyService </title>
<polygon fill="#fb8072" stroke="black" points="336.2,-252 233.8,-252 233.8,-216 336.2,-216 336.2,-252"/>
<text text-anchor="middle" x="285" y="-229.8" font-family="Times,serif" font-size="14.00">SpotifyService </text>
</g>
<!-- SpotifyModule&#45;&gt;SpotifyService  -->
<g id="edge4" class="edge">
<title>SpotifyModule&#45;&gt;SpotifyService </title>
<path fill="none" stroke="black" stroke-dasharray="5,2" d="M285,-187.11C285,-187.11 285,-205.99 285,-205.99"/>
<polygon fill="black" stroke="black" points="281.5,-205.99 285,-215.99 288.5,-205.99 281.5,-205.99"/>
</g>
<!-- SpotifyService -->
<g id="node6" class="node">
<title>SpotifyService</title>
<ellipse fill="#fdb462" stroke="black" cx="92" cy="-104" rx="68.36" ry="18"/>
<text text-anchor="middle" x="92" y="-99.8" font-family="Times,serif" font-size="14.00">SpotifyService</text>
</g>
<!-- SpotifyService&#45;&gt;SpotifyModule -->
<g id="edge5" class="edge">
<title>SpotifyService&#45;&gt;SpotifyModule</title>
<path fill="none" stroke="black" d="M92,-122.11C92,-141.34 92,-169 92,-169 92,-169 224.54,-169 224.54,-169"/>
<polygon fill="black" stroke="black" points="224.54,-172.5 234.54,-169 224.54,-165.5 224.54,-172.5"/>
</g>
</g>
</svg>
