<?xml version="1.0" encoding="UTF-8" standalone="no"?>
<!DOCTYPE svg PUBLIC "-//W3C//DTD SVG 1.1//EN"
 "http://www.w3.org/Graphics/SVG/1.1/DTD/svg11.dtd">
<!-- Generated by graphviz version 2.47.0 (20210316.0004)
 -->
<!-- Title: dependencies Pages: 1 -->
<svg width="1302pt" height="211pt"
 viewBox="0.00 0.00 1302.00 211.00" xmlns="http://www.w3.org/2000/svg" xmlns:xlink="http://www.w3.org/1999/xlink">
<g id="graph0" class="graph" transform="scale(1 1) rotate(0) translate(4 207)">
<title>dependencies</title>
<polygon fill="white" stroke="transparent" points="-4,4 -4,-207 1298,-207 1298,4 -4,4"/>
<text text-anchor="start" x="626.01" y="-42.4" font-family="Times-12" font-weight="bold" font-size="14.00">Legend</text>
<polygon fill="#ffffb3" stroke="transparent" points="413,-10 413,-30 433,-30 433,-10 413,-10"/>
<text text-anchor="start" x="436.63" y="-15.4" font-family="Times-12" font-size="14.00"> &#160;Declarations</text>
<polygon fill="#8dd3c7" stroke="transparent" points="526,-10 526,-30 546,-30 546,-10 526,-10"/>
<text text-anchor="start" x="549.73" y="-15.4" font-family="Times-12" font-size="14.00"> &#160;Module</text>
<polygon fill="#80b1d3" stroke="transparent" points="612,-10 612,-30 632,-30 632,-10 612,-10"/>
<text text-anchor="start" x="635.78" y="-15.4" font-family="Times-12" font-size="14.00"> &#160;Bootstrap</text>
<polygon fill="#fdb462" stroke="transparent" points="709,-10 709,-30 729,-30 729,-10 709,-10"/>
<text text-anchor="start" x="732.67" y="-15.4" font-family="Times-12" font-size="14.00"> &#160;Providers</text>
<polygon fill="#fb8072" stroke="transparent" points="805,-10 805,-30 825,-30 825,-10 805,-10"/>
<text text-anchor="start" x="828.73" y="-15.4" font-family="Times-12" font-size="14.00"> &#160;Exports</text>
<g id="clust1" class="cluster">
<title>cluster_AppModule</title>
<polygon fill="none" stroke="black" stroke-dasharray="1,5" points="8,-70 8,-195 1286,-195 1286,-70 8,-70"/>
</g>
<g id="clust6" class="cluster">
<title>cluster_AppModule_providers</title>
<polygon fill="none" stroke="black" points="830,-78 830,-130 1278,-130 1278,-78 830,-78"/>
</g>
<g id="clust3" class="cluster">
<title>cluster_AppModule_imports</title>
<polygon fill="none" stroke="black" points="16,-78 16,-130 822,-130 822,-78 16,-78"/>
</g>
<!-- AuthModule -->
<g id="node1" class="node">
<title>AuthModule</title>
<polygon fill="#8dd3c7" stroke="black" points="813.55,-122 810.55,-126 789.55,-126 786.55,-122 726.45,-122 726.45,-86 813.55,-86 813.55,-122"/>
<text text-anchor="middle" x="770" y="-99.8" font-family="Times,serif" font-size="14.00">AuthModule</text>
</g>
<!-- AppModule -->
<g id="node8" class="node">
<title>AppModule</title>
<polygon fill="#8dd3c7" stroke="black" points="636.66,-187 633.66,-191 612.66,-191 609.66,-187 553.34,-187 553.34,-151 636.66,-151 636.66,-187"/>
<text text-anchor="middle" x="595" y="-164.8" font-family="Times,serif" font-size="14.00">AppModule</text>
</g>
<!-- AuthModule&#45;&gt;AppModule -->
<g id="edge1" class="edge">
<title>AuthModule&#45;&gt;AppModule</title>
<path fill="none" stroke="black" d="M770,-122.01C770,-138.05 770,-159 770,-159 770,-159 646.92,-159 646.92,-159"/>
<polygon fill="black" stroke="black" points="646.92,-155.5 636.92,-159 646.92,-162.5 646.92,-155.5"/>
</g>
<!-- DbUtilsModule -->
<g id="node2" class="node">
<title>DbUtilsModule</title>
<polygon fill="#8dd3c7" stroke="black" points="707.88,-122 704.88,-126 683.88,-126 680.88,-122 604.12,-122 604.12,-86 707.88,-86 707.88,-122"/>
<text text-anchor="middle" x="656" y="-99.8" font-family="Times,serif" font-size="14.00">DbUtilsModule</text>
</g>
<!-- DbUtilsModule&#45;&gt;AppModule -->
<g id="edge2" class="edge">
<title>DbUtilsModule&#45;&gt;AppModule</title>
<path fill="none" stroke="black" d="M620.44,-122.11C620.44,-122.11 620.44,-140.99 620.44,-140.99"/>
<polygon fill="black" stroke="black" points="616.94,-140.99 620.44,-150.99 623.94,-140.99 616.94,-140.99"/>
</g>
<!-- DtoGenModule -->
<g id="node3" class="node">
<title>DtoGenModule</title>
<polygon fill="#8dd3c7" stroke="black" points="585.87,-122 582.87,-126 561.87,-126 558.87,-122 482.13,-122 482.13,-86 585.87,-86 585.87,-122"/>
<text text-anchor="middle" x="534" y="-99.8" font-family="Times,serif" font-size="14.00">DtoGenModule</text>
</g>
<!-- DtoGenModule&#45;&gt;AppModule -->
<g id="edge3" class="edge">
<title>DtoGenModule&#45;&gt;AppModule</title>
<path fill="none" stroke="black" d="M569.55,-122.11C569.55,-122.11 569.55,-140.99 569.55,-140.99"/>
<polygon fill="black" stroke="black" points="566.05,-140.99 569.55,-150.99 573.05,-140.99 566.05,-140.99"/>
</g>
<!-- PrismaModule -->
<g id="node4" class="node">
<title>PrismaModule</title>
<polygon fill="#8dd3c7" stroke="black" points="464.43,-122 461.43,-126 440.43,-126 437.43,-122 365.57,-122 365.57,-86 464.43,-86 464.43,-122"/>
<text text-anchor="middle" x="415" y="-99.8" font-family="Times,serif" font-size="14.00">PrismaModule</text>
</g>
<!-- PrismaModule&#45;&gt;AppModule -->
<g id="edge4" class="edge">
<title>PrismaModule&#45;&gt;AppModule</title>
<path fill="none" stroke="black" d="M415,-122.01C415,-138.05 415,-159 415,-159 415,-159 543.25,-159 543.25,-159"/>
<polygon fill="black" stroke="black" points="543.25,-162.5 553.25,-159 543.25,-155.5 543.25,-162.5"/>
</g>
<!-- ProfileModule -->
<g id="node5" class="node">
<title>ProfileModule</title>
<polygon fill="#8dd3c7" stroke="black" points="347.65,-122 344.65,-126 323.65,-126 320.65,-122 250.35,-122 250.35,-86 347.65,-86 347.65,-122"/>
<text text-anchor="middle" x="299" y="-99.8" font-family="Times,serif" font-size="14.00">ProfileModule</text>
</g>
<!-- ProfileModule&#45;&gt;AppModule -->
<g id="edge5" class="edge">
<title>ProfileModule&#45;&gt;AppModule</title>
<path fill="none" stroke="black" d="M299,-122.27C299,-140.56 299,-166 299,-166 299,-166 543.22,-166 543.22,-166"/>
<polygon fill="black" stroke="black" points="543.22,-169.5 553.22,-166 543.22,-162.5 543.22,-169.5"/>
</g>
<!-- RoomsModule -->
<g id="node6" class="node">
<title>RoomsModule</title>
<polygon fill="#8dd3c7" stroke="black" points="232.72,-122 229.72,-126 208.72,-126 205.72,-122 133.28,-122 133.28,-86 232.72,-86 232.72,-122"/>
<text text-anchor="middle" x="183" y="-99.8" font-family="Times,serif" font-size="14.00">RoomsModule</text>
</g>
<!-- RoomsModule&#45;&gt;AppModule -->
<g id="edge6" class="edge">
<title>RoomsModule&#45;&gt;AppModule</title>
<path fill="none" stroke="black" d="M183,-122.13C183,-142.57 183,-173 183,-173 183,-173 543.23,-173 543.23,-173"/>
<polygon fill="black" stroke="black" points="543.23,-176.5 553.23,-173 543.23,-169.5 543.23,-176.5"/>
</g>
<!-- UsersModule -->
<g id="node7" class="node">
<title>UsersModule</title>
<polygon fill="#8dd3c7" stroke="black" points="115.92,-122 112.92,-126 91.92,-126 88.92,-122 24.08,-122 24.08,-86 115.92,-86 115.92,-122"/>
<text text-anchor="middle" x="70" y="-99.8" font-family="Times,serif" font-size="14.00">UsersModule</text>
</g>
<!-- UsersModule&#45;&gt;AppModule -->
<g id="edge7" class="edge">
<title>UsersModule&#45;&gt;AppModule</title>
<path fill="none" stroke="black" d="M70,-122.01C70,-144.49 70,-180 70,-180 70,-180 542.92,-180 542.92,-180"/>
<polygon fill="black" stroke="black" points="542.92,-183.5 552.92,-180 542.92,-176.5 542.92,-183.5"/>
</g>
<!-- AppService -->
<g id="node9" class="node">
<title>AppService</title>
<ellipse fill="#fdb462" stroke="black" cx="1213" cy="-104" rx="56.74" ry="18"/>
<text text-anchor="middle" x="1213" y="-99.8" font-family="Times,serif" font-size="14.00">AppService</text>
</g>
<!-- AppService&#45;&gt;AppModule -->
<g id="edge8" class="edge">
<title>AppService&#45;&gt;AppModule</title>
<path fill="none" stroke="black" d="M1213,-122.01C1213,-144.49 1213,-180 1213,-180 1213,-180 646.99,-180 646.99,-180"/>
<polygon fill="black" stroke="black" points="646.99,-176.5 636.99,-180 646.99,-183.5 646.99,-176.5"/>
</g>
<!-- DbUtilsService -->
<g id="node10" class="node">
<title>DbUtilsService</title>
<ellipse fill="#fdb462" stroke="black" cx="1068" cy="-104" rx="70.64" ry="18"/>
<text text-anchor="middle" x="1068" y="-99.8" font-family="Times,serif" font-size="14.00">DbUtilsService</text>
</g>
<!-- DbUtilsService&#45;&gt;AppModule -->
<g id="edge9" class="edge">
<title>DbUtilsService&#45;&gt;AppModule</title>
<path fill="none" stroke="black" d="M1068,-122.13C1068,-142.57 1068,-173 1068,-173 1068,-173 646.98,-173 646.98,-173"/>
<polygon fill="black" stroke="black" points="646.98,-169.5 636.98,-173 646.98,-176.5 646.98,-169.5"/>
</g>
<!-- DtoGenService -->
<g id="node11" class="node">
<title>DtoGenService</title>
<ellipse fill="#fdb462" stroke="black" cx="909" cy="-104" rx="70.62" ry="18"/>
<text text-anchor="middle" x="909" y="-99.8" font-family="Times,serif" font-size="14.00">DtoGenService</text>
</g>
<!-- DtoGenService&#45;&gt;AppModule -->
<g id="edge10" class="edge">
<title>DtoGenService&#45;&gt;AppModule</title>
<path fill="none" stroke="black" d="M909,-122.27C909,-140.56 909,-166 909,-166 909,-166 646.7,-166 646.7,-166"/>
<polygon fill="black" stroke="black" points="646.7,-162.5 636.7,-166 646.7,-169.5 646.7,-162.5"/>
</g>
</g>
</svg>
