<?xml version="1.0" encoding="UTF-8" standalone="no"?>
<!DOCTYPE svg PUBLIC "-//W3C//DTD SVG 1.1//EN"
 "http://www.w3.org/Graphics/SVG/1.1/DTD/svg11.dtd">
<!-- Generated by graphviz version 2.47.0 (20210316.0004)
 -->
<!-- Title: dependencies Pages: 1 -->
<svg width="1302pt" height="211pt"
 viewBox="0.00 0.00 1302.00 211.00" xmlns="http://www.w3.org/2000/svg" xmlns:xlink="http://www.w3.org/1999/xlink">
<g id="graph0" class="graph" transform="scale(1 1) rotate(0) translate(4 207)">
<title>dependencies</title>
<polygon fill="white" stroke="transparent" points="-4,4 -4,-207 1298,-207 1298,4 -4,4"/>
<text text-anchor="start" x="626.01" y="-42.4" font-family="Times-12" font-weight="bold" font-size="14.00">Legend</text>
<polygon fill="#ffffb3" stroke="transparent" points="413,-10 413,-30 433,-30 433,-10 413,-10"/>
<text text-anchor="start" x="436.63" y="-15.4" font-family="Times-12" font-size="14.00"> &#160;Declarations</text>
<polygon fill="#8dd3c7" stroke="transparent" points="526,-10 526,-30 546,-30 546,-10 526,-10"/>
<text text-anchor="start" x="549.73" y="-15.4" font-family="Times-12" font-size="14.00"> &#160;Module</text>
<polygon fill="#80b1d3" stroke="transparent" points="612,-10 612,-30 632,-30 632,-10 612,-10"/>
<text text-anchor="start" x="635.78" y="-15.4" font-family="Times-12" font-size="14.00"> &#160;Bootstrap</text>
<polygon fill="#fdb462" stroke="transparent" points="709,-10 709,-30 729,-30 729,-10 709,-10"/>
<text text-anchor="start" x="732.67" y="-15.4" font-family="Times-12" font-size="14.00"> &#160;Providers</text>
<polygon fill="#fb8072" stroke="transparent" points="805,-10 805,-30 825,-30 825,-10 805,-10"/>
<text text-anchor="start" x="828.73" y="-15.4" font-family="Times-12" font-size="14.00"> &#160;Exports</text>
<g id="clust1" class="cluster">
<title>cluster_AppModule</title>
<polygon fill="none" stroke="black" stroke-dasharray="1,5" points="8,-70 8,-195 1286,-195 1286,-70 8,-70"/>
</g>
<g id="clust3" class="cluster">
<title>cluster_AppModule_imports</title>
<polygon fill="none" stroke="black" points="472,-78 472,-130 1278,-130 1278,-78 472,-78"/>
</g>
<g id="clust6" class="cluster">
<title>cluster_AppModule_providers</title>
<polygon fill="none" stroke="black" points="16,-78 16,-130 464,-130 464,-78 16,-78"/>
</g>
<!-- AuthModule -->
<g id="node1" class="node">
<title>AuthModule</title>
<polygon fill="#8dd3c7" stroke="black" points="1269.55,-122 1266.55,-126 1245.55,-126 1242.55,-122 1182.45,-122 1182.45,-86 1269.55,-86 1269.55,-122"/>
<text text-anchor="middle" x="1226" y="-99.8" font-family="Times,serif" font-size="14.00">AuthModule</text>
</g>
<!-- AppModule -->
<g id="node8" class="node">
<title>AppModule</title>
<polygon fill="#8dd3c7" stroke="black" points="738.66,-187 735.66,-191 714.66,-191 711.66,-187 655.34,-187 655.34,-151 738.66,-151 738.66,-187"/>
<text text-anchor="middle" x="697" y="-164.8" font-family="Times,serif" font-size="14.00">AppModule</text>
</g>
<!-- AuthModule&#45;&gt;AppModule -->
<g id="edge1" class="edge">
<title>AuthModule&#45;&gt;AppModule</title>
<path fill="none" stroke="black" d="M1226,-122.01C1226,-144.49 1226,-180 1226,-180 1226,-180 748.95,-180 748.95,-180"/>
<polygon fill="black" stroke="black" points="748.95,-176.5 738.95,-180 748.95,-183.5 748.95,-176.5"/>
</g>
<!-- DbUtilsModule -->
<g id="node2" class="node">
<title>DbUtilsModule</title>
<polygon fill="#8dd3c7" stroke="black" points="1163.88,-122 1160.88,-126 1139.88,-126 1136.88,-122 1060.12,-122 1060.12,-86 1163.88,-86 1163.88,-122"/>
<text text-anchor="middle" x="1112" y="-99.8" font-family="Times,serif" font-size="14.00">DbUtilsModule</text>
</g>
<!-- DbUtilsModule&#45;&gt;AppModule -->
<g id="edge2" class="edge">
<title>DbUtilsModule&#45;&gt;AppModule</title>
<path fill="none" stroke="black" d="M1112,-122.13C1112,-142.57 1112,-173 1112,-173 1112,-173 748.69,-173 748.69,-173"/>
<polygon fill="black" stroke="black" points="748.69,-169.5 738.69,-173 748.69,-176.5 748.69,-169.5"/>
</g>
<!-- DtoGenModule -->
<g id="node3" class="node">
<title>DtoGenModule</title>
<polygon fill="#8dd3c7" stroke="black" points="1041.87,-122 1038.87,-126 1017.87,-126 1014.87,-122 938.13,-122 938.13,-86 1041.87,-86 1041.87,-122"/>
<text text-anchor="middle" x="990" y="-99.8" font-family="Times,serif" font-size="14.00">DtoGenModule</text>
</g>
<!-- DtoGenModule&#45;&gt;AppModule -->
<g id="edge3" class="edge">
<title>DtoGenModule&#45;&gt;AppModule</title>
<path fill="none" stroke="black" d="M990,-122.27C990,-140.56 990,-166 990,-166 990,-166 748.67,-166 748.67,-166"/>
<polygon fill="black" stroke="black" points="748.67,-162.5 738.67,-166 748.67,-169.5 748.67,-162.5"/>
</g>
<!-- PrismaModule -->
<g id="node4" class="node">
<title>PrismaModule</title>
<polygon fill="#8dd3c7" stroke="black" points="920.43,-122 917.43,-126 896.43,-126 893.43,-122 821.57,-122 821.57,-86 920.43,-86 920.43,-122"/>
<text text-anchor="middle" x="871" y="-99.8" font-family="Times,serif" font-size="14.00">PrismaModule</text>
</g>
<!-- PrismaModule&#45;&gt;AppModule -->
<g id="edge4" class="edge">
<title>PrismaModule&#45;&gt;AppModule</title>
<path fill="none" stroke="black" d="M871,-122.01C871,-138.05 871,-159 871,-159 871,-159 748.68,-159 748.68,-159"/>
<polygon fill="black" stroke="black" points="748.68,-155.5 738.68,-159 748.68,-162.5 748.68,-155.5"/>
</g>
<!-- ProfileModule -->
<g id="node5" class="node">
<title>ProfileModule</title>
<polygon fill="#8dd3c7" stroke="black" points="803.65,-122 800.65,-126 779.65,-126 776.65,-122 706.35,-122 706.35,-86 803.65,-86 803.65,-122"/>
<text text-anchor="middle" x="755" y="-99.8" font-family="Times,serif" font-size="14.00">ProfileModule</text>
</g>
<!-- ProfileModule&#45;&gt;AppModule -->
<g id="edge5" class="edge">
<title>ProfileModule&#45;&gt;AppModule</title>
<path fill="none" stroke="black" d="M722.5,-122.11C722.5,-122.11 722.5,-140.99 722.5,-140.99"/>
<polygon fill="black" stroke="black" points="719,-140.99 722.5,-150.99 726,-140.99 719,-140.99"/>
</g>
<!-- RoomsModule -->
<g id="node6" class="node">
<title>RoomsModule</title>
<polygon fill="#8dd3c7" stroke="black" points="688.72,-122 685.72,-126 664.72,-126 661.72,-122 589.28,-122 589.28,-86 688.72,-86 688.72,-122"/>
<text text-anchor="middle" x="639" y="-99.8" font-family="Times,serif" font-size="14.00">RoomsModule</text>
</g>
<!-- RoomsModule&#45;&gt;AppModule -->
<g id="edge6" class="edge">
<title>RoomsModule&#45;&gt;AppModule</title>
<path fill="none" stroke="black" d="M671.89,-122.11C671.89,-122.11 671.89,-140.99 671.89,-140.99"/>
<polygon fill="black" stroke="black" points="668.39,-140.99 671.89,-150.99 675.39,-140.99 668.39,-140.99"/>
</g>
<!-- UsersModule -->
<g id="node7" class="node">
<title>UsersModule</title>
<polygon fill="#8dd3c7" stroke="black" points="571.92,-122 568.92,-126 547.92,-126 544.92,-122 480.08,-122 480.08,-86 571.92,-86 571.92,-122"/>
<text text-anchor="middle" x="526" y="-99.8" font-family="Times,serif" font-size="14.00">UsersModule</text>
</g>
<!-- UsersModule&#45;&gt;AppModule -->
<g id="edge7" class="edge">
<title>UsersModule&#45;&gt;AppModule</title>
<path fill="none" stroke="black" d="M526,-122.01C526,-138.05 526,-159 526,-159 526,-159 645.17,-159 645.17,-159"/>
<polygon fill="black" stroke="black" points="645.17,-162.5 655.17,-159 645.17,-155.5 645.17,-162.5"/>
</g>
<!-- AppService -->
<g id="node9" class="node">
<title>AppService</title>
<ellipse fill="#fdb462" stroke="black" cx="399" cy="-104" rx="56.74" ry="18"/>
<text text-anchor="middle" x="399" y="-99.8" font-family="Times,serif" font-size="14.00">AppService</text>
</g>
<!-- AppService&#45;&gt;AppModule -->
<g id="edge8" class="edge">
<title>AppService&#45;&gt;AppModule</title>
<path fill="none" stroke="black" d="M399,-122.27C399,-140.56 399,-166 399,-166 399,-166 645.25,-166 645.25,-166"/>
<polygon fill="black" stroke="black" points="645.25,-169.5 655.25,-166 645.25,-162.5 645.25,-169.5"/>
</g>
<!-- DbUtilsService -->
<g id="node10" class="node">
<title>DbUtilsService</title>
<ellipse fill="#fdb462" stroke="black" cx="254" cy="-104" rx="70.64" ry="18"/>
<text text-anchor="middle" x="254" y="-99.8" font-family="Times,serif" font-size="14.00">DbUtilsService</text>
</g>
<!-- DbUtilsService&#45;&gt;AppModule -->
<g id="edge9" class="edge">
<title>DbUtilsService&#45;&gt;AppModule</title>
<path fill="none" stroke="black" d="M254,-122.13C254,-142.57 254,-173 254,-173 254,-173 645.32,-173 645.32,-173"/>
<polygon fill="black" stroke="black" points="645.32,-176.5 655.32,-173 645.32,-169.5 645.32,-176.5"/>
</g>
<!-- DtoGenService -->
<g id="node11" class="node">
<title>DtoGenService</title>
<ellipse fill="#fdb462" stroke="black" cx="95" cy="-104" rx="70.62" ry="18"/>
<text text-anchor="middle" x="95" y="-99.8" font-family="Times,serif" font-size="14.00">DtoGenService</text>
</g>
<!-- DtoGenService&#45;&gt;AppModule -->
<g id="edge10" class="edge">
<title>DtoGenService&#45;&gt;AppModule</title>
<path fill="none" stroke="black" d="M95,-122.01C95,-144.49 95,-180 95,-180 95,-180 645.15,-180 645.15,-180"/>
<polygon fill="black" stroke="black" points="645.15,-183.5 655.15,-180 645.15,-176.5 645.15,-183.5"/>
</g>
</g>
</svg>
