<?xml version="1.0" encoding="UTF-8" standalone="no"?>
<!DOCTYPE svg PUBLIC "-//W3C//DTD SVG 1.1//EN"
 "http://www.w3.org/Graphics/SVG/1.1/DTD/svg11.dtd">
<!-- Generated by graphviz version 2.47.0 (20210316.0004)
 -->
<!-- Title: dependencies Pages: 1 -->
<svg width="2440pt" height="211pt"
 viewBox="0.00 0.00 2440.00 211.00" xmlns="http://www.w3.org/2000/svg" xmlns:xlink="http://www.w3.org/1999/xlink">
<g id="graph0" class="graph" transform="scale(1 1) rotate(0) translate(4 207)">
<title>dependencies</title>
<polygon fill="white" stroke="transparent" points="-4,4 -4,-207 2436,-207 2436,4 -4,4"/>
<text text-anchor="start" x="1195.01" y="-42.4" font-family="Times-12" font-weight="bold" font-size="14.00">Legend</text>
<polygon fill="#ffffb3" stroke="transparent" points="982,-10 982,-30 1002,-30 1002,-10 982,-10"/>
<text text-anchor="start" x="1005.63" y="-15.4" font-family="Times-12" font-size="14.00"> &#160;Declarations</text>
<polygon fill="#8dd3c7" stroke="transparent" points="1095,-10 1095,-30 1115,-30 1115,-10 1095,-10"/>
<text text-anchor="start" x="1118.73" y="-15.4" font-family="Times-12" font-size="14.00"> &#160;Module</text>
<polygon fill="#80b1d3" stroke="transparent" points="1181,-10 1181,-30 1201,-30 1201,-10 1181,-10"/>
<text text-anchor="start" x="1204.78" y="-15.4" font-family="Times-12" font-size="14.00"> &#160;Bootstrap</text>
<polygon fill="#fdb462" stroke="transparent" points="1278,-10 1278,-30 1298,-30 1298,-10 1278,-10"/>
<text text-anchor="start" x="1301.67" y="-15.4" font-family="Times-12" font-size="14.00"> &#160;Providers</text>
<polygon fill="#fb8072" stroke="transparent" points="1374,-10 1374,-30 1394,-30 1394,-10 1374,-10"/>
<text text-anchor="start" x="1397.73" y="-15.4" font-family="Times-12" font-size="14.00"> &#160;Exports</text>
<g id="clust1" class="cluster">
<title>cluster_AppModule</title>
<polygon fill="none" stroke="black" stroke-dasharray="1,5" points="8,-70 8,-195 2424,-195 2424,-70 8,-70"/>
</g>
<g id="clust3" class="cluster">
<title>cluster_AppModule_imports</title>
<polygon fill="none" stroke="black" points="276,-78 276,-130 2416,-130 2416,-78 276,-78"/>
</g>
<g id="clust6" class="cluster">
<title>cluster_AppModule_providers</title>
<polygon fill="none" stroke="black" points="16,-78 16,-130 268,-130 268,-78 16,-78"/>
</g>
<!-- AuthModule -->
<g id="node1" class="node">
<title>AuthModule</title>
<polygon fill="#8dd3c7" stroke="black" points="2407.55,-122 2404.55,-126 2383.55,-126 2380.55,-122 2320.45,-122 2320.45,-86 2407.55,-86 2407.55,-122"/>
<text text-anchor="middle" x="2364" y="-99.8" font-family="Times,serif" font-size="14.00">AuthModule</text>
</g>
<!-- AppModule -->
<g id="node19" class="node">
<title>AppModule</title>
<polygon fill="#8dd3c7" stroke="black" points="1218.66,-187 1215.66,-191 1194.66,-191 1191.66,-187 1135.34,-187 1135.34,-151 1218.66,-151 1218.66,-187"/>
<text text-anchor="middle" x="1177" y="-164.8" font-family="Times,serif" font-size="14.00">AppModule</text>
</g>
<!-- AuthModule&#45;&gt;AppModule -->
<g id="edge1" class="edge">
<title>AuthModule&#45;&gt;AppModule</title>
<path fill="none" stroke="black" d="M2364,-122.15C2364,-145.76 2364,-184 2364,-184 2364,-184 1228.9,-184 1228.9,-184"/>
<polygon fill="black" stroke="black" points="1228.9,-180.5 1218.9,-184 1228.9,-187.5 1228.9,-180.5"/>
</g>
<!-- BullBoardModule -->
<g id="node2" class="node">
<title>BullBoardModule</title>
<polygon fill="#8dd3c7" stroke="black" points="2301.88,-122 2298.88,-126 2277.88,-126 2274.88,-122 2184.12,-122 2184.12,-86 2301.88,-86 2301.88,-122"/>
<text text-anchor="middle" x="2243" y="-99.8" font-family="Times,serif" font-size="14.00">BullBoardModule</text>
</g>
<!-- BullBoardModule&#45;&gt;AppModule -->
<g id="edge2" class="edge">
<title>BullBoardModule&#45;&gt;AppModule</title>
<path fill="none" stroke="black" d="M2243,-122.01C2243,-144.49 2243,-180 2243,-180 2243,-180 1228.79,-180 1228.79,-180"/>
<polygon fill="black" stroke="black" points="1228.79,-176.5 1218.79,-180 1228.79,-183.5 1228.79,-176.5"/>
</g>
<!-- BullConfigModule -->
<g id="node3" class="node">
<title>BullConfigModule</title>
<polygon fill="#8dd3c7" stroke="black" points="2166.06,-122 2163.06,-126 2142.06,-126 2139.06,-122 2043.94,-122 2043.94,-86 2166.06,-86 2166.06,-122"/>
<text text-anchor="middle" x="2105" y="-99.8" font-family="Times,serif" font-size="14.00">BullConfigModule</text>
</g>
<!-- BullConfigModule&#45;&gt;AppModule -->
<g id="edge3" class="edge">
<title>BullConfigModule&#45;&gt;AppModule</title>
<path fill="none" stroke="black" d="M2105,-122.04C2105,-143.66 2105,-177 2105,-177 2105,-177 1228.68,-177 1228.68,-177"/>
<polygon fill="black" stroke="black" points="1228.68,-173.5 1218.68,-177 1228.68,-180.5 1228.68,-173.5"/>
</g>
<!-- DbUtilsModule -->
<g id="node4" class="node">
<title>DbUtilsModule</title>
<polygon fill="#8dd3c7" stroke="black" points="2025.88,-122 2022.88,-126 2001.88,-126 1998.88,-122 1922.12,-122 1922.12,-86 2025.88,-86 2025.88,-122"/>
<text text-anchor="middle" x="1974" y="-99.8" font-family="Times,serif" font-size="14.00">DbUtilsModule</text>
</g>
<!-- DbUtilsModule&#45;&gt;AppModule -->
<g id="edge4" class="edge">
<title>DbUtilsModule&#45;&gt;AppModule</title>
<path fill="none" stroke="black" d="M1974,-122.13C1974,-142.57 1974,-173 1974,-173 1974,-173 1228.73,-173 1228.73,-173"/>
<polygon fill="black" stroke="black" points="1228.73,-169.5 1218.73,-173 1228.73,-176.5 1228.73,-169.5"/>
</g>
<!-- DtoGenModule -->
<g id="node5" class="node">
<title>DtoGenModule</title>
<polygon fill="#8dd3c7" stroke="black" points="1903.87,-122 1900.87,-126 1879.87,-126 1876.87,-122 1800.13,-122 1800.13,-86 1903.87,-86 1903.87,-122"/>
<text text-anchor="middle" x="1852" y="-99.8" font-family="Times,serif" font-size="14.00">DtoGenModule</text>
</g>
<!-- DtoGenModule&#45;&gt;AppModule -->
<g id="edge5" class="edge">
<title>DtoGenModule&#45;&gt;AppModule</title>
<path fill="none" stroke="black" d="M1852,-122.11C1852,-141.34 1852,-169 1852,-169 1852,-169 1228.71,-169 1228.71,-169"/>
<polygon fill="black" stroke="black" points="1228.71,-165.5 1218.71,-169 1228.71,-172.5 1228.71,-165.5"/>
</g>
<!-- GenresModule -->
<g id="node6" class="node">
<title>GenresModule</title>
<polygon fill="#8dd3c7" stroke="black" points="1781.69,-122 1778.69,-126 1757.69,-126 1754.69,-122 1682.31,-122 1682.31,-86 1781.69,-86 1781.69,-122"/>
<text text-anchor="middle" x="1732" y="-99.8" font-family="Times,serif" font-size="14.00">GenresModule</text>
</g>
<!-- GenresModule&#45;&gt;AppModule -->
<g id="edge6" class="edge">
<title>GenresModule&#45;&gt;AppModule</title>
<path fill="none" stroke="black" d="M1732,-122.27C1732,-140.56 1732,-166 1732,-166 1732,-166 1228.72,-166 1228.72,-166"/>
<polygon fill="black" stroke="black" points="1228.72,-162.5 1218.72,-166 1228.72,-169.5 1228.72,-162.5"/>
</g>
<!-- ImageModule -->
<g id="node7" class="node">
<title>ImageModule</title>
<polygon fill="#8dd3c7" stroke="black" points="1664.03,-122 1661.03,-126 1640.03,-126 1637.03,-122 1569.97,-122 1569.97,-86 1664.03,-86 1664.03,-122"/>
<text text-anchor="middle" x="1617" y="-99.8" font-family="Times,serif" font-size="14.00">ImageModule</text>
</g>
<!-- ImageModule&#45;&gt;AppModule -->
<g id="edge7" class="edge">
<title>ImageModule&#45;&gt;AppModule</title>
<path fill="none" stroke="black" d="M1617,-122.03C1617,-139.06 1617,-162 1617,-162 1617,-162 1228.79,-162 1228.79,-162"/>
<polygon fill="black" stroke="black" points="1228.79,-158.5 1218.79,-162 1228.79,-165.5 1228.79,-158.5"/>
</g>
<!-- LiveModule -->
<g id="node8" class="node">
<title>LiveModule</title>
<polygon fill="#8dd3c7" stroke="black" points="1551.71,-122 1548.71,-126 1527.71,-126 1524.71,-122 1466.29,-122 1466.29,-86 1551.71,-86 1551.71,-122"/>
<text text-anchor="middle" x="1509" y="-99.8" font-family="Times,serif" font-size="14.00">LiveModule</text>
</g>
<!-- LiveModule&#45;&gt;AppModule -->
<g id="edge8" class="edge">
<title>LiveModule&#45;&gt;AppModule</title>
<path fill="none" stroke="black" d="M1509,-122.01C1509,-138.05 1509,-159 1509,-159 1509,-159 1228.71,-159 1228.71,-159"/>
<polygon fill="black" stroke="black" points="1228.71,-155.5 1218.71,-159 1228.71,-162.5 1228.71,-155.5"/>
</g>
<!-- PrismaModule -->
<g id="node9" class="node">
<title>PrismaModule</title>
<polygon fill="#8dd3c7" stroke="black" points="1448.43,-122 1445.43,-126 1424.43,-126 1421.43,-122 1349.57,-122 1349.57,-86 1448.43,-86 1448.43,-122"/>
<text text-anchor="middle" x="1399" y="-99.8" font-family="Times,serif" font-size="14.00">PrismaModule</text>
</g>
<!-- PrismaModule&#45;&gt;AppModule -->
<g id="edge9" class="edge">
<title>PrismaModule&#45;&gt;AppModule</title>
<path fill="none" stroke="black" d="M1399,-122.12C1399,-136.78 1399,-155 1399,-155 1399,-155 1228.76,-155 1228.76,-155"/>
<polygon fill="black" stroke="black" points="1228.76,-151.5 1218.76,-155 1228.76,-158.5 1228.76,-151.5"/>
</g>
<!-- RecommendationsModule -->
<g id="node10" class="node">
<title>RecommendationsModule</title>
<polygon fill="#8dd3c7" stroke="black" points="1331.75,-122 1328.75,-126 1307.75,-126 1304.75,-122 1168.25,-122 1168.25,-86 1331.75,-86 1331.75,-122"/>
<text text-anchor="middle" x="1250" y="-99.8" font-family="Times,serif" font-size="14.00">RecommendationsModule</text>
</g>
<!-- RecommendationsModule&#45;&gt;AppModule -->
<g id="edge10" class="edge">
<title>RecommendationsModule&#45;&gt;AppModule</title>
<path fill="none" stroke="black" d="M1193.48,-122.11C1193.48,-122.11 1193.48,-140.99 1193.48,-140.99"/>
<polygon fill="black" stroke="black" points="1189.98,-140.99 1193.48,-150.99 1196.98,-140.99 1189.98,-140.99"/>
</g>
<!-- RetryModule -->
<g id="node11" class="node">
<title>RetryModule</title>
<polygon fill="#8dd3c7" stroke="black" points="1150.15,-122 1147.15,-126 1126.15,-126 1123.15,-122 1059.85,-122 1059.85,-86 1150.15,-86 1150.15,-122"/>
<text text-anchor="middle" x="1105" y="-99.8" font-family="Times,serif" font-size="14.00">RetryModule</text>
</g>
<!-- RetryModule&#45;&gt;AppModule -->
<g id="edge11" class="edge">
<title>RetryModule&#45;&gt;AppModule</title>
<path fill="none" stroke="black" d="M1142.75,-122.11C1142.75,-122.11 1142.75,-140.99 1142.75,-140.99"/>
<polygon fill="black" stroke="black" points="1139.25,-140.99 1142.75,-150.99 1146.25,-140.99 1139.25,-140.99"/>
</g>
<!-- RoomsModule -->
<g id="node12" class="node">
<title>RoomsModule</title>
<polygon fill="#8dd3c7" stroke="black" points="1041.72,-122 1038.72,-126 1017.72,-126 1014.72,-122 942.28,-122 942.28,-86 1041.72,-86 1041.72,-122"/>
<text text-anchor="middle" x="992" y="-99.8" font-family="Times,serif" font-size="14.00">RoomsModule</text>
</g>
<!-- RoomsModule&#45;&gt;AppModule -->
<g id="edge12" class="edge">
<title>RoomsModule&#45;&gt;AppModule</title>
<path fill="none" stroke="black" d="M992,-122.12C992,-136.78 992,-155 992,-155 992,-155 1125.02,-155 1125.02,-155"/>
<polygon fill="black" stroke="black" points="1125.02,-158.5 1135.02,-155 1125.02,-151.5 1125.02,-158.5"/>
</g>
<!-- S3Module -->
<g id="node13" class="node">
<title>S3Module</title>
<polygon fill="#8dd3c7" stroke="black" points="924.33,-122 921.33,-126 900.33,-126 897.33,-122 849.67,-122 849.67,-86 924.33,-86 924.33,-122"/>
<text text-anchor="middle" x="887" y="-99.8" font-family="Times,serif" font-size="14.00">S3Module</text>
</g>
<!-- S3Module&#45;&gt;AppModule -->
<g id="edge13" class="edge">
<title>S3Module&#45;&gt;AppModule</title>
<path fill="none" stroke="black" d="M887,-122.01C887,-138.05 887,-159 887,-159 887,-159 1125.14,-159 1125.14,-159"/>
<polygon fill="black" stroke="black" points="1125.14,-162.5 1135.14,-159 1125.14,-155.5 1125.14,-162.5"/>
</g>
<!-- SearchModule -->
<g id="node14" class="node">
<title>SearchModule</title>
<polygon fill="#8dd3c7" stroke="black" points="831.64,-122 828.64,-126 807.64,-126 804.64,-122 734.36,-122 734.36,-86 831.64,-86 831.64,-122"/>
<text text-anchor="middle" x="783" y="-99.8" font-family="Times,serif" font-size="14.00">SearchModule</text>
</g>
<!-- SearchModule&#45;&gt;AppModule -->
<g id="edge14" class="edge">
<title>SearchModule&#45;&gt;AppModule</title>
<path fill="none" stroke="black" d="M783,-122.03C783,-139.06 783,-162 783,-162 783,-162 1125.21,-162 1125.21,-162"/>
<polygon fill="black" stroke="black" points="1125.21,-165.5 1135.21,-162 1125.21,-158.5 1125.21,-165.5"/>
</g>
<!-- SongsModule -->
<g id="node15" class="node">
<title>SongsModule</title>
<polygon fill="#8dd3c7" stroke="black" points="715.78,-122 712.78,-126 691.78,-126 688.78,-122 622.22,-122 622.22,-86 715.78,-86 715.78,-122"/>
<text text-anchor="middle" x="669" y="-99.8" font-family="Times,serif" font-size="14.00">SongsModule</text>
</g>
<!-- SongsModule&#45;&gt;AppModule -->
<g id="edge15" class="edge">
<title>SongsModule&#45;&gt;AppModule</title>
<path fill="none" stroke="black" d="M669,-122.27C669,-140.56 669,-166 669,-166 669,-166 1125,-166 1125,-166"/>
<polygon fill="black" stroke="black" points="1125,-169.5 1135,-166 1125,-162.5 1125,-169.5"/>
</g>
<!-- SpotifyModule -->
<g id="node16" class="node">
<title>SpotifyModule</title>
<polygon fill="#8dd3c7" stroke="black" points="604.27,-122 601.27,-126 580.27,-126 577.27,-122 503.73,-122 503.73,-86 604.27,-86 604.27,-122"/>
<text text-anchor="middle" x="554" y="-99.8" font-family="Times,serif" font-size="14.00">SpotifyModule</text>
</g>
<!-- SpotifyModule&#45;&gt;AppModule -->
<g id="edge16" class="edge">
<title>SpotifyModule&#45;&gt;AppModule</title>
<path fill="none" stroke="black" d="M554,-122.11C554,-141.34 554,-169 554,-169 554,-169 1125.16,-169 1125.16,-169"/>
<polygon fill="black" stroke="black" points="1125.16,-172.5 1135.16,-169 1125.16,-165.5 1125.16,-172.5"/>
</g>
<!-- TasksModule -->
<g id="node17" class="node">
<title>TasksModule</title>
<polygon fill="#8dd3c7" stroke="black" points="486.21,-122 483.21,-126 462.21,-126 459.21,-122 393.79,-122 393.79,-86 486.21,-86 486.21,-122"/>
<text text-anchor="middle" x="440" y="-99.8" font-family="Times,serif" font-size="14.00">TasksModule</text>
</g>
<!-- TasksModule&#45;&gt;AppModule -->
<g id="edge17" class="edge">
<title>TasksModule&#45;&gt;AppModule</title>
<path fill="none" stroke="black" d="M440,-122.13C440,-142.57 440,-173 440,-173 440,-173 1125.26,-173 1125.26,-173"/>
<polygon fill="black" stroke="black" points="1125.26,-176.5 1135.26,-173 1125.26,-169.5 1125.26,-176.5"/>
</g>
<!-- UsersModule -->
<g id="node18" class="node">
<title>UsersModule</title>
<polygon fill="#8dd3c7" stroke="black" points="375.92,-122 372.92,-126 351.92,-126 348.92,-122 284.08,-122 284.08,-86 375.92,-86 375.92,-122"/>
<text text-anchor="middle" x="330" y="-99.8" font-family="Times,serif" font-size="14.00">UsersModule</text>
</g>
<!-- UsersModule&#45;&gt;AppModule -->
<g id="edge18" class="edge">
<title>UsersModule&#45;&gt;AppModule</title>
<path fill="none" stroke="black" d="M330,-122.04C330,-143.66 330,-177 330,-177 330,-177 1125.29,-177 1125.29,-177"/>
<polygon fill="black" stroke="black" points="1125.29,-180.5 1135.29,-177 1125.29,-173.5 1125.29,-180.5"/>
</g>
<!-- AppService -->
<g id="node20" class="node">
<title>AppService</title>
<ellipse fill="#fdb462" stroke="black" cx="203" cy="-104" rx="56.74" ry="18"/>
<text text-anchor="middle" x="203" y="-99.8" font-family="Times,serif" font-size="14.00">AppService</text>
</g>
<!-- AppService&#45;&gt;AppModule -->
<g id="edge19" class="edge">
<title>AppService&#45;&gt;AppModule</title>
<path fill="none" stroke="black" d="M203,-122.01C203,-144.49 203,-180 203,-180 203,-180 1125.15,-180 1125.15,-180"/>
<polygon fill="black" stroke="black" points="1125.15,-183.5 1135.15,-180 1125.15,-176.5 1125.15,-183.5"/>
</g>
<!-- MyLogger -->
<g id="node21" class="node">
<title>MyLogger</title>
<ellipse fill="#fdb462" stroke="black" cx="76" cy="-104" rx="52.17" ry="18"/>
<text text-anchor="middle" x="76" y="-99.8" font-family="Times,serif" font-size="14.00">MyLogger</text>
</g>
<!-- MyLogger&#45;&gt;AppModule -->
<g id="edge20" class="edge">
<title>MyLogger&#45;&gt;AppModule</title>
<path fill="none" stroke="black" d="M76,-122.15C76,-145.76 76,-184 76,-184 76,-184 1125.18,-184 1125.18,-184"/>
<polygon fill="black" stroke="black" points="1125.18,-187.5 1135.18,-184 1125.18,-180.5 1125.18,-187.5"/>
</g>
</g>
</svg>
