<?xml version="1.0" encoding="UTF-8" standalone="no"?>
<!DOCTYPE svg PUBLIC "-//W3C//DTD SVG 1.1//EN"
 "http://www.w3.org/Graphics/SVG/1.1/DTD/svg11.dtd">
<!-- Generated by graphviz version 2.47.0 (20210316.0004)
 -->
<!-- Title: dependencies Pages: 1 -->
<svg width="504pt" height="284pt"
 viewBox="0.00 0.00 504.00 284.00" xmlns="http://www.w3.org/2000/svg" xmlns:xlink="http://www.w3.org/1999/xlink">
<g id="graph0" class="graph" transform="scale(1 1) rotate(0) translate(4 280)">
<title>dependencies</title>
<polygon fill="white" stroke="transparent" points="-4,4 -4,-280 500,-280 500,4 -4,4"/>
<text text-anchor="start" x="227.01" y="-42.4" font-family="Times-12" font-weight="bold" font-size="14.00">Legend</text>
<polygon fill="#ffffb3" stroke="transparent" points="14,-10 14,-30 34,-30 34,-10 14,-10"/>
<text text-anchor="start" x="37.63" y="-15.4" font-family="Times-12" font-size="14.00"> &#160;Declarations</text>
<polygon fill="#8dd3c7" stroke="transparent" points="127,-10 127,-30 147,-30 147,-10 127,-10"/>
<text text-anchor="start" x="150.73" y="-15.4" font-family="Times-12" font-size="14.00"> &#160;Module</text>
<polygon fill="#80b1d3" stroke="transparent" points="213,-10 213,-30 233,-30 233,-10 213,-10"/>
<text text-anchor="start" x="236.78" y="-15.4" font-family="Times-12" font-size="14.00"> &#160;Bootstrap</text>
<polygon fill="#fdb462" stroke="transparent" points="310,-10 310,-30 330,-30 330,-10 310,-10"/>
<text text-anchor="start" x="333.67" y="-15.4" font-family="Times-12" font-size="14.00"> &#160;Providers</text>
<polygon fill="#fb8072" stroke="transparent" points="406,-10 406,-30 426,-30 426,-10 406,-10"/>
<text text-anchor="start" x="429.73" y="-15.4" font-family="Times-12" font-size="14.00"> &#160;Exports</text>
<g id="clust1" class="cluster">
<title>cluster_DbUtilsModule</title>
<polygon fill="none" stroke="black" stroke-dasharray="1,5" points="100,-70 100,-268 396,-268 396,-70 100,-70"/>
</g>
<g id="clust3" class="cluster">
<title>cluster_DbUtilsModule_imports</title>
<polygon fill="none" stroke="black" points="274,-78 274,-130 388,-130 388,-78 274,-78"/>
</g>
<g id="clust6" class="cluster">
<title>cluster_DbUtilsModule_providers</title>
<polygon fill="none" stroke="black" points="108,-78 108,-130 266,-130 266,-78 108,-78"/>
</g>
<g id="clust4" class="cluster">
<title>cluster_DbUtilsModule_exports</title>
<polygon fill="none" stroke="black" points="196,-208 196,-260 318,-260 318,-208 196,-208"/>
</g>
<!-- PrismaModule -->
<g id="node1" class="node">
<title>PrismaModule</title>
<polygon fill="#8dd3c7" stroke="black" points="380.43,-122 377.43,-126 356.43,-126 353.43,-122 281.57,-122 281.57,-86 380.43,-86 380.43,-122"/>
<text text-anchor="middle" x="331" y="-99.8" font-family="Times,serif" font-size="14.00">PrismaModule</text>
</g>
<!-- DbUtilsModule -->
<g id="node2" class="node">
<title>DbUtilsModule</title>
<polygon fill="#8dd3c7" stroke="black" points="308.88,-187 305.88,-191 284.88,-191 281.88,-187 205.12,-187 205.12,-151 308.88,-151 308.88,-187"/>
<text text-anchor="middle" x="257" y="-164.8" font-family="Times,serif" font-size="14.00">DbUtilsModule</text>
</g>
<!-- PrismaModule&#45;&gt;DbUtilsModule -->
<g id="edge1" class="edge">
<title>PrismaModule&#45;&gt;DbUtilsModule</title>
<path fill="none" stroke="black" d="M295.36,-122.11C295.36,-122.11 295.36,-140.99 295.36,-140.99"/>
<polygon fill="black" stroke="black" points="291.86,-140.99 295.36,-150.99 298.86,-140.99 291.86,-140.99"/>
</g>
<!-- DbUtilsService  -->
<g id="node3" class="node">
<title>DbUtilsService </title>
<polygon fill="#fb8072" stroke="black" points="309.81,-252 204.19,-252 204.19,-216 309.81,-216 309.81,-252"/>
<text text-anchor="middle" x="257" y="-229.8" font-family="Times,serif" font-size="14.00">DbUtilsService </text>
</g>
<!-- DbUtilsModule&#45;&gt;DbUtilsService  -->
<g id="edge2" class="edge">
<title>DbUtilsModule&#45;&gt;DbUtilsService </title>
<path fill="none" stroke="black" stroke-dasharray="5,2" d="M257,-187.11C257,-187.11 257,-205.99 257,-205.99"/>
<polygon fill="black" stroke="black" points="253.5,-205.99 257,-215.99 260.5,-205.99 253.5,-205.99"/>
</g>
<!-- DbUtilsService -->
<g id="node4" class="node">
<title>DbUtilsService</title>
<ellipse fill="#fdb462" stroke="black" cx="187" cy="-104" rx="70.64" ry="18"/>
<text text-anchor="middle" x="187" y="-99.8" font-family="Times,serif" font-size="14.00">DbUtilsService</text>
</g>
<!-- DbUtilsService&#45;&gt;DbUtilsModule -->
<g id="edge3" class="edge">
<title>DbUtilsService&#45;&gt;DbUtilsModule</title>
<path fill="none" stroke="black" d="M231.31,-118.1C231.31,-118.1 231.31,-140.72 231.31,-140.72"/>
<polygon fill="black" stroke="black" points="227.82,-140.72 231.31,-150.72 234.82,-140.72 227.82,-140.72"/>
</g>
</g>
</svg>
