<?xml version="1.0" encoding="UTF-8" standalone="no"?>
<!DOCTYPE svg PUBLIC "-//W3C//DTD SVG 1.1//EN"
 "http://www.w3.org/Graphics/SVG/1.1/DTD/svg11.dtd">
<!-- Generated by graphviz version 2.47.0 (20210316.0004)
 -->
<!-- Title: dependencies Pages: 1 -->
<svg width="504pt" height="284pt"
 viewBox="0.00 0.00 504.00 284.00" xmlns="http://www.w3.org/2000/svg" xmlns:xlink="http://www.w3.org/1999/xlink">
<g id="graph0" class="graph" transform="scale(1 1) rotate(0) translate(4 280)">
<title>dependencies</title>
<polygon fill="white" stroke="transparent" points="-4,4 -4,-280 500,-280 500,4 -4,4"/>
<text text-anchor="start" x="227.01" y="-42.4" font-family="Times-12" font-weight="bold" font-size="14.00">Legend</text>
<polygon fill="#ffffb3" stroke="transparent" points="14,-10 14,-30 34,-30 34,-10 14,-10"/>
<text text-anchor="start" x="37.63" y="-15.4" font-family="Times-12" font-size="14.00"> &#160;Declarations</text>
<polygon fill="#8dd3c7" stroke="transparent" points="127,-10 127,-30 147,-30 147,-10 127,-10"/>
<text text-anchor="start" x="150.73" y="-15.4" font-family="Times-12" font-size="14.00"> &#160;Module</text>
<polygon fill="#80b1d3" stroke="transparent" points="213,-10 213,-30 233,-30 233,-10 213,-10"/>
<text text-anchor="start" x="236.78" y="-15.4" font-family="Times-12" font-size="14.00"> &#160;Bootstrap</text>
<polygon fill="#fdb462" stroke="transparent" points="310,-10 310,-30 330,-30 330,-10 310,-10"/>
<text text-anchor="start" x="333.67" y="-15.4" font-family="Times-12" font-size="14.00"> &#160;Providers</text>
<polygon fill="#fb8072" stroke="transparent" points="406,-10 406,-30 426,-30 426,-10 406,-10"/>
<text text-anchor="start" x="429.73" y="-15.4" font-family="Times-12" font-size="14.00"> &#160;Exports</text>
<g id="clust1" class="cluster">
<title>cluster_DbUtilsModule</title>
<polygon fill="none" stroke="black" stroke-dasharray="1,5" points="24.5,-70 24.5,-268 471.5,-268 471.5,-70 24.5,-70"/>
</g>
<g id="clust3" class="cluster">
<title>cluster_DbUtilsModule_imports</title>
<polygon fill="none" stroke="black" points="349.5,-78 349.5,-130 463.5,-130 463.5,-78 349.5,-78"/>
</g>
<g id="clust4" class="cluster">
<title>cluster_DbUtilsModule_exports</title>
<polygon fill="none" stroke="black" points="201.5,-208 201.5,-260 323.5,-260 323.5,-208 201.5,-208"/>
</g>
<g id="clust6" class="cluster">
<title>cluster_DbUtilsModule_providers</title>
<polygon fill="none" stroke="black" points="32.5,-78 32.5,-130 341.5,-130 341.5,-78 32.5,-78"/>
</g>
<!-- PrismaModule -->
<g id="node1" class="node">
<title>PrismaModule</title>
<polygon fill="#8dd3c7" stroke="black" points="455.93,-122 452.93,-126 431.93,-126 428.93,-122 357.07,-122 357.07,-86 455.93,-86 455.93,-122"/>
<text text-anchor="middle" x="406.5" y="-99.8" font-family="Times,serif" font-size="14.00">PrismaModule</text>
</g>
<!-- DbUtilsModule -->
<g id="node2" class="node">
<title>DbUtilsModule</title>
<polygon fill="#8dd3c7" stroke="black" points="314.38,-187 311.38,-191 290.38,-191 287.38,-187 210.62,-187 210.62,-151 314.38,-151 314.38,-187"/>
<text text-anchor="middle" x="262.5" y="-164.8" font-family="Times,serif" font-size="14.00">DbUtilsModule</text>
</g>
<!-- PrismaModule&#45;&gt;DbUtilsModule -->
<g id="edge1" class="edge">
<title>PrismaModule&#45;&gt;DbUtilsModule</title>
<path fill="none" stroke="black" d="M406.5,-122.11C406.5,-141.34 406.5,-169 406.5,-169 406.5,-169 324.49,-169 324.49,-169"/>
<polygon fill="black" stroke="black" points="324.49,-165.5 314.49,-169 324.49,-172.5 324.49,-165.5"/>
</g>
<!-- DbUtilsService  -->
<g id="node3" class="node">
<title>DbUtilsService </title>
<polygon fill="#fb8072" stroke="black" points="315.31,-252 209.69,-252 209.69,-216 315.31,-216 315.31,-252"/>
<text text-anchor="middle" x="262.5" y="-229.8" font-family="Times,serif" font-size="14.00">DbUtilsService </text>
</g>
<!-- DbUtilsModule&#45;&gt;DbUtilsService  -->
<g id="edge2" class="edge">
<title>DbUtilsModule&#45;&gt;DbUtilsService </title>
<path fill="none" stroke="black" stroke-dasharray="5,2" d="M262.5,-187.11C262.5,-187.11 262.5,-205.99 262.5,-205.99"/>
<polygon fill="black" stroke="black" points="259,-205.99 262.5,-215.99 266,-205.99 259,-205.99"/>
</g>
<!-- DbUtilsService -->
<g id="node4" class="node">
<title>DbUtilsService</title>
<ellipse fill="#fdb462" stroke="black" cx="262.5" cy="-104" rx="70.64" ry="18"/>
<text text-anchor="middle" x="262.5" y="-99.8" font-family="Times,serif" font-size="14.00">DbUtilsService</text>
</g>
<!-- DbUtilsService&#45;&gt;DbUtilsModule -->
<g id="edge3" class="edge">
<title>DbUtilsService&#45;&gt;DbUtilsModule</title>
<path fill="none" stroke="black" d="M262.5,-122.11C262.5,-122.11 262.5,-140.99 262.5,-140.99"/>
<polygon fill="black" stroke="black" points="259,-140.99 262.5,-150.99 266,-140.99 259,-140.99"/>
</g>
<!-- PrismaService -->
<g id="node5" class="node">
<title>PrismaService</title>
<ellipse fill="#fdb462" stroke="black" cx="107.5" cy="-104" rx="66.63" ry="18"/>
<text text-anchor="middle" x="107.5" y="-99.8" font-family="Times,serif" font-size="14.00">PrismaService</text>
</g>
<!-- PrismaService&#45;&gt;DbUtilsModule -->
<g id="edge4" class="edge">
<title>PrismaService&#45;&gt;DbUtilsModule</title>
<path fill="none" stroke="black" d="M107.5,-122.11C107.5,-141.34 107.5,-169 107.5,-169 107.5,-169 200.46,-169 200.46,-169"/>
<polygon fill="black" stroke="black" points="200.46,-172.5 210.46,-169 200.46,-165.5 200.46,-172.5"/>
</g>
</g>
</svg>
