<?xml version="1.0" encoding="UTF-8" standalone="no"?>
<!DOCTYPE svg PUBLIC "-//W3C//DTD SVG 1.1//EN"
 "http://www.w3.org/Graphics/SVG/1.1/DTD/svg11.dtd">
<!-- Generated by graphviz version 2.47.0 (20210316.0004)
 -->
<!-- Title: dependencies Pages: 1 -->
<svg width="504pt" height="284pt"
 viewBox="0.00 0.00 504.00 284.00" xmlns="http://www.w3.org/2000/svg" xmlns:xlink="http://www.w3.org/1999/xlink">
<g id="graph0" class="graph" transform="scale(1 1) rotate(0) translate(4 280)">
<title>dependencies</title>
<polygon fill="white" stroke="transparent" points="-4,4 -4,-280 500,-280 500,4 -4,4"/>
<text text-anchor="start" x="227.01" y="-42.4" font-family="Times-12" font-weight="bold" font-size="14.00">Legend</text>
<polygon fill="#ffffb3" stroke="transparent" points="14,-10 14,-30 34,-30 34,-10 14,-10"/>
<text text-anchor="start" x="37.63" y="-15.4" font-family="Times-12" font-size="14.00"> &#160;Declarations</text>
<polygon fill="#8dd3c7" stroke="transparent" points="127,-10 127,-30 147,-30 147,-10 127,-10"/>
<text text-anchor="start" x="150.73" y="-15.4" font-family="Times-12" font-size="14.00"> &#160;Module</text>
<polygon fill="#80b1d3" stroke="transparent" points="213,-10 213,-30 233,-30 233,-10 213,-10"/>
<text text-anchor="start" x="236.78" y="-15.4" font-family="Times-12" font-size="14.00"> &#160;Bootstrap</text>
<polygon fill="#fdb462" stroke="transparent" points="310,-10 310,-30 330,-30 330,-10 310,-10"/>
<text text-anchor="start" x="333.67" y="-15.4" font-family="Times-12" font-size="14.00"> &#160;Providers</text>
<polygon fill="#fb8072" stroke="transparent" points="406,-10 406,-30 426,-30 426,-10 406,-10"/>
<text text-anchor="start" x="429.73" y="-15.4" font-family="Times-12" font-size="14.00"> &#160;Exports</text>
<g id="clust1" class="cluster">
<title>cluster_DbUtilsModule</title>
<polygon fill="none" stroke="black" stroke-dasharray="1,5" points="24.5,-70 24.5,-268 471.5,-268 471.5,-70 24.5,-70"/>
</g>
<g id="clust6" class="cluster">
<title>cluster_DbUtilsModule_providers</title>
<polygon fill="none" stroke="black" points="154.5,-78 154.5,-130 463.5,-130 463.5,-78 154.5,-78"/>
</g>
<g id="clust3" class="cluster">
<title>cluster_DbUtilsModule_imports</title>
<polygon fill="none" stroke="black" points="32.5,-78 32.5,-130 146.5,-130 146.5,-78 32.5,-78"/>
</g>
<g id="clust4" class="cluster">
<title>cluster_DbUtilsModule_exports</title>
<polygon fill="none" stroke="black" points="168.5,-208 168.5,-260 290.5,-260 290.5,-208 168.5,-208"/>
</g>
<!-- PrismaModule -->
<g id="node1" class="node">
<title>PrismaModule</title>
<polygon fill="#8dd3c7" stroke="black" points="138.93,-122 135.93,-126 114.93,-126 111.93,-122 40.07,-122 40.07,-86 138.93,-86 138.93,-122"/>
<text text-anchor="middle" x="89.5" y="-99.8" font-family="Times,serif" font-size="14.00">PrismaModule</text>
</g>
<!-- DbUtilsModule -->
<g id="node2" class="node">
<title>DbUtilsModule</title>
<polygon fill="#8dd3c7" stroke="black" points="281.38,-187 278.38,-191 257.38,-191 254.38,-187 177.62,-187 177.62,-151 281.38,-151 281.38,-187"/>
<text text-anchor="middle" x="229.5" y="-164.8" font-family="Times,serif" font-size="14.00">DbUtilsModule</text>
</g>
<!-- PrismaModule&#45;&gt;DbUtilsModule -->
<g id="edge1" class="edge">
<title>PrismaModule&#45;&gt;DbUtilsModule</title>
<path fill="none" stroke="black" d="M89.5,-122.11C89.5,-141.34 89.5,-169 89.5,-169 89.5,-169 167.37,-169 167.37,-169"/>
<polygon fill="black" stroke="black" points="167.37,-172.5 177.37,-169 167.37,-165.5 167.37,-172.5"/>
</g>
<!-- DbUtilsService  -->
<g id="node3" class="node">
<title>DbUtilsService </title>
<polygon fill="#fb8072" stroke="black" points="282.31,-252 176.69,-252 176.69,-216 282.31,-216 282.31,-252"/>
<text text-anchor="middle" x="229.5" y="-229.8" font-family="Times,serif" font-size="14.00">DbUtilsService </text>
</g>
<!-- DbUtilsModule&#45;&gt;DbUtilsService  -->
<g id="edge2" class="edge">
<title>DbUtilsModule&#45;&gt;DbUtilsService </title>
<path fill="none" stroke="black" stroke-dasharray="5,2" d="M229.5,-187.11C229.5,-187.11 229.5,-205.99 229.5,-205.99"/>
<polygon fill="black" stroke="black" points="226,-205.99 229.5,-215.99 233,-205.99 226,-205.99"/>
</g>
<!-- DbUtilsService -->
<g id="node4" class="node">
<title>DbUtilsService</title>
<ellipse fill="#fdb462" stroke="black" cx="384.5" cy="-104" rx="70.64" ry="18"/>
<text text-anchor="middle" x="384.5" y="-99.8" font-family="Times,serif" font-size="14.00">DbUtilsService</text>
</g>
<!-- DbUtilsService&#45;&gt;DbUtilsModule -->
<g id="edge3" class="edge">
<title>DbUtilsService&#45;&gt;DbUtilsModule</title>
<path fill="none" stroke="black" d="M384.5,-122.11C384.5,-141.34 384.5,-169 384.5,-169 384.5,-169 291.54,-169 291.54,-169"/>
<polygon fill="black" stroke="black" points="291.54,-165.5 281.54,-169 291.54,-172.5 291.54,-165.5"/>
</g>
<!-- PrismaService -->
<g id="node5" class="node">
<title>PrismaService</title>
<ellipse fill="#fdb462" stroke="black" cx="229.5" cy="-104" rx="66.63" ry="18"/>
<text text-anchor="middle" x="229.5" y="-99.8" font-family="Times,serif" font-size="14.00">PrismaService</text>
</g>
<!-- PrismaService&#45;&gt;DbUtilsModule -->
<g id="edge4" class="edge">
<title>PrismaService&#45;&gt;DbUtilsModule</title>
<path fill="none" stroke="black" d="M229.5,-122.11C229.5,-122.11 229.5,-140.99 229.5,-140.99"/>
<polygon fill="black" stroke="black" points="226,-140.99 229.5,-150.99 233,-140.99 226,-140.99"/>
</g>
</g>
</svg>
