<?xml version="1.0" encoding="UTF-8" standalone="no"?>
<!DOCTYPE svg PUBLIC "-//W3C//DTD SVG 1.1//EN"
 "http://www.w3.org/Graphics/SVG/1.1/DTD/svg11.dtd">
<!-- Generated by graphviz version 2.47.0 (20210316.0004)
 -->
<!-- Title: dependencies Pages: 1 -->
<svg width="780pt" height="211pt"
 viewBox="0.00 0.00 780.00 211.00" xmlns="http://www.w3.org/2000/svg" xmlns:xlink="http://www.w3.org/1999/xlink">
<g id="graph0" class="graph" transform="scale(1 1) rotate(0) translate(4 207)">
<title>dependencies</title>
<polygon fill="white" stroke="transparent" points="-4,4 -4,-207 776,-207 776,4 -4,4"/>
<text text-anchor="start" x="365.01" y="-42.4" font-family="Times-12" font-weight="bold" font-size="14.00">Legend</text>
<polygon fill="#ffffb3" stroke="transparent" points="152,-10 152,-30 172,-30 172,-10 152,-10"/>
<text text-anchor="start" x="175.63" y="-15.4" font-family="Times-12" font-size="14.00"> &#160;Declarations</text>
<polygon fill="#8dd3c7" stroke="transparent" points="265,-10 265,-30 285,-30 285,-10 265,-10"/>
<text text-anchor="start" x="288.73" y="-15.4" font-family="Times-12" font-size="14.00"> &#160;Module</text>
<polygon fill="#80b1d3" stroke="transparent" points="351,-10 351,-30 371,-30 371,-10 351,-10"/>
<text text-anchor="start" x="374.78" y="-15.4" font-family="Times-12" font-size="14.00"> &#160;Bootstrap</text>
<polygon fill="#fdb462" stroke="transparent" points="448,-10 448,-30 468,-30 468,-10 448,-10"/>
<text text-anchor="start" x="471.67" y="-15.4" font-family="Times-12" font-size="14.00"> &#160;Providers</text>
<polygon fill="#fb8072" stroke="transparent" points="544,-10 544,-30 564,-30 564,-10 544,-10"/>
<text text-anchor="start" x="567.73" y="-15.4" font-family="Times-12" font-size="14.00"> &#160;Exports</text>
<g id="clust1" class="cluster">
<title>cluster_ProfileModule</title>
<polygon fill="none" stroke="black" stroke-dasharray="1,5" points="8,-70 8,-195 764,-195 764,-70 8,-70"/>
</g>
<g id="clust6" class="cluster">
<title>cluster_ProfileModule_providers</title>
<polygon fill="none" stroke="black" points="138,-78 138,-130 756,-130 756,-78 138,-78"/>
</g>
<g id="clust3" class="cluster">
<title>cluster_ProfileModule_imports</title>
<polygon fill="none" stroke="black" points="16,-78 16,-130 130,-130 130,-78 16,-78"/>
</g>
<!-- PrismaModule -->
<g id="node1" class="node">
<title>PrismaModule</title>
<polygon fill="#8dd3c7" stroke="black" points="122.43,-122 119.43,-126 98.43,-126 95.43,-122 23.57,-122 23.57,-86 122.43,-86 122.43,-122"/>
<text text-anchor="middle" x="73" y="-99.8" font-family="Times,serif" font-size="14.00">PrismaModule</text>
</g>
<!-- ProfileModule -->
<g id="node2" class="node">
<title>ProfileModule</title>
<polygon fill="#8dd3c7" stroke="black" points="411.65,-187 408.65,-191 387.65,-191 384.65,-187 314.35,-187 314.35,-151 411.65,-151 411.65,-187"/>
<text text-anchor="middle" x="363" y="-164.8" font-family="Times,serif" font-size="14.00">ProfileModule</text>
</g>
<!-- PrismaModule&#45;&gt;ProfileModule -->
<g id="edge1" class="edge">
<title>PrismaModule&#45;&gt;ProfileModule</title>
<path fill="none" stroke="black" d="M73,-122.28C73,-143.32 73,-175 73,-175 73,-175 304.13,-175 304.13,-175"/>
<polygon fill="black" stroke="black" points="304.13,-178.5 314.13,-175 304.13,-171.5 304.13,-178.5"/>
</g>
<!-- DbUtilsService -->
<g id="node3" class="node">
<title>DbUtilsService</title>
<ellipse fill="#fdb462" stroke="black" cx="677" cy="-104" rx="70.64" ry="18"/>
<text text-anchor="middle" x="677" y="-99.8" font-family="Times,serif" font-size="14.00">DbUtilsService</text>
</g>
<!-- DbUtilsService&#45;&gt;ProfileModule -->
<g id="edge2" class="edge">
<title>DbUtilsService&#45;&gt;ProfileModule</title>
<path fill="none" stroke="black" d="M677,-122.28C677,-143.32 677,-175 677,-175 677,-175 421.72,-175 421.72,-175"/>
<polygon fill="black" stroke="black" points="421.72,-171.5 411.72,-175 421.72,-178.5 421.72,-171.5"/>
</g>
<!-- DtoGenService -->
<g id="node4" class="node">
<title>DtoGenService</title>
<ellipse fill="#fdb462" stroke="black" cx="518" cy="-104" rx="70.62" ry="18"/>
<text text-anchor="middle" x="518" y="-99.8" font-family="Times,serif" font-size="14.00">DtoGenService</text>
</g>
<!-- DtoGenService&#45;&gt;ProfileModule -->
<g id="edge3" class="edge">
<title>DtoGenService&#45;&gt;ProfileModule</title>
<path fill="none" stroke="black" d="M518,-122.02C518,-139.37 518,-163 518,-163 518,-163 422.04,-163 422.04,-163"/>
<polygon fill="black" stroke="black" points="422.04,-159.5 412.04,-163 422.04,-166.5 422.04,-159.5"/>
</g>
<!-- PrismaService -->
<g id="node5" class="node">
<title>PrismaService</title>
<ellipse fill="#fdb462" stroke="black" cx="363" cy="-104" rx="66.63" ry="18"/>
<text text-anchor="middle" x="363" y="-99.8" font-family="Times,serif" font-size="14.00">PrismaService</text>
</g>
<!-- PrismaService&#45;&gt;ProfileModule -->
<g id="edge4" class="edge">
<title>PrismaService&#45;&gt;ProfileModule</title>
<path fill="none" stroke="black" d="M363,-122.11C363,-122.11 363,-140.99 363,-140.99"/>
<polygon fill="black" stroke="black" points="359.5,-140.99 363,-150.99 366.5,-140.99 359.5,-140.99"/>
</g>
<!-- ProfileService -->
<g id="node6" class="node">
<title>ProfileService</title>
<ellipse fill="#fdb462" stroke="black" cx="212" cy="-104" rx="66.05" ry="18"/>
<text text-anchor="middle" x="212" y="-99.8" font-family="Times,serif" font-size="14.00">ProfileService</text>
</g>
<!-- ProfileService&#45;&gt;ProfileModule -->
<g id="edge5" class="edge">
<title>ProfileService&#45;&gt;ProfileModule</title>
<path fill="none" stroke="black" d="M212,-122.02C212,-139.37 212,-163 212,-163 212,-163 303.97,-163 303.97,-163"/>
<polygon fill="black" stroke="black" points="303.97,-166.5 313.97,-163 303.97,-159.5 303.97,-166.5"/>
</g>
</g>
</svg>
