<?xml version="1.0" encoding="UTF-8" standalone="no"?>
<!DOCTYPE svg PUBLIC "-//W3C//DTD SVG 1.1//EN"
 "http://www.w3.org/Graphics/SVG/1.1/DTD/svg11.dtd">
<!-- Generated by graphviz version 2.47.0 (20210316.0004)
 -->
<!-- Title: dependencies Pages: 1 -->
<svg width="916pt" height="284pt"
 viewBox="0.00 0.00 916.00 284.00" xmlns="http://www.w3.org/2000/svg" xmlns:xlink="http://www.w3.org/1999/xlink">
<g id="graph0" class="graph" transform="scale(1 1) rotate(0) translate(4 280)">
<title>dependencies</title>
<polygon fill="white" stroke="transparent" points="-4,4 -4,-280 912,-280 912,4 -4,4"/>
<text text-anchor="start" x="433.01" y="-42.4" font-family="Times-12" font-weight="bold" font-size="14.00">Legend</text>
<polygon fill="#ffffb3" stroke="transparent" points="220,-10 220,-30 240,-30 240,-10 220,-10"/>
<text text-anchor="start" x="243.63" y="-15.4" font-family="Times-12" font-size="14.00"> &#160;Declarations</text>
<polygon fill="#8dd3c7" stroke="transparent" points="333,-10 333,-30 353,-30 353,-10 333,-10"/>
<text text-anchor="start" x="356.73" y="-15.4" font-family="Times-12" font-size="14.00"> &#160;Module</text>
<polygon fill="#80b1d3" stroke="transparent" points="419,-10 419,-30 439,-30 439,-10 419,-10"/>
<text text-anchor="start" x="442.78" y="-15.4" font-family="Times-12" font-size="14.00"> &#160;Bootstrap</text>
<polygon fill="#fdb462" stroke="transparent" points="516,-10 516,-30 536,-30 536,-10 516,-10"/>
<text text-anchor="start" x="539.67" y="-15.4" font-family="Times-12" font-size="14.00"> &#160;Providers</text>
<polygon fill="#fb8072" stroke="transparent" points="612,-10 612,-30 632,-30 632,-10 612,-10"/>
<text text-anchor="start" x="635.73" y="-15.4" font-family="Times-12" font-size="14.00"> &#160;Exports</text>
<g id="clust1" class="cluster">
<title>cluster_ProfileModule</title>
<polygon fill="none" stroke="black" stroke-dasharray="1,5" points="8,-70 8,-268 900,-268 900,-70 8,-70"/>
</g>
<g id="clust6" class="cluster">
<title>cluster_ProfileModule_providers</title>
<polygon fill="none" stroke="black" points="138,-78 138,-130 892,-130 892,-78 138,-78"/>
</g>
<g id="clust3" class="cluster">
<title>cluster_ProfileModule_imports</title>
<polygon fill="none" stroke="black" points="16,-78 16,-130 130,-130 130,-78 16,-78"/>
</g>
<g id="clust4" class="cluster">
<title>cluster_ProfileModule_exports</title>
<polygon fill="none" stroke="black" points="382,-208 382,-260 498,-260 498,-208 382,-208"/>
</g>
<!-- PrismaModule -->
<g id="node1" class="node">
<title>PrismaModule</title>
<polygon fill="#8dd3c7" stroke="black" points="122.43,-122 119.43,-126 98.43,-126 95.43,-122 23.57,-122 23.57,-86 122.43,-86 122.43,-122"/>
<text text-anchor="middle" x="73" y="-99.8" font-family="Times,serif" font-size="14.00">PrismaModule</text>
</g>
<!-- ProfileModule -->
<g id="node2" class="node">
<title>ProfileModule</title>
<polygon fill="#8dd3c7" stroke="black" points="488.65,-187 485.65,-191 464.65,-191 461.65,-187 391.35,-187 391.35,-151 488.65,-151 488.65,-187"/>
<text text-anchor="middle" x="440" y="-164.8" font-family="Times,serif" font-size="14.00">ProfileModule</text>
</g>
<!-- PrismaModule&#45;&gt;ProfileModule -->
<g id="edge1" class="edge">
<title>PrismaModule&#45;&gt;ProfileModule</title>
<path fill="none" stroke="black" d="M73,-122.28C73,-143.32 73,-175 73,-175 73,-175 381.27,-175 381.27,-175"/>
<polygon fill="black" stroke="black" points="381.27,-178.5 391.27,-175 381.27,-171.5 381.27,-178.5"/>
</g>
<!-- ProfileService  -->
<g id="node3" class="node">
<title>ProfileService </title>
<polygon fill="#fb8072" stroke="black" points="489.58,-252 390.42,-252 390.42,-216 489.58,-216 489.58,-252"/>
<text text-anchor="middle" x="440" y="-229.8" font-family="Times,serif" font-size="14.00">ProfileService </text>
</g>
<!-- ProfileModule&#45;&gt;ProfileService  -->
<g id="edge2" class="edge">
<title>ProfileModule&#45;&gt;ProfileService </title>
<path fill="none" stroke="black" stroke-dasharray="5,2" d="M440,-187.11C440,-187.11 440,-205.99 440,-205.99"/>
<polygon fill="black" stroke="black" points="436.5,-205.99 440,-215.99 443.5,-205.99 436.5,-205.99"/>
</g>
<!-- AuthService -->
<g id="node4" class="node">
<title>AuthService</title>
<ellipse fill="#fdb462" stroke="black" cx="825" cy="-104" rx="59.11" ry="18"/>
<text text-anchor="middle" x="825" y="-99.8" font-family="Times,serif" font-size="14.00">AuthService</text>
</g>
<!-- AuthService&#45;&gt;ProfileModule -->
<g id="edge3" class="edge">
<title>AuthService&#45;&gt;ProfileModule</title>
<path fill="none" stroke="black" d="M825,-122.28C825,-143.32 825,-175 825,-175 825,-175 498.76,-175 498.76,-175"/>
<polygon fill="black" stroke="black" points="498.76,-171.5 488.76,-175 498.76,-178.5 498.76,-171.5"/>
</g>
<!-- DbUtilsService -->
<g id="node5" class="node">
<title>DbUtilsService</title>
<ellipse fill="#fdb462" stroke="black" cx="677" cy="-104" rx="70.64" ry="18"/>
<text text-anchor="middle" x="677" y="-99.8" font-family="Times,serif" font-size="14.00">DbUtilsService</text>
</g>
<!-- DbUtilsService&#45;&gt;ProfileModule -->
<g id="edge4" class="edge">
<title>DbUtilsService&#45;&gt;ProfileModule</title>
<path fill="none" stroke="black" d="M677,-122.02C677,-139.37 677,-163 677,-163 677,-163 498.82,-163 498.82,-163"/>
<polygon fill="black" stroke="black" points="498.82,-159.5 488.82,-163 498.82,-166.5 498.82,-159.5"/>
</g>
<!-- DtoGenService -->
<g id="node6" class="node">
<title>DtoGenService</title>
<ellipse fill="#fdb462" stroke="black" cx="518" cy="-104" rx="70.62" ry="18"/>
<text text-anchor="middle" x="518" y="-99.8" font-family="Times,serif" font-size="14.00">DtoGenService</text>
</g>
<!-- DtoGenService&#45;&gt;ProfileModule -->
<g id="edge5" class="edge">
<title>DtoGenService&#45;&gt;ProfileModule</title>
<path fill="none" stroke="black" d="M468.13,-116.84C468.13,-116.84 468.13,-140.52 468.13,-140.52"/>
<polygon fill="black" stroke="black" points="464.63,-140.52 468.13,-150.52 471.63,-140.52 464.63,-140.52"/>
</g>
<!-- PrismaService -->
<g id="node7" class="node">
<title>PrismaService</title>
<ellipse fill="#fdb462" stroke="black" cx="363" cy="-104" rx="66.63" ry="18"/>
<text text-anchor="middle" x="363" y="-99.8" font-family="Times,serif" font-size="14.00">PrismaService</text>
</g>
<!-- PrismaService&#45;&gt;ProfileModule -->
<g id="edge6" class="edge">
<title>PrismaService&#45;&gt;ProfileModule</title>
<path fill="none" stroke="black" d="M410.49,-116.84C410.49,-116.84 410.49,-140.52 410.49,-140.52"/>
<polygon fill="black" stroke="black" points="406.99,-140.52 410.49,-150.52 413.99,-140.52 406.99,-140.52"/>
</g>
<!-- ProfileService -->
<g id="node8" class="node">
<title>ProfileService</title>
<ellipse fill="#fdb462" stroke="black" cx="212" cy="-104" rx="66.05" ry="18"/>
<text text-anchor="middle" x="212" y="-99.8" font-family="Times,serif" font-size="14.00">ProfileService</text>
</g>
<!-- ProfileService&#45;&gt;ProfileModule -->
<g id="edge7" class="edge">
<title>ProfileService&#45;&gt;ProfileModule</title>
<path fill="none" stroke="black" d="M212,-122.02C212,-139.37 212,-163 212,-163 212,-163 381.09,-163 381.09,-163"/>
<polygon fill="black" stroke="black" points="381.09,-166.5 391.09,-163 381.09,-159.5 381.09,-166.5"/>
</g>
</g>
</svg>
