<?xml version="1.0" encoding="UTF-8" standalone="no"?>
<!DOCTYPE svg PUBLIC "-//W3C//DTD SVG 1.1//EN"
 "http://www.w3.org/Graphics/SVG/1.1/DTD/svg11.dtd">
<!-- Generated by graphviz version 2.47.0 (20210316.0004)
 -->
<!-- Title: dependencies Pages: 1 -->
<svg width="916pt" height="211pt"
 viewBox="0.00 0.00 916.00 211.00" xmlns="http://www.w3.org/2000/svg" xmlns:xlink="http://www.w3.org/1999/xlink">
<g id="graph0" class="graph" transform="scale(1 1) rotate(0) translate(4 207)">
<title>dependencies</title>
<polygon fill="white" stroke="transparent" points="-4,4 -4,-207 912,-207 912,4 -4,4"/>
<text text-anchor="start" x="433.01" y="-42.4" font-family="Times-12" font-weight="bold" font-size="14.00">Legend</text>
<polygon fill="#ffffb3" stroke="transparent" points="220,-10 220,-30 240,-30 240,-10 220,-10"/>
<text text-anchor="start" x="243.63" y="-15.4" font-family="Times-12" font-size="14.00"> &#160;Declarations</text>
<polygon fill="#8dd3c7" stroke="transparent" points="333,-10 333,-30 353,-30 353,-10 333,-10"/>
<text text-anchor="start" x="356.73" y="-15.4" font-family="Times-12" font-size="14.00"> &#160;Module</text>
<polygon fill="#80b1d3" stroke="transparent" points="419,-10 419,-30 439,-30 439,-10 419,-10"/>
<text text-anchor="start" x="442.78" y="-15.4" font-family="Times-12" font-size="14.00"> &#160;Bootstrap</text>
<polygon fill="#fdb462" stroke="transparent" points="516,-10 516,-30 536,-30 536,-10 516,-10"/>
<text text-anchor="start" x="539.67" y="-15.4" font-family="Times-12" font-size="14.00"> &#160;Providers</text>
<polygon fill="#fb8072" stroke="transparent" points="612,-10 612,-30 632,-30 632,-10 612,-10"/>
<text text-anchor="start" x="635.73" y="-15.4" font-family="Times-12" font-size="14.00"> &#160;Exports</text>
<g id="clust1" class="cluster">
<title>cluster_ProfileModule</title>
<polygon fill="none" stroke="black" stroke-dasharray="1,5" points="8,-70 8,-195 900,-195 900,-70 8,-70"/>
</g>
<g id="clust3" class="cluster">
<title>cluster_ProfileModule_imports</title>
<polygon fill="none" stroke="black" points="778,-78 778,-130 892,-130 892,-78 778,-78"/>
</g>
<g id="clust6" class="cluster">
<title>cluster_ProfileModule_providers</title>
<polygon fill="none" stroke="black" points="16,-78 16,-130 770,-130 770,-78 16,-78"/>
</g>
<!-- PrismaModule -->
<g id="node1" class="node">
<title>PrismaModule</title>
<polygon fill="#8dd3c7" stroke="black" points="884.43,-122 881.43,-126 860.43,-126 857.43,-122 785.57,-122 785.57,-86 884.43,-86 884.43,-122"/>
<text text-anchor="middle" x="835" y="-99.8" font-family="Times,serif" font-size="14.00">PrismaModule</text>
</g>
<!-- ProfileModule -->
<g id="node2" class="node">
<title>ProfileModule</title>
<polygon fill="#8dd3c7" stroke="black" points="523.65,-187 520.65,-191 499.65,-191 496.65,-187 426.35,-187 426.35,-151 523.65,-151 523.65,-187"/>
<text text-anchor="middle" x="475" y="-164.8" font-family="Times,serif" font-size="14.00">ProfileModule</text>
</g>
<!-- PrismaModule&#45;&gt;ProfileModule -->
<g id="edge1" class="edge">
<title>PrismaModule&#45;&gt;ProfileModule</title>
<path fill="none" stroke="black" d="M835,-122.28C835,-143.32 835,-175 835,-175 835,-175 533.93,-175 533.93,-175"/>
<polygon fill="black" stroke="black" points="533.93,-171.5 523.93,-175 533.93,-178.5 533.93,-171.5"/>
</g>
<!-- AuthService -->
<g id="node3" class="node">
<title>AuthService</title>
<ellipse fill="#fdb462" stroke="black" cx="703" cy="-104" rx="59.11" ry="18"/>
<text text-anchor="middle" x="703" y="-99.8" font-family="Times,serif" font-size="14.00">AuthService</text>
</g>
<!-- AuthService&#45;&gt;ProfileModule -->
<g id="edge2" class="edge">
<title>AuthService&#45;&gt;ProfileModule</title>
<path fill="none" stroke="black" d="M703,-122.02C703,-139.37 703,-163 703,-163 703,-163 533.91,-163 533.91,-163"/>
<polygon fill="black" stroke="black" points="533.91,-159.5 523.91,-163 533.91,-166.5 533.91,-159.5"/>
</g>
<!-- DbUtilsService -->
<g id="node4" class="node">
<title>DbUtilsService</title>
<ellipse fill="#fdb462" stroke="black" cx="555" cy="-104" rx="70.64" ry="18"/>
<text text-anchor="middle" x="555" y="-99.8" font-family="Times,serif" font-size="14.00">DbUtilsService</text>
</g>
<!-- DbUtilsService&#45;&gt;ProfileModule -->
<g id="edge3" class="edge">
<title>DbUtilsService&#45;&gt;ProfileModule</title>
<path fill="none" stroke="black" d="M504.13,-116.53C504.13,-116.53 504.13,-140.85 504.13,-140.85"/>
<polygon fill="black" stroke="black" points="500.63,-140.85 504.13,-150.85 507.63,-140.85 500.63,-140.85"/>
</g>
<!-- DtoGenService -->
<g id="node5" class="node">
<title>DtoGenService</title>
<ellipse fill="#fdb462" stroke="black" cx="396" cy="-104" rx="70.62" ry="18"/>
<text text-anchor="middle" x="396" y="-99.8" font-family="Times,serif" font-size="14.00">DtoGenService</text>
</g>
<!-- DtoGenService&#45;&gt;ProfileModule -->
<g id="edge4" class="edge">
<title>DtoGenService&#45;&gt;ProfileModule</title>
<path fill="none" stroke="black" d="M446.37,-116.84C446.37,-116.84 446.37,-140.52 446.37,-140.52"/>
<polygon fill="black" stroke="black" points="442.87,-140.52 446.37,-150.52 449.87,-140.52 442.87,-140.52"/>
</g>
<!-- PrismaService -->
<g id="node6" class="node">
<title>PrismaService</title>
<ellipse fill="#fdb462" stroke="black" cx="241" cy="-104" rx="66.63" ry="18"/>
<text text-anchor="middle" x="241" y="-99.8" font-family="Times,serif" font-size="14.00">PrismaService</text>
</g>
<!-- PrismaService&#45;&gt;ProfileModule -->
<g id="edge5" class="edge">
<title>PrismaService&#45;&gt;ProfileModule</title>
<path fill="none" stroke="black" d="M241,-122.02C241,-139.37 241,-163 241,-163 241,-163 416.23,-163 416.23,-163"/>
<polygon fill="black" stroke="black" points="416.23,-166.5 426.23,-163 416.23,-159.5 416.23,-166.5"/>
</g>
<!-- ProfileService -->
<g id="node7" class="node">
<title>ProfileService</title>
<ellipse fill="#fdb462" stroke="black" cx="90" cy="-104" rx="66.05" ry="18"/>
<text text-anchor="middle" x="90" y="-99.8" font-family="Times,serif" font-size="14.00">ProfileService</text>
</g>
<!-- ProfileService&#45;&gt;ProfileModule -->
<g id="edge6" class="edge">
<title>ProfileService&#45;&gt;ProfileModule</title>
<path fill="none" stroke="black" d="M90,-122.28C90,-143.32 90,-175 90,-175 90,-175 416.24,-175 416.24,-175"/>
<polygon fill="black" stroke="black" points="416.24,-178.5 426.24,-175 416.24,-171.5 416.24,-178.5"/>
</g>
</g>
</svg>
