<?xml version="1.0" encoding="UTF-8" standalone="no"?>
<!DOCTYPE svg PUBLIC "-//W3C//DTD SVG 1.1//EN"
 "http://www.w3.org/Graphics/SVG/1.1/DTD/svg11.dtd">
<!-- Generated by graphviz version 2.47.0 (20210316.0004)
 -->
<!-- Title: dependencies Pages: 1 -->
<svg width="630pt" height="284pt"
 viewBox="0.00 0.00 630.00 284.00" xmlns="http://www.w3.org/2000/svg" xmlns:xlink="http://www.w3.org/1999/xlink">
<g id="graph0" class="graph" transform="scale(1 1) rotate(0) translate(4 280)">
<title>dependencies</title>
<polygon fill="white" stroke="transparent" points="-4,4 -4,-280 626,-280 626,4 -4,4"/>
<text text-anchor="start" x="290.01" y="-42.4" font-family="Times-12" font-weight="bold" font-size="14.00">Legend</text>
<polygon fill="#ffffb3" stroke="transparent" points="77,-10 77,-30 97,-30 97,-10 77,-10"/>
<text text-anchor="start" x="100.63" y="-15.4" font-family="Times-12" font-size="14.00"> &#160;Declarations</text>
<polygon fill="#8dd3c7" stroke="transparent" points="190,-10 190,-30 210,-30 210,-10 190,-10"/>
<text text-anchor="start" x="213.73" y="-15.4" font-family="Times-12" font-size="14.00"> &#160;Module</text>
<polygon fill="#80b1d3" stroke="transparent" points="276,-10 276,-30 296,-30 296,-10 276,-10"/>
<text text-anchor="start" x="299.78" y="-15.4" font-family="Times-12" font-size="14.00"> &#160;Bootstrap</text>
<polygon fill="#fdb462" stroke="transparent" points="373,-10 373,-30 393,-30 393,-10 373,-10"/>
<text text-anchor="start" x="396.67" y="-15.4" font-family="Times-12" font-size="14.00"> &#160;Providers</text>
<polygon fill="#fb8072" stroke="transparent" points="469,-10 469,-30 489,-30 489,-10 469,-10"/>
<text text-anchor="start" x="492.73" y="-15.4" font-family="Times-12" font-size="14.00"> &#160;Exports</text>
<g id="clust1" class="cluster">
<title>cluster_DtoGenModule</title>
<polygon fill="none" stroke="black" stroke-dasharray="1,5" points="8,-70 8,-268 614,-268 614,-70 8,-70"/>
</g>
<g id="clust3" class="cluster">
<title>cluster_DtoGenModule_imports</title>
<polygon fill="none" stroke="black" points="492,-78 492,-130 606,-130 606,-78 492,-78"/>
</g>
<g id="clust4" class="cluster">
<title>cluster_DtoGenModule_exports</title>
<polygon fill="none" stroke="black" points="264,-208 264,-260 386,-260 386,-208 264,-208"/>
</g>
<g id="clust6" class="cluster">
<title>cluster_DtoGenModule_providers</title>
<polygon fill="none" stroke="black" points="16,-78 16,-130 484,-130 484,-78 16,-78"/>
</g>
<!-- PrismaModule -->
<g id="node1" class="node">
<title>PrismaModule</title>
<polygon fill="#8dd3c7" stroke="black" points="598.43,-122 595.43,-126 574.43,-126 571.43,-122 499.57,-122 499.57,-86 598.43,-86 598.43,-122"/>
<text text-anchor="middle" x="549" y="-99.8" font-family="Times,serif" font-size="14.00">PrismaModule</text>
</g>
<!-- DtoGenModule -->
<g id="node2" class="node">
<title>DtoGenModule</title>
<polygon fill="#8dd3c7" stroke="black" points="376.87,-187 373.87,-191 352.87,-191 349.87,-187 273.13,-187 273.13,-151 376.87,-151 376.87,-187"/>
<text text-anchor="middle" x="325" y="-164.8" font-family="Times,serif" font-size="14.00">DtoGenModule</text>
</g>
<!-- PrismaModule&#45;&gt;DtoGenModule -->
<g id="edge1" class="edge">
<title>PrismaModule&#45;&gt;DtoGenModule</title>
<path fill="none" stroke="black" d="M549,-122.11C549,-141.34 549,-169 549,-169 549,-169 386.95,-169 386.95,-169"/>
<polygon fill="black" stroke="black" points="386.95,-165.5 376.95,-169 386.95,-172.5 386.95,-165.5"/>
</g>
<!-- DtoGenService  -->
<g id="node3" class="node">
<title>DtoGenService </title>
<polygon fill="#fb8072" stroke="black" points="377.8,-252 272.2,-252 272.2,-216 377.8,-216 377.8,-252"/>
<text text-anchor="middle" x="325" y="-229.8" font-family="Times,serif" font-size="14.00">DtoGenService </text>
</g>
<!-- DtoGenModule&#45;&gt;DtoGenService  -->
<g id="edge2" class="edge">
<title>DtoGenModule&#45;&gt;DtoGenService </title>
<path fill="none" stroke="black" stroke-dasharray="5,2" d="M325,-187.11C325,-187.11 325,-205.99 325,-205.99"/>
<polygon fill="black" stroke="black" points="321.5,-205.99 325,-215.99 328.5,-205.99 321.5,-205.99"/>
</g>
<!-- DbUtilsService -->
<g id="node4" class="node">
<title>DbUtilsService</title>
<ellipse fill="#fdb462" stroke="black" cx="405" cy="-104" rx="70.64" ry="18"/>
<text text-anchor="middle" x="405" y="-99.8" font-family="Times,serif" font-size="14.00">DbUtilsService</text>
</g>
<!-- DbUtilsService&#45;&gt;DtoGenModule -->
<g id="edge3" class="edge">
<title>DbUtilsService&#45;&gt;DtoGenModule</title>
<path fill="none" stroke="black" d="M355.68,-117.15C355.68,-117.15 355.68,-140.69 355.68,-140.69"/>
<polygon fill="black" stroke="black" points="352.18,-140.69 355.68,-150.69 359.18,-140.69 352.18,-140.69"/>
</g>
<!-- DtoGenService -->
<g id="node5" class="node">
<title>DtoGenService</title>
<ellipse fill="#fdb462" stroke="black" cx="246" cy="-104" rx="70.62" ry="18"/>
<text text-anchor="middle" x="246" y="-99.8" font-family="Times,serif" font-size="14.00">DtoGenService</text>
</g>
<!-- DtoGenService&#45;&gt;DtoGenModule -->
<g id="edge4" class="edge">
<title>DtoGenService&#45;&gt;DtoGenModule</title>
<path fill="none" stroke="black" d="M294.81,-117.15C294.81,-117.15 294.81,-140.69 294.81,-140.69"/>
<polygon fill="black" stroke="black" points="291.31,-140.69 294.81,-150.69 298.31,-140.69 291.31,-140.69"/>
</g>
<!-- PrismaService -->
<g id="node6" class="node">
<title>PrismaService</title>
<ellipse fill="#fdb462" stroke="black" cx="91" cy="-104" rx="66.63" ry="18"/>
<text text-anchor="middle" x="91" y="-99.8" font-family="Times,serif" font-size="14.00">PrismaService</text>
</g>
<!-- PrismaService&#45;&gt;DtoGenModule -->
<g id="edge5" class="edge">
<title>PrismaService&#45;&gt;DtoGenModule</title>
<path fill="none" stroke="black" d="M91,-122.11C91,-141.34 91,-169 91,-169 91,-169 263.07,-169 263.07,-169"/>
<polygon fill="black" stroke="black" points="263.07,-172.5 273.07,-169 263.07,-165.5 263.07,-172.5"/>
</g>
</g>
</svg>
