<?xml version="1.0" encoding="UTF-8" standalone="no"?>
<!DOCTYPE svg PUBLIC "-//W3C//DTD SVG 1.1//EN"
 "http://www.w3.org/Graphics/SVG/1.1/DTD/svg11.dtd">
<!-- Generated by graphviz version 2.47.0 (20210316.0004)
 -->
<!-- Title: dependencies Pages: 1 -->
<svg width="504pt" height="284pt"
 viewBox="0.00 0.00 504.00 284.00" xmlns="http://www.w3.org/2000/svg" xmlns:xlink="http://www.w3.org/1999/xlink">
<g id="graph0" class="graph" transform="scale(1 1) rotate(0) translate(4 280)">
<title>dependencies</title>
<polygon fill="white" stroke="transparent" points="-4,4 -4,-280 500,-280 500,4 -4,4"/>
<text text-anchor="start" x="227.01" y="-42.4" font-family="Times-12" font-weight="bold" font-size="14.00">Legend</text>
<polygon fill="#ffffb3" stroke="transparent" points="14,-10 14,-30 34,-30 34,-10 14,-10"/>
<text text-anchor="start" x="37.63" y="-15.4" font-family="Times-12" font-size="14.00"> &#160;Declarations</text>
<polygon fill="#8dd3c7" stroke="transparent" points="127,-10 127,-30 147,-30 147,-10 127,-10"/>
<text text-anchor="start" x="150.73" y="-15.4" font-family="Times-12" font-size="14.00"> &#160;Module</text>
<polygon fill="#80b1d3" stroke="transparent" points="213,-10 213,-30 233,-30 233,-10 213,-10"/>
<text text-anchor="start" x="236.78" y="-15.4" font-family="Times-12" font-size="14.00"> &#160;Bootstrap</text>
<polygon fill="#fdb462" stroke="transparent" points="310,-10 310,-30 330,-30 330,-10 310,-10"/>
<text text-anchor="start" x="333.67" y="-15.4" font-family="Times-12" font-size="14.00"> &#160;Providers</text>
<polygon fill="#fb8072" stroke="transparent" points="406,-10 406,-30 426,-30 426,-10 406,-10"/>
<text text-anchor="start" x="429.73" y="-15.4" font-family="Times-12" font-size="14.00"> &#160;Exports</text>
<g id="clust1" class="cluster">
<title>cluster_DtoGenModule</title>
<polygon fill="none" stroke="black" stroke-dasharray="1,5" points="39,-70 39,-268 457,-268 457,-70 39,-70"/>
</g>
<g id="clust4" class="cluster">
<title>cluster_DtoGenModule_exports</title>
<polygon fill="none" stroke="black" points="162,-208 162,-260 284,-260 284,-208 162,-208"/>
</g>
<g id="clust6" class="cluster">
<title>cluster_DtoGenModule_providers</title>
<polygon fill="none" stroke="black" points="291,-78 291,-130 449,-130 449,-78 291,-78"/>
</g>
<g id="clust3" class="cluster">
<title>cluster_DtoGenModule_imports</title>
<polygon fill="none" stroke="black" points="47,-78 47,-130 283,-130 283,-78 47,-78"/>
</g>
<!-- DbUtilsModule -->
<g id="node1" class="node">
<title>DbUtilsModule</title>
<polygon fill="#8dd3c7" stroke="black" points="274.88,-122 271.88,-126 250.88,-126 247.88,-122 171.12,-122 171.12,-86 274.88,-86 274.88,-122"/>
<text text-anchor="middle" x="223" y="-99.8" font-family="Times,serif" font-size="14.00">DbUtilsModule</text>
</g>
<!-- DtoGenModule -->
<g id="node3" class="node">
<title>DtoGenModule</title>
<polygon fill="#8dd3c7" stroke="black" points="274.87,-187 271.87,-191 250.87,-191 247.87,-187 171.13,-187 171.13,-151 274.87,-151 274.87,-187"/>
<text text-anchor="middle" x="223" y="-164.8" font-family="Times,serif" font-size="14.00">DtoGenModule</text>
</g>
<!-- DbUtilsModule&#45;&gt;DtoGenModule -->
<g id="edge1" class="edge">
<title>DbUtilsModule&#45;&gt;DtoGenModule</title>
<path fill="none" stroke="black" d="M223,-122.11C223,-122.11 223,-140.99 223,-140.99"/>
<polygon fill="black" stroke="black" points="219.5,-140.99 223,-150.99 226.5,-140.99 219.5,-140.99"/>
</g>
<!-- PrismaModule -->
<g id="node2" class="node">
<title>PrismaModule</title>
<polygon fill="#8dd3c7" stroke="black" points="153.43,-122 150.43,-126 129.43,-126 126.43,-122 54.57,-122 54.57,-86 153.43,-86 153.43,-122"/>
<text text-anchor="middle" x="104" y="-99.8" font-family="Times,serif" font-size="14.00">PrismaModule</text>
</g>
<!-- PrismaModule&#45;&gt;DtoGenModule -->
<g id="edge2" class="edge">
<title>PrismaModule&#45;&gt;DtoGenModule</title>
<path fill="none" stroke="black" d="M104,-122.11C104,-141.34 104,-169 104,-169 104,-169 160.8,-169 160.8,-169"/>
<polygon fill="black" stroke="black" points="160.8,-172.5 170.8,-169 160.8,-165.5 160.8,-172.5"/>
</g>
<!-- DtoGenService  -->
<g id="node4" class="node">
<title>DtoGenService </title>
<polygon fill="#fb8072" stroke="black" points="275.8,-252 170.2,-252 170.2,-216 275.8,-216 275.8,-252"/>
<text text-anchor="middle" x="223" y="-229.8" font-family="Times,serif" font-size="14.00">DtoGenService </text>
</g>
<!-- DtoGenModule&#45;&gt;DtoGenService  -->
<g id="edge3" class="edge">
<title>DtoGenModule&#45;&gt;DtoGenService </title>
<path fill="none" stroke="black" stroke-dasharray="5,2" d="M223,-187.11C223,-187.11 223,-205.99 223,-205.99"/>
<polygon fill="black" stroke="black" points="219.5,-205.99 223,-215.99 226.5,-205.99 219.5,-205.99"/>
</g>
<!-- DtoGenService -->
<g id="node5" class="node">
<title>DtoGenService</title>
<ellipse fill="#fdb462" stroke="black" cx="370" cy="-104" rx="70.62" ry="18"/>
<text text-anchor="middle" x="370" y="-99.8" font-family="Times,serif" font-size="14.00">DtoGenService</text>
</g>
<!-- DtoGenService&#45;&gt;DtoGenModule -->
<g id="edge4" class="edge">
<title>DtoGenService&#45;&gt;DtoGenModule</title>
<path fill="none" stroke="black" d="M370,-122.11C370,-141.34 370,-169 370,-169 370,-169 285.24,-169 285.24,-169"/>
<polygon fill="black" stroke="black" points="285.24,-165.5 275.24,-169 285.24,-172.5 285.24,-165.5"/>
</g>
</g>
</svg>
