<?xml version="1.0" encoding="UTF-8" standalone="no"?>
<!DOCTYPE svg PUBLIC "-//W3C//DTD SVG 1.1//EN"
 "http://www.w3.org/Graphics/SVG/1.1/DTD/svg11.dtd">
<!-- Generated by graphviz version 2.47.0 (20210316.0004)
 -->
<!-- Title: dependencies Pages: 1 -->
<svg width="2556pt" height="306pt"
 viewBox="0.00 0.00 2556.00 306.00" xmlns="http://www.w3.org/2000/svg" xmlns:xlink="http://www.w3.org/1999/xlink">
<g id="graph0" class="graph" transform="scale(1 1) rotate(0) translate(4 302)">
<title>dependencies</title>
<polygon fill="white" stroke="transparent" points="-4,4 -4,-302 2552,-302 2552,4 -4,4"/>
<text text-anchor="start" x="1253.01" y="-42.4" font-family="Times-12" font-weight="bold" font-size="14.00">Legend</text>
<polygon fill="#ffffb3" stroke="transparent" points="1040,-10 1040,-30 1060,-30 1060,-10 1040,-10"/>
<text text-anchor="start" x="1063.63" y="-15.4" font-family="Times-12" font-size="14.00"> &#160;Declarations</text>
<polygon fill="#8dd3c7" stroke="transparent" points="1153,-10 1153,-30 1173,-30 1173,-10 1153,-10"/>
<text text-anchor="start" x="1176.73" y="-15.4" font-family="Times-12" font-size="14.00"> &#160;Module</text>
<polygon fill="#80b1d3" stroke="transparent" points="1239,-10 1239,-30 1259,-30 1259,-10 1239,-10"/>
<text text-anchor="start" x="1262.78" y="-15.4" font-family="Times-12" font-size="14.00"> &#160;Bootstrap</text>
<polygon fill="#fdb462" stroke="transparent" points="1336,-10 1336,-30 1356,-30 1356,-10 1336,-10"/>
<text text-anchor="start" x="1359.67" y="-15.4" font-family="Times-12" font-size="14.00"> &#160;Providers</text>
<polygon fill="#fb8072" stroke="transparent" points="1432,-10 1432,-30 1452,-30 1452,-10 1432,-10"/>
<text text-anchor="start" x="1455.73" y="-15.4" font-family="Times-12" font-size="14.00"> &#160;Exports</text>
<g id="clust1" class="cluster">
<title>cluster_AppModule</title>
<polygon fill="none" stroke="black" stroke-dasharray="1,5" points="1086,-70 1086,-282 2248,-282 2248,-70 1086,-70"/>
</g>
<g id="clust3" class="cluster">
<title>cluster_AppModule_imports</title>
<polygon fill="none" stroke="black" points="1094,-78 1094,-206 1784,-206 1784,-78 1094,-78"/>
</g>
<g id="clust6" class="cluster">
<title>cluster_AppModule_providers</title>
<polygon fill="none" stroke="black" points="1792,-78 1792,-130 2240,-130 2240,-78 1792,-78"/>
</g>
<g id="clust7" class="cluster">
<title>cluster_AuthModule</title>
<polygon fill="none" stroke="black" stroke-dasharray="1,5" points="8,-70 8,-138 732,-138 732,-70 8,-70"/>
</g>
<g id="clust12" class="cluster">
<title>cluster_AuthModule_providers</title>
<polygon fill="none" stroke="black" points="16,-78 16,-130 724,-130 724,-78 16,-78"/>
</g>
<g id="clust13" class="cluster">
<title>cluster_DbUtilsModule</title>
<polygon fill="none" stroke="black" stroke-dasharray="1,5" points="2256,-222 2256,-290 2394,-290 2394,-222 2256,-222"/>
</g>
<g id="clust16" class="cluster">
<title>cluster_DbUtilsModule_exports</title>
<polygon fill="none" stroke="black" points="2264,-230 2264,-282 2386,-282 2386,-230 2264,-230"/>
</g>
<g id="clust19" class="cluster">
<title>cluster_DtoGenModule</title>
<polygon fill="none" stroke="black" stroke-dasharray="1,5" points="2402,-222 2402,-290 2540,-290 2540,-222 2402,-222"/>
</g>
<g id="clust22" class="cluster">
<title>cluster_DtoGenModule_exports</title>
<polygon fill="none" stroke="black" points="2410,-230 2410,-282 2532,-282 2532,-230 2410,-230"/>
</g>
<g id="clust25" class="cluster">
<title>cluster_PrismaModule</title>
<polygon fill="none" stroke="black" stroke-dasharray="1,5" points="2256,-146 2256,-214 2388,-214 2388,-146 2256,-146"/>
</g>
<g id="clust28" class="cluster">
<title>cluster_PrismaModule_exports</title>
<polygon fill="none" stroke="black" points="2264,-154 2264,-206 2380,-206 2380,-154 2264,-154"/>
</g>
<g id="clust31" class="cluster">
<title>cluster_ProfileModule</title>
<polygon fill="none" stroke="black" stroke-dasharray="1,5" points="740,-70 740,-138 904,-138 904,-70 740,-70"/>
</g>
<g id="clust36" class="cluster">
<title>cluster_ProfileModule_providers</title>
<polygon fill="none" stroke="black" points="748,-78 748,-130 896,-130 896,-78 748,-78"/>
</g>
<g id="clust37" class="cluster">
<title>cluster_RoomsModule</title>
<polygon fill="none" stroke="black" stroke-dasharray="1,5" points="912,-70 912,-138 1078,-138 1078,-70 912,-70"/>
</g>
<g id="clust42" class="cluster">
<title>cluster_RoomsModule_providers</title>
<polygon fill="none" stroke="black" points="920,-78 920,-130 1070,-130 1070,-78 920,-78"/>
</g>
<!-- AuthModule -->
<g id="node1" class="node">
<title>AuthModule</title>
<polygon fill="#8dd3c7" stroke="black" points="1189.55,-198 1186.55,-202 1165.55,-202 1162.55,-198 1102.45,-198 1102.45,-162 1189.55,-162 1189.55,-198"/>
<text text-anchor="middle" x="1146" y="-175.8" font-family="Times,serif" font-size="14.00">AuthModule</text>
</g>
<!-- AppModule -->
<g id="node8" class="node">
<title>AppModule</title>
<polygon fill="#8dd3c7" stroke="black" points="1704.66,-274 1701.66,-278 1680.66,-278 1677.66,-274 1621.34,-274 1621.34,-238 1704.66,-238 1704.66,-274"/>
<text text-anchor="middle" x="1663" y="-251.8" font-family="Times,serif" font-size="14.00">AppModule</text>
</g>
<!-- AuthModule&#45;&gt;AppModule -->
<g id="edge1" class="edge">
<title>AuthModule&#45;&gt;AppModule</title>
<path fill="none" stroke="black" d="M1146,-198.03C1146,-223.51 1146,-267 1146,-267 1146,-267 1611.13,-267 1611.13,-267"/>
<polygon fill="black" stroke="black" points="1611.13,-270.5 1621.13,-267 1611.13,-263.5 1611.13,-270.5"/>
</g>
<!-- DbUtilsModule -->
<g id="node2" class="node">
<title>DbUtilsModule</title>
<polygon fill="#8dd3c7" stroke="black" points="1653.88,-198 1650.88,-202 1629.88,-202 1626.88,-198 1550.12,-198 1550.12,-162 1653.88,-162 1653.88,-198"/>
<text text-anchor="middle" x="1602" y="-175.8" font-family="Times,serif" font-size="14.00">DbUtilsModule</text>
</g>
<!-- DbUtilsModule&#45;&gt;AppModule -->
<g id="edge2" class="edge">
<title>DbUtilsModule&#45;&gt;AppModule</title>
<path fill="none" stroke="black" d="M1632.09,-198.01C1632.09,-198.01 1632.09,-227.85 1632.09,-227.85"/>
<polygon fill="black" stroke="black" points="1628.59,-227.85 1632.09,-237.85 1635.59,-227.85 1628.59,-227.85"/>
</g>
<!-- DbUtilsService  -->
<g id="node17" class="node">
<title>DbUtilsService </title>
<polygon fill="#fb8072" stroke="black" points="2377.81,-274 2272.19,-274 2272.19,-238 2377.81,-238 2377.81,-274"/>
<text text-anchor="middle" x="2325" y="-251.8" font-family="Times,serif" font-size="14.00">DbUtilsService </text>
</g>
<!-- DbUtilsModule&#45;&gt;DbUtilsService  -->
<g id="edge20" class="edge">
<title>DbUtilsModule&#45;&gt;DbUtilsService </title>
<path fill="none" stroke="black" stroke-dasharray="5,2" d="M1643.02,-198.04C1643.02,-210.56 1643.02,-225 1643.02,-225 1643.02,-225 2322.14,-225 2322.14,-225 2322.14,-225 2322.14,-227.97 2322.14,-227.97"/>
<polygon fill="black" stroke="black" points="2318.64,-227.97 2322.14,-237.97 2325.64,-227.97 2318.64,-227.97"/>
</g>
<!-- DtoGenModule -->
<g id="node3" class="node">
<title>DtoGenModule</title>
<polygon fill="#8dd3c7" stroke="black" points="1775.87,-198 1772.87,-202 1751.87,-202 1748.87,-198 1672.13,-198 1672.13,-162 1775.87,-162 1775.87,-198"/>
<text text-anchor="middle" x="1724" y="-175.8" font-family="Times,serif" font-size="14.00">DtoGenModule</text>
</g>
<!-- DtoGenModule&#45;&gt;AppModule -->
<g id="edge3" class="edge">
<title>DtoGenModule&#45;&gt;AppModule</title>
<path fill="none" stroke="black" d="M1688.45,-198.01C1688.45,-198.01 1688.45,-227.85 1688.45,-227.85"/>
<polygon fill="black" stroke="black" points="1684.95,-227.85 1688.45,-237.85 1691.95,-227.85 1684.95,-227.85"/>
</g>
<!-- DtoGenService  -->
<g id="node18" class="node">
<title>DtoGenService </title>
<polygon fill="#fb8072" stroke="black" points="2523.8,-274 2418.2,-274 2418.2,-238 2523.8,-238 2523.8,-274"/>
<text text-anchor="middle" x="2471" y="-251.8" font-family="Times,serif" font-size="14.00">DtoGenService </text>
</g>
<!-- DtoGenModule&#45;&gt;DtoGenService  -->
<g id="edge24" class="edge">
<title>DtoGenModule&#45;&gt;DtoGenService </title>
<path fill="none" stroke="black" stroke-dasharray="5,2" d="M1740.38,-198.24C1740.38,-205.43 1740.38,-212 1740.38,-212 1740.38,-212 2471,-212 2471,-212 2471,-212 2471,-227.85 2471,-227.85"/>
<polygon fill="black" stroke="black" points="2467.5,-227.85 2471,-237.85 2474.5,-227.85 2467.5,-227.85"/>
</g>
<!-- PrismaModule -->
<g id="node4" class="node">
<title>PrismaModule</title>
<polygon fill="#8dd3c7" stroke="black" points="1531.43,-122 1528.43,-126 1507.43,-126 1504.43,-122 1432.57,-122 1432.57,-86 1531.43,-86 1531.43,-122"/>
<text text-anchor="middle" x="1482" y="-99.8" font-family="Times,serif" font-size="14.00">PrismaModule</text>
</g>
<!-- PrismaModule&#45;&gt;AuthModule -->
<g id="edge11" class="edge">
<title>PrismaModule&#45;&gt;AuthModule</title>
<path fill="none" stroke="black" d="M1432.61,-101C1334.44,-101 1124.11,-101 1124.11,-101 1124.11,-101 1124.11,-151.68 1124.11,-151.68"/>
<polygon fill="black" stroke="black" points="1120.61,-151.68 1124.11,-161.68 1127.61,-151.68 1120.61,-151.68"/>
</g>
<!-- PrismaModule&#45;&gt;DbUtilsModule -->
<g id="edge19" class="edge">
<title>PrismaModule&#45;&gt;DbUtilsModule</title>
<path fill="none" stroke="black" d="M1531.5,-118C1564.56,-118 1602,-118 1602,-118 1602,-118 1602,-151.73 1602,-151.73"/>
<polygon fill="black" stroke="black" points="1598.5,-151.73 1602,-161.73 1605.5,-151.73 1598.5,-151.73"/>
</g>
<!-- PrismaModule&#45;&gt;DtoGenModule -->
<g id="edge23" class="edge">
<title>PrismaModule&#45;&gt;DtoGenModule</title>
<path fill="none" stroke="black" d="M1531.26,-104C1602.02,-104 1724,-104 1724,-104 1724,-104 1724,-151.99 1724,-151.99"/>
<polygon fill="black" stroke="black" points="1720.5,-151.99 1724,-161.99 1727.5,-151.99 1720.5,-151.99"/>
</g>
<!-- ProfileModule -->
<g id="node5" class="node">
<title>ProfileModule</title>
<polygon fill="#8dd3c7" stroke="black" points="1414.65,-198 1411.65,-202 1390.65,-202 1387.65,-198 1317.35,-198 1317.35,-162 1414.65,-162 1414.65,-198"/>
<text text-anchor="middle" x="1366" y="-175.8" font-family="Times,serif" font-size="14.00">ProfileModule</text>
</g>
<!-- PrismaModule&#45;&gt;ProfileModule -->
<g id="edge30" class="edge">
<title>PrismaModule&#45;&gt;ProfileModule</title>
<path fill="none" stroke="black" d="M1432.59,-115C1403.74,-115 1372.97,-115 1372.97,-115 1372.97,-115 1372.97,-151.89 1372.97,-151.89"/>
<polygon fill="black" stroke="black" points="1369.48,-151.89 1372.97,-161.89 1376.48,-151.89 1369.48,-151.89"/>
</g>
<!-- RoomsModule -->
<g id="node6" class="node">
<title>RoomsModule</title>
<polygon fill="#8dd3c7" stroke="black" points="1531.72,-198 1528.72,-202 1507.72,-202 1504.72,-198 1432.28,-198 1432.28,-162 1531.72,-162 1531.72,-198"/>
<text text-anchor="middle" x="1482" y="-175.8" font-family="Times,serif" font-size="14.00">RoomsModule</text>
</g>
<!-- PrismaModule&#45;&gt;RoomsModule -->
<g id="edge36" class="edge">
<title>PrismaModule&#45;&gt;RoomsModule</title>
<path fill="none" stroke="black" d="M1491.84,-122.01C1491.84,-122.01 1491.84,-151.85 1491.84,-151.85"/>
<polygon fill="black" stroke="black" points="1488.34,-151.85 1491.84,-161.85 1495.34,-151.85 1488.34,-151.85"/>
</g>
<!-- UsersModule -->
<g id="node7" class="node">
<title>UsersModule</title>
<polygon fill="#8dd3c7" stroke="black" points="1298.92,-198 1295.92,-202 1274.92,-202 1271.92,-198 1207.08,-198 1207.08,-162 1298.92,-162 1298.92,-198"/>
<text text-anchor="middle" x="1253" y="-175.8" font-family="Times,serif" font-size="14.00">UsersModule</text>
</g>
<!-- PrismaModule&#45;&gt;UsersModule -->
<g id="edge42" class="edge">
<title>PrismaModule&#45;&gt;UsersModule</title>
<path fill="none" stroke="black" d="M1432.63,-108C1367.09,-108 1259.53,-108 1259.53,-108 1259.53,-108 1259.53,-151.83 1259.53,-151.83"/>
<polygon fill="black" stroke="black" points="1256.03,-151.83 1259.53,-161.83 1263.03,-151.83 1256.03,-151.83"/>
</g>
<!-- PrismaModule&#45;&gt;AppModule -->
<g id="edge4" class="edge">
<title>PrismaModule&#45;&gt;AppModule</title>
<path fill="none" stroke="black" d="M1531.58,-109C1584.24,-109 1659.98,-109 1659.98,-109 1659.98,-109 1659.98,-227.97 1659.98,-227.97"/>
<polygon fill="black" stroke="black" points="1656.48,-227.97 1659.98,-237.97 1663.48,-227.97 1656.48,-227.97"/>
</g>
<!-- PrismaService  -->
<g id="node19" class="node">
<title>PrismaService </title>
<polygon fill="#fb8072" stroke="black" points="2372.36,-198 2271.64,-198 2271.64,-162 2372.36,-162 2372.36,-198"/>
<text text-anchor="middle" x="2322" y="-175.8" font-family="Times,serif" font-size="14.00">PrismaService </text>
</g>
<!-- PrismaModule&#45;&gt;PrismaService  -->
<g id="edge28" class="edge">
<title>PrismaModule&#45;&gt;PrismaService </title>
<path fill="none" stroke="black" stroke-dasharray="5,2" d="M1531.53,-91C1618.19,-91 1788.19,-91 1788.19,-91 1788.19,-91 1788.19,-186 1788.19,-186 1788.19,-186 2261.78,-186 2261.78,-186"/>
<polygon fill="black" stroke="black" points="2261.78,-189.5 2271.78,-186 2261.78,-182.5 2261.78,-189.5"/>
</g>
<!-- ProfileModule&#45;&gt;AppModule -->
<g id="edge5" class="edge">
<title>ProfileModule&#45;&gt;AppModule</title>
<path fill="none" stroke="black" d="M1366,-198.04C1366,-219.66 1366,-253 1366,-253 1366,-253 1611.08,-253 1611.08,-253"/>
<polygon fill="black" stroke="black" points="1611.08,-256.5 1621.08,-253 1611.08,-249.5 1611.08,-256.5"/>
</g>
<!-- RoomsModule&#45;&gt;AppModule -->
<g id="edge6" class="edge">
<title>RoomsModule&#45;&gt;AppModule</title>
<path fill="none" stroke="black" d="M1482,-198.03C1482,-217.58 1482,-246 1482,-246 1482,-246 1611.02,-246 1611.02,-246"/>
<polygon fill="black" stroke="black" points="1611.02,-249.5 1621.02,-246 1611.02,-242.5 1611.02,-249.5"/>
</g>
<!-- UsersModule&#45;&gt;AppModule -->
<g id="edge7" class="edge">
<title>UsersModule&#45;&gt;AppModule</title>
<path fill="none" stroke="black" d="M1253,-198.15C1253,-221.76 1253,-260 1253,-260 1253,-260 1611.05,-260 1611.05,-260"/>
<polygon fill="black" stroke="black" points="1611.05,-263.5 1621.05,-260 1611.05,-256.5 1611.05,-263.5"/>
</g>
<!-- AppService -->
<g id="node9" class="node">
<title>AppService</title>
<ellipse fill="#fdb462" stroke="black" cx="2175" cy="-104" rx="56.74" ry="18"/>
<text text-anchor="middle" x="2175" y="-99.8" font-family="Times,serif" font-size="14.00">AppService</text>
</g>
<!-- AppService&#45;&gt;AppModule -->
<g id="edge8" class="edge">
<title>AppService&#45;&gt;AppModule</title>
<path fill="none" stroke="black" d="M2175,-122.12C2175,-163.63 2175,-262 2175,-262 2175,-262 1714.9,-262 1714.9,-262"/>
<polygon fill="black" stroke="black" points="1714.9,-258.5 1704.9,-262 1714.9,-265.5 1714.9,-258.5"/>
</g>
<!-- DbUtilsService -->
<g id="node10" class="node">
<title>DbUtilsService</title>
<ellipse fill="#fdb462" stroke="black" cx="2030" cy="-104" rx="70.64" ry="18"/>
<text text-anchor="middle" x="2030" y="-99.8" font-family="Times,serif" font-size="14.00">DbUtilsService</text>
</g>
<!-- DbUtilsService&#45;&gt;AuthModule -->
<g id="edge13" class="edge">
<title>DbUtilsService&#45;&gt;AuthModule</title>
<path fill="none" stroke="black" d="M1977.07,-116.25C1977.07,-124.92 1977.07,-135 1977.07,-135 1977.07,-135 1167.89,-135 1167.89,-135 1167.89,-135 1167.89,-151.96 1167.89,-151.96"/>
<polygon fill="black" stroke="black" points="1164.39,-151.96 1167.89,-161.96 1171.39,-151.96 1164.39,-151.96"/>
</g>
<!-- DbUtilsService&#45;&gt;DbUtilsModule -->
<g id="edge21" class="edge">
<title>DbUtilsService&#45;&gt;DbUtilsModule</title>
<path fill="none" stroke="black" d="M2047.64,-121.72C2047.64,-138.12 2047.64,-160 2047.64,-160 2047.64,-160 1627.97,-160 1627.97,-160 1627.97,-160 1627.97,-160.18 1627.97,-160.18"/>
<polygon fill="black" stroke="black" points="1624.47,-151.85 1627.97,-161.85 1631.47,-151.85 1624.47,-151.85"/>
</g>
<!-- DbUtilsService&#45;&gt;DtoGenModule -->
<g id="edge25" class="edge">
<title>DbUtilsService&#45;&gt;DtoGenModule</title>
<path fill="none" stroke="black" d="M2065.28,-119.88C2065.28,-140.54 2065.28,-174 2065.28,-174 2065.28,-174 1786.21,-174 1786.21,-174"/>
<polygon fill="black" stroke="black" points="1786.21,-170.5 1776.21,-174 1786.21,-177.5 1786.21,-170.5"/>
</g>
<!-- DbUtilsService&#45;&gt;ProfileModule -->
<g id="edge32" class="edge">
<title>DbUtilsService&#45;&gt;ProfileModule</title>
<path fill="none" stroke="black" d="M2012.36,-121.6C2012.36,-136.69 2012.36,-156 2012.36,-156 2012.36,-156 1400.87,-156 1400.87,-156 1400.87,-156 1400.87,-156.58 1400.87,-156.58"/>
<polygon fill="black" stroke="black" points="1397.37,-151.81 1400.87,-161.81 1404.37,-151.81 1397.37,-151.81"/>
</g>
<!-- DbUtilsService&#45;&gt;RoomsModule -->
<g id="edge38" class="edge">
<title>DbUtilsService&#45;&gt;RoomsModule</title>
<path fill="none" stroke="black" d="M2030,-122.28C2030,-137.95 2030,-158 2030,-158 2030,-158 1511.53,-158 1511.53,-158 1511.53,-158 1511.53,-158.38 1511.53,-158.38"/>
<polygon fill="black" stroke="black" points="1508.03,-151.83 1511.53,-161.83 1515.03,-151.83 1508.03,-151.83"/>
</g>
<!-- DbUtilsService&#45;&gt;UsersModule -->
<g id="edge44" class="edge">
<title>DbUtilsService&#45;&gt;UsersModule</title>
<path fill="none" stroke="black" d="M1994.72,-119.86C1994.72,-129.12 1994.72,-139 1994.72,-139 1994.72,-139 1285.65,-139 1285.65,-139 1285.65,-139 1285.65,-151.9 1285.65,-151.9"/>
<polygon fill="black" stroke="black" points="1282.15,-151.9 1285.65,-161.9 1289.15,-151.9 1282.15,-151.9"/>
</g>
<!-- DbUtilsService&#45;&gt;AppModule -->
<g id="edge9" class="edge">
<title>DbUtilsService&#45;&gt;AppModule</title>
<path fill="none" stroke="black" d="M2082.93,-115.95C2082.93,-150.82 2082.93,-250 2082.93,-250 2082.93,-250 1714.8,-250 1714.8,-250"/>
<polygon fill="black" stroke="black" points="1714.8,-246.5 1704.8,-250 1714.8,-253.5 1714.8,-246.5"/>
</g>
<!-- DtoGenService -->
<g id="node11" class="node">
<title>DtoGenService</title>
<ellipse fill="#fdb462" stroke="black" cx="1871" cy="-104" rx="70.62" ry="18"/>
<text text-anchor="middle" x="1871" y="-99.8" font-family="Times,serif" font-size="14.00">DtoGenService</text>
</g>
<!-- DtoGenService&#45;&gt;AuthModule -->
<g id="edge14" class="edge">
<title>DtoGenService&#45;&gt;AuthModule</title>
<path fill="none" stroke="black" d="M1835.72,-119.86C1835.72,-126.63 1835.72,-133 1835.72,-133 1835.72,-133 1146,-133 1146,-133 1146,-133 1146,-151.96 1146,-151.96"/>
<polygon fill="black" stroke="black" points="1142.5,-151.96 1146,-161.96 1149.5,-151.96 1142.5,-151.96"/>
</g>
<!-- DtoGenService&#45;&gt;DtoGenModule -->
<g id="edge26" class="edge">
<title>DtoGenService&#45;&gt;DtoGenModule</title>
<path fill="none" stroke="black" d="M1809.77,-113C1779.75,-113 1749.97,-113 1749.97,-113 1749.97,-113 1749.97,-151.69 1749.97,-151.69"/>
<polygon fill="black" stroke="black" points="1746.47,-151.69 1749.97,-161.69 1753.47,-151.69 1746.47,-151.69"/>
</g>
<!-- DtoGenService&#45;&gt;ProfileModule -->
<g id="edge33" class="edge">
<title>DtoGenService&#45;&gt;ProfileModule</title>
<path fill="none" stroke="black" d="M1906.28,-119.82C1906.28,-134.47 1906.28,-154 1906.28,-154 1906.28,-154 1386.92,-154 1386.92,-154 1386.92,-154 1386.92,-154.79 1386.92,-154.79"/>
<polygon fill="black" stroke="black" points="1383.43,-151.94 1386.92,-161.94 1390.43,-151.94 1383.43,-151.94"/>
</g>
<!-- DtoGenService&#45;&gt;RoomsModule -->
<g id="edge39" class="edge">
<title>DtoGenService&#45;&gt;RoomsModule</title>
<path fill="none" stroke="black" d="M1809.67,-95C1714.19,-95 1540.84,-95 1540.84,-95 1540.84,-95 1540.84,-180 1540.84,-180 1540.84,-180 1539.92,-180 1539.92,-180"/>
<polygon fill="black" stroke="black" points="1541.64,-176.5 1531.64,-180 1541.64,-183.5 1541.64,-176.5"/>
</g>
<!-- DtoGenService&#45;&gt;UsersModule -->
<g id="edge45" class="edge">
<title>DtoGenService&#45;&gt;UsersModule</title>
<path fill="none" stroke="black" d="M1871,-122.04C1871,-129.75 1871,-137 1871,-137 1871,-137 1272.59,-137 1272.59,-137 1272.59,-137 1272.59,-151.51 1272.59,-151.51"/>
<polygon fill="black" stroke="black" points="1269.09,-151.51 1272.59,-161.51 1276.09,-151.51 1269.09,-151.51"/>
</g>
<!-- DtoGenService&#45;&gt;AppModule -->
<g id="edge10" class="edge">
<title>DtoGenService&#45;&gt;AppModule</title>
<path fill="none" stroke="black" d="M1802.18,-100C1742.63,-100 1666.02,-100 1666.02,-100 1666.02,-100 1666.02,-227.8 1666.02,-227.8"/>
<polygon fill="black" stroke="black" points="1662.52,-227.8 1666.02,-237.8 1669.52,-227.8 1662.52,-227.8"/>
</g>
<!-- AuthService -->
<g id="node12" class="node">
<title>AuthService</title>
<ellipse fill="#fdb462" stroke="black" cx="505" cy="-104" rx="59.11" ry="18"/>
<text text-anchor="middle" x="505" y="-99.8" font-family="Times,serif" font-size="14.00">AuthService</text>
</g>
<!-- AuthService&#45;&gt;AuthModule -->
<g id="edge12" class="edge">
<title>AuthService&#45;&gt;AuthModule</title>
<path fill="none" stroke="black" d="M540.58,-118.5C540.58,-139.01 540.58,-174 540.58,-174 540.58,-174 1091.97,-174 1091.97,-174"/>
<polygon fill="black" stroke="black" points="1091.97,-177.5 1101.97,-174 1091.97,-170.5 1091.97,-177.5"/>
</g>
<!-- AuthService&#45;&gt;ProfileModule -->
<g id="edge31" class="edge">
<title>AuthService&#45;&gt;ProfileModule</title>
<path fill="none" stroke="black" d="M493.14,-122.06C493.14,-133.44 493.14,-146 493.14,-146 493.14,-146 1331.13,-146 1331.13,-146 1331.13,-146 1331.13,-151.81 1331.13,-151.81"/>
<polygon fill="black" stroke="black" points="1327.63,-151.81 1331.13,-161.81 1334.63,-151.81 1327.63,-151.81"/>
</g>
<!-- AuthService&#45;&gt;RoomsModule -->
<g id="edge37" class="edge">
<title>AuthService&#45;&gt;RoomsModule</title>
<path fill="none" stroke="black" d="M516.86,-121.86C516.86,-126.88 516.86,-131 516.86,-131 516.86,-131 1452.47,-131 1452.47,-131 1452.47,-131 1452.47,-151.75 1452.47,-151.75"/>
<polygon fill="black" stroke="black" points="1448.97,-151.75 1452.47,-161.75 1455.97,-151.75 1448.97,-151.75"/>
</g>
<!-- AuthService&#45;&gt;UsersModule -->
<g id="edge43" class="edge">
<title>AuthService&#45;&gt;UsersModule</title>
<path fill="none" stroke="black" d="M469.42,-118.55C469.42,-132.03 469.42,-150 469.42,-150 469.42,-150 1233.41,-150 1233.41,-150 1233.41,-150 1233.41,-151.86 1233.41,-151.86"/>
<polygon fill="black" stroke="black" points="1229.91,-151.86 1233.41,-161.86 1236.91,-151.86 1229.91,-151.86"/>
</g>
<!-- JwtStrategy -->
<g id="node13" class="node">
<title>JwtStrategy</title>
<ellipse fill="#fdb462" stroke="black" cx="81" cy="-104" rx="56.76" ry="18"/>
<text text-anchor="middle" x="81" y="-99.8" font-family="Times,serif" font-size="14.00">JwtStrategy</text>
</g>
<!-- JwtStrategy&#45;&gt;AuthModule -->
<g id="edge15" class="edge">
<title>JwtStrategy&#45;&gt;AuthModule</title>
<path fill="none" stroke="black" d="M81,-122.23C81,-148.01 81,-192 81,-192 81,-192 1092.27,-192 1092.27,-192"/>
<polygon fill="black" stroke="black" points="1092.27,-195.5 1102.27,-192 1092.27,-188.5 1092.27,-195.5"/>
</g>
<!-- LocalStrategy -->
<g id="node14" class="node">
<title>LocalStrategy</title>
<ellipse fill="#fdb462" stroke="black" cx="221" cy="-104" rx="65.41" ry="18"/>
<text text-anchor="middle" x="221" y="-99.8" font-family="Times,serif" font-size="14.00">LocalStrategy</text>
</g>
<!-- LocalStrategy&#45;&gt;AuthModule -->
<g id="edge16" class="edge">
<title>LocalStrategy&#45;&gt;AuthModule</title>
<path fill="none" stroke="black" d="M221,-122.2C221,-146.36 221,-186 221,-186 221,-186 1092.32,-186 1092.32,-186"/>
<polygon fill="black" stroke="black" points="1092.32,-189.5 1102.32,-186 1092.32,-182.5 1092.32,-189.5"/>
</g>
<!-- PrismaService -->
<g id="node15" class="node">
<title>PrismaService</title>
<ellipse fill="#fdb462" stroke="black" cx="649" cy="-104" rx="66.63" ry="18"/>
<text text-anchor="middle" x="649" y="-99.8" font-family="Times,serif" font-size="14.00">PrismaService</text>
</g>
<!-- PrismaService&#45;&gt;AuthModule -->
<g id="edge17" class="edge">
<title>PrismaService&#45;&gt;AuthModule</title>
<path fill="none" stroke="black" d="M696.72,-116.64C696.72,-135.3 696.72,-168 696.72,-168 696.72,-168 1092.1,-168 1092.1,-168"/>
<polygon fill="black" stroke="black" points="1092.1,-171.5 1102.1,-168 1092.1,-164.5 1092.1,-171.5"/>
</g>
<!-- PrismaService&#45;&gt;DbUtilsModule -->
<g id="edge22" class="edge">
<title>PrismaService&#45;&gt;DbUtilsModule</title>
<path fill="none" stroke="black" d="M658.54,-122.12C658.54,-124.97 658.54,-127 658.54,-127 658.54,-127 1576.03,-127 1576.03,-127 1576.03,-127 1576.03,-151.76 1576.03,-151.76"/>
<polygon fill="black" stroke="black" points="1572.53,-151.76 1576.03,-161.76 1579.53,-151.76 1572.53,-151.76"/>
</g>
<!-- PrismaService&#45;&gt;DtoGenModule -->
<g id="edge27" class="edge">
<title>PrismaService&#45;&gt;DtoGenModule</title>
<path fill="none" stroke="black" d="M677.63,-120.55C677.63,-123.15 677.63,-125 677.63,-125 677.63,-125 1698.03,-125 1698.03,-125 1698.03,-125 1698.03,-151.99 1698.03,-151.99"/>
<polygon fill="black" stroke="black" points="1694.53,-151.99 1698.03,-161.99 1701.53,-151.99 1694.53,-151.99"/>
</g>
<!-- PrismaService&#45;&gt;PrismaModule -->
<g id="edge29" class="edge">
<title>PrismaService&#45;&gt;PrismaModule</title>
<path fill="none" stroke="black" d="M649,-86C649,-77 649,-68 649,-68 649,-68 1482,-68 1482,-68 1482,-68 1482,-75.58 1482,-75.58"/>
<polygon fill="black" stroke="black" points="1478.5,-75.58 1482,-85.58 1485.5,-75.58 1478.5,-75.58"/>
</g>
<!-- PrismaService&#45;&gt;ProfileModule -->
<g id="edge34" class="edge">
<title>PrismaService&#45;&gt;ProfileModule</title>
<path fill="none" stroke="black" d="M620.37,-120.27C620.37,-131.34 620.37,-144 620.37,-144 620.37,-144 1345.08,-144 1345.08,-144 1345.08,-144 1345.08,-151.58 1345.08,-151.58"/>
<polygon fill="black" stroke="black" points="1341.58,-151.58 1345.08,-161.58 1348.58,-151.58 1341.58,-151.58"/>
</g>
<!-- PrismaService&#45;&gt;RoomsModule -->
<g id="edge40" class="edge">
<title>PrismaService&#45;&gt;RoomsModule</title>
<path fill="none" stroke="black" d="M639.46,-121.9C639.46,-125.91 639.46,-129 639.46,-129 639.46,-129 1472.16,-129 1472.16,-129 1472.16,-129 1472.16,-151.88 1472.16,-151.88"/>
<polygon fill="black" stroke="black" points="1468.66,-151.88 1472.16,-161.88 1475.66,-151.88 1468.66,-151.88"/>
</g>
<!-- PrismaService&#45;&gt;UsersModule -->
<g id="edge46" class="edge">
<title>PrismaService&#45;&gt;UsersModule</title>
<path fill="none" stroke="black" d="M601.28,-116.96C601.28,-129.94 601.28,-148 601.28,-148 601.28,-148 1246.47,-148 1246.47,-148 1246.47,-148 1246.47,-151.76 1246.47,-151.76"/>
<polygon fill="black" stroke="black" points="1242.97,-151.76 1246.47,-161.76 1249.97,-151.76 1242.97,-151.76"/>
</g>
<!-- UsersService -->
<g id="node16" class="node">
<title>UsersService</title>
<ellipse fill="#fdb462" stroke="black" cx="366" cy="-104" rx="61.95" ry="18"/>
<text text-anchor="middle" x="366" y="-99.8" font-family="Times,serif" font-size="14.00">UsersService</text>
</g>
<!-- UsersService&#45;&gt;AuthModule -->
<g id="edge18" class="edge">
<title>UsersService&#45;&gt;AuthModule</title>
<path fill="none" stroke="black" d="M386.66,-121.25C386.66,-143.67 386.66,-180 386.66,-180 386.66,-180 1092.45,-180 1092.45,-180"/>
<polygon fill="black" stroke="black" points="1092.45,-183.5 1102.45,-180 1092.45,-176.5 1092.45,-183.5"/>
</g>
<!-- UsersService&#45;&gt;UsersModule -->
<g id="edge47" class="edge">
<title>UsersService&#45;&gt;UsersModule</title>
<path fill="none" stroke="black" d="M345.34,-121.06C345.34,-134.85 345.34,-152 345.34,-152 345.34,-152 1220.35,-152 1220.35,-152 1220.35,-152 1220.35,-152.98 1220.35,-152.98"/>
<polygon fill="black" stroke="black" points="1216.85,-151.79 1220.35,-161.79 1223.85,-151.79 1216.85,-151.79"/>
</g>
<!-- ProfileService -->
<g id="node20" class="node">
<title>ProfileService</title>
<ellipse fill="#fdb462" stroke="black" cx="822" cy="-104" rx="66.05" ry="18"/>
<text text-anchor="middle" x="822" y="-99.8" font-family="Times,serif" font-size="14.00">ProfileService</text>
</g>
<!-- ProfileService&#45;&gt;ProfileModule -->
<g id="edge35" class="edge">
<title>ProfileService&#45;&gt;ProfileModule</title>
<path fill="none" stroke="black" d="M822,-122.07C822,-131.46 822,-141 822,-141 822,-141 1359.03,-141 1359.03,-141 1359.03,-141 1359.03,-151.87 1359.03,-151.87"/>
<polygon fill="black" stroke="black" points="1355.53,-151.87 1359.03,-161.87 1362.53,-151.87 1355.53,-151.87"/>
</g>
<!-- RoomsService -->
<g id="node21" class="node">
<title>RoomsService</title>
<ellipse fill="#fdb462" stroke="black" cx="995" cy="-104" rx="67.21" ry="18"/>
<text text-anchor="middle" x="995" y="-99.8" font-family="Times,serif" font-size="14.00">RoomsService</text>
</g>
<!-- RoomsService&#45;&gt;RoomsModule -->
<g id="edge41" class="edge">
<title>RoomsService&#45;&gt;RoomsModule</title>
<path fill="none" stroke="black" d="M1051.03,-94C1167.21,-94 1423.61,-94 1423.61,-94 1423.61,-94 1423.61,-180 1423.61,-180 1423.61,-180 1424.47,-180 1424.47,-180"/>
<polygon fill="black" stroke="black" points="1422.22,-183.5 1432.22,-180 1422.22,-176.5 1422.22,-183.5"/>
</g>
</g>
</svg>
