<?xml version="1.0" encoding="UTF-8" standalone="no"?>
<!DOCTYPE svg PUBLIC "-//W3C//DTD SVG 1.1//EN"
 "http://www.w3.org/Graphics/SVG/1.1/DTD/svg11.dtd">
<!-- Generated by graphviz version 2.47.0 (20210316.0004)
 -->
<!-- Title: dependencies Pages: 1 -->
<svg width="762pt" height="279pt"
 viewBox="0.00 0.00 762.00 279.00" xmlns="http://www.w3.org/2000/svg" xmlns:xlink="http://www.w3.org/1999/xlink">
<g id="graph0" class="graph" transform="scale(1 1) rotate(0) translate(4 275)">
<title>dependencies</title>
<polygon fill="white" stroke="transparent" points="-4,4 -4,-275 758,-275 758,4 -4,4"/>
<text text-anchor="start" x="356.01" y="-42.4" font-family="Times-12" font-weight="bold" font-size="14.00">Legend</text>
<polygon fill="#ffffb3" stroke="transparent" points="143,-10 143,-30 163,-30 163,-10 143,-10"/>
<text text-anchor="start" x="166.63" y="-15.4" font-family="Times-12" font-size="14.00"> &#160;Declarations</text>
<polygon fill="#8dd3c7" stroke="transparent" points="256,-10 256,-30 276,-30 276,-10 256,-10"/>
<text text-anchor="start" x="279.73" y="-15.4" font-family="Times-12" font-size="14.00"> &#160;Module</text>
<polygon fill="#80b1d3" stroke="transparent" points="342,-10 342,-30 362,-30 362,-10 342,-10"/>
<text text-anchor="start" x="365.78" y="-15.4" font-family="Times-12" font-size="14.00"> &#160;Bootstrap</text>
<polygon fill="#fdb462" stroke="transparent" points="439,-10 439,-30 459,-30 459,-10 439,-10"/>
<text text-anchor="start" x="462.67" y="-15.4" font-family="Times-12" font-size="14.00"> &#160;Providers</text>
<polygon fill="#fb8072" stroke="transparent" points="535,-10 535,-30 555,-30 555,-10 535,-10"/>
<text text-anchor="start" x="558.73" y="-15.4" font-family="Times-12" font-size="14.00"> &#160;Exports</text>
<g id="clust1" class="cluster">
<title>cluster_AppModule</title>
<polygon fill="none" stroke="black" stroke-dasharray="1,5" points="8,-70 8,-263 284,-263 284,-70 8,-70"/>
</g>
<g id="clust3" class="cluster">
<title>cluster_AppModule_imports</title>
<polygon fill="none" stroke="black" points="162,-78 162,-198 276,-198 276,-78 162,-78"/>
</g>
<g id="clust6" class="cluster">
<title>cluster_AppModule_providers</title>
<polygon fill="none" stroke="black" points="16,-146 16,-198 146,-198 146,-146 16,-146"/>
</g>
<g id="clust7" class="cluster">
<title>cluster_PrismaModule</title>
<polygon fill="none" stroke="black" stroke-dasharray="1,5" points="292,-70 292,-138 582,-138 582,-70 292,-70"/>
</g>
<g id="clust10" class="cluster">
<title>cluster_PrismaModule_exports</title>
<polygon fill="none" stroke="black" points="458,-78 458,-130 574,-130 574,-78 458,-78"/>
</g>
<g id="clust12" class="cluster">
<title>cluster_PrismaModule_providers</title>
<polygon fill="none" stroke="black" points="300,-78 300,-130 450,-130 450,-78 300,-78"/>
</g>
<g id="clust13" class="cluster">
<title>cluster_UsersModule</title>
<polygon fill="none" stroke="black" stroke-dasharray="1,5" points="590,-70 590,-138 746,-138 746,-70 590,-70"/>
</g>
<g id="clust18" class="cluster">
<title>cluster_UsersModule_providers</title>
<polygon fill="none" stroke="black" points="598,-78 598,-130 738,-130 738,-78 598,-78"/>
</g>
<!-- PrismaModule -->
<g id="node1" class="node">
<title>PrismaModule</title>
<polygon fill="#8dd3c7" stroke="black" points="268.43,-122 265.43,-126 244.43,-126 241.43,-122 169.57,-122 169.57,-86 268.43,-86 268.43,-122"/>
<text text-anchor="middle" x="219" y="-99.8" font-family="Times,serif" font-size="14.00">PrismaModule</text>
</g>
<!-- UsersModule -->
<g id="node2" class="node">
<title>UsersModule</title>
<polygon fill="#8dd3c7" stroke="black" points="267.92,-190 264.92,-194 243.92,-194 240.92,-190 176.08,-190 176.08,-154 267.92,-154 267.92,-190"/>
<text text-anchor="middle" x="222" y="-167.8" font-family="Times,serif" font-size="14.00">UsersModule</text>
</g>
<!-- PrismaModule&#45;&gt;UsersModule -->
<g id="edge6" class="edge">
<title>PrismaModule&#45;&gt;UsersModule</title>
<path fill="none" stroke="black" d="M206.76,-122.22C206.76,-122.22 206.76,-143.73 206.76,-143.73"/>
<polygon fill="black" stroke="black" points="203.26,-143.73 206.76,-153.73 210.26,-143.73 203.26,-143.73"/>
</g>
<!-- AppModule -->
<g id="node3" class="node">
<title>AppModule</title>
<polygon fill="#8dd3c7" stroke="black" points="198.66,-255 195.66,-259 174.66,-259 171.66,-255 115.34,-255 115.34,-219 198.66,-219 198.66,-255"/>
<text text-anchor="middle" x="157" y="-232.8" font-family="Times,serif" font-size="14.00">AppModule</text>
</g>
<!-- PrismaModule&#45;&gt;AppModule -->
<g id="edge1" class="edge">
<title>PrismaModule&#45;&gt;AppModule</title>
<path fill="none" stroke="black" d="M169.51,-104C160.4,-104 153.7,-104 153.7,-104 153.7,-104 153.7,-208.79 153.7,-208.79"/>
<polygon fill="black" stroke="black" points="150.2,-208.79 153.7,-218.79 157.2,-208.79 150.2,-208.79"/>
</g>
<!-- PrismaService  -->
<g id="node5" class="node">
<title>PrismaService </title>
<polygon fill="#fb8072" stroke="black" points="566.36,-122 465.64,-122 465.64,-86 566.36,-86 566.36,-122"/>
<text text-anchor="middle" x="516" y="-99.8" font-family="Times,serif" font-size="14.00">PrismaService </text>
</g>
<!-- PrismaModule&#45;&gt;PrismaService  -->
<g id="edge4" class="edge">
<title>PrismaModule&#45;&gt;PrismaService </title>
<path fill="none" stroke="black" stroke-dasharray="5,2" d="M237.24,-122.19C237.24,-130.28 237.24,-138 237.24,-138 237.24,-138 516,-138 516,-138 516,-138 516,-132.19 516,-132.19"/>
<polygon fill="black" stroke="black" points="519.5,-132.19 516,-122.19 512.5,-132.19 519.5,-132.19"/>
</g>
<!-- UsersModule&#45;&gt;AppModule -->
<g id="edge2" class="edge">
<title>UsersModule&#45;&gt;AppModule</title>
<path fill="none" stroke="black" d="M187.56,-190.11C187.56,-190.11 187.56,-208.99 187.56,-208.99"/>
<polygon fill="black" stroke="black" points="184.06,-208.99 187.56,-218.99 191.06,-208.99 184.06,-208.99"/>
</g>
<!-- AppService -->
<g id="node4" class="node">
<title>AppService</title>
<ellipse fill="#fdb462" stroke="black" cx="81" cy="-172" rx="56.74" ry="18"/>
<text text-anchor="middle" x="81" y="-167.8" font-family="Times,serif" font-size="14.00">AppService</text>
</g>
<!-- AppService&#45;&gt;AppModule -->
<g id="edge3" class="edge">
<title>AppService&#45;&gt;AppModule</title>
<path fill="none" stroke="black" d="M126.4,-183.03C126.4,-183.03 126.4,-208.78 126.4,-208.78"/>
<polygon fill="black" stroke="black" points="122.9,-208.78 126.4,-218.78 129.9,-208.78 122.9,-208.78"/>
</g>
<!-- PrismaService -->
<g id="node6" class="node">
<title>PrismaService</title>
<ellipse fill="#fdb462" stroke="black" cx="375" cy="-104" rx="66.63" ry="18"/>
<text text-anchor="middle" x="375" y="-99.8" font-family="Times,serif" font-size="14.00">PrismaService</text>
</g>
<!-- PrismaService&#45;&gt;PrismaModule -->
<g id="edge5" class="edge">
<title>PrismaService&#45;&gt;PrismaModule</title>
<path fill="none" stroke="black" d="M307.94,-104C307.94,-104 278.57,-104 278.57,-104"/>
<polygon fill="black" stroke="black" points="278.57,-100.5 268.57,-104 278.57,-107.5 278.57,-100.5"/>
</g>
<!-- PrismaService&#45;&gt;UsersModule -->
<g id="edge7" class="edge">
<title>PrismaService&#45;&gt;UsersModule</title>
<path fill="none" stroke="black" d="M375,-122.27C375,-140.56 375,-166 375,-166 375,-166 277.91,-166 277.91,-166"/>
<polygon fill="black" stroke="black" points="277.91,-162.5 267.91,-166 277.91,-169.5 277.91,-162.5"/>
</g>
<!-- UsersService -->
<g id="node7" class="node">
<title>UsersService</title>
<ellipse fill="#fdb462" stroke="black" cx="668" cy="-104" rx="61.95" ry="18"/>
<text text-anchor="middle" x="668" y="-99.8" font-family="Times,serif" font-size="14.00">UsersService</text>
</g>
<!-- UsersService&#45;&gt;UsersModule -->
<g id="edge8" class="edge">
<title>UsersService&#45;&gt;UsersModule</title>
<path fill="none" stroke="black" d="M668,-122.29C668,-144.21 668,-178 668,-178 668,-178 278.05,-178 278.05,-178"/>
<polygon fill="black" stroke="black" points="278.05,-174.5 268.05,-178 278.05,-181.5 278.05,-174.5"/>
</g>
</g>
</svg>
