<svg viewBox="0 0 16 16" xmlns="http://www.w3.org/2000/svg"><path d="m8 0c-4.4 0-8 3.6-8 8s3.6 8 8 8 8-3.6 8-8-3.56-8-8-8zm3.6806667 11.56c-.16.2393333-.44.32-.6806667.16-1.88-1.16-4.24-1.4006667-7.04066667-.7606667-.27866666.0813334-.51933333-.1193333-.59933333-.3593333-.08-.2806667.12-.52.36-.6 3.04-.68066667 5.68-.4 7.76.88.28.12.3193333.4393333.2006667.68zm.96-2.2c-.2006667.28-.5606667.4-.8413334.2-2.1593333-1.32-5.4393333-1.72-7.9593333-.92-.31933333.08-.68-.08-.76-.4s.08-.68066667.4-.76066667c2.92-.87933333 6.52-.43866666 9 1.08066667.2406667.12066667.36.52.1606667.8zm.08-2.24c-2.5606667-1.52-6.8406667-1.68-9.2806667-.91933333-.4.11933333-.8-.12066667-.92-.48066667-.12-.40066667.12-.8.48-.92066667 2.84-.84 7.52-.68 10.4806667 1.08066667.3593333.2.4793333.68.2793333 1.04-.1993333.28066667-.68.39933333-1.0393333.2z" fill="#fff"/></svg>