<?xml version="1.0" encoding="UTF-8" standalone="no"?>
<!DOCTYPE svg PUBLIC "-//W3C//DTD SVG 1.1//EN"
 "http://www.w3.org/Graphics/SVG/1.1/DTD/svg11.dtd">
<!-- Generated by graphviz version 2.47.0 (20210316.0004)
 -->
<!-- Title: dependencies Pages: 1 -->
<svg width="660pt" height="284pt"
 viewBox="0.00 0.00 660.00 284.00" xmlns="http://www.w3.org/2000/svg" xmlns:xlink="http://www.w3.org/1999/xlink">
<g id="graph0" class="graph" transform="scale(1 1) rotate(0) translate(4 280)">
<title>dependencies</title>
<polygon fill="white" stroke="transparent" points="-4,4 -4,-280 656,-280 656,4 -4,4"/>
<text text-anchor="start" x="305.01" y="-42.4" font-family="Times-12" font-weight="bold" font-size="14.00">Legend</text>
<polygon fill="#ffffb3" stroke="transparent" points="92,-10 92,-30 112,-30 112,-10 92,-10"/>
<text text-anchor="start" x="115.63" y="-15.4" font-family="Times-12" font-size="14.00"> &#160;Declarations</text>
<polygon fill="#8dd3c7" stroke="transparent" points="205,-10 205,-30 225,-30 225,-10 205,-10"/>
<text text-anchor="start" x="228.73" y="-15.4" font-family="Times-12" font-size="14.00"> &#160;Module</text>
<polygon fill="#80b1d3" stroke="transparent" points="291,-10 291,-30 311,-30 311,-10 291,-10"/>
<text text-anchor="start" x="314.78" y="-15.4" font-family="Times-12" font-size="14.00"> &#160;Bootstrap</text>
<polygon fill="#fdb462" stroke="transparent" points="388,-10 388,-30 408,-30 408,-10 388,-10"/>
<text text-anchor="start" x="411.67" y="-15.4" font-family="Times-12" font-size="14.00"> &#160;Providers</text>
<polygon fill="#fb8072" stroke="transparent" points="484,-10 484,-30 504,-30 504,-10 484,-10"/>
<text text-anchor="start" x="507.73" y="-15.4" font-family="Times-12" font-size="14.00"> &#160;Exports</text>
<g id="clust1" class="cluster">
<title>cluster_SearchModule</title>
<polygon fill="none" stroke="black" stroke-dasharray="1,5" points="8,-70 8,-268 644,-268 644,-70 8,-70"/>
</g>
<g id="clust3" class="cluster">
<title>cluster_SearchModule_imports</title>
<polygon fill="none" stroke="black" points="172,-78 172,-130 636,-130 636,-78 172,-78"/>
</g>
<g id="clust4" class="cluster">
<title>cluster_SearchModule_exports</title>
<polygon fill="none" stroke="black" points="290,-208 290,-260 406,-260 406,-208 290,-208"/>
</g>
<g id="clust6" class="cluster">
<title>cluster_SearchModule_providers</title>
<polygon fill="none" stroke="black" points="16,-78 16,-130 164,-130 164,-78 16,-78"/>
</g>
<!-- AuthModule -->
<g id="node1" class="node">
<title>AuthModule</title>
<polygon fill="#8dd3c7" stroke="black" points="627.55,-122 624.55,-126 603.55,-126 600.55,-122 540.45,-122 540.45,-86 627.55,-86 627.55,-122"/>
<text text-anchor="middle" x="584" y="-99.8" font-family="Times,serif" font-size="14.00">AuthModule</text>
</g>
<!-- SearchModule -->
<g id="node5" class="node">
<title>SearchModule</title>
<polygon fill="#8dd3c7" stroke="black" points="396.64,-187 393.64,-191 372.64,-191 369.64,-187 299.36,-187 299.36,-151 396.64,-151 396.64,-187"/>
<text text-anchor="middle" x="348" y="-164.8" font-family="Times,serif" font-size="14.00">SearchModule</text>
</g>
<!-- AuthModule&#45;&gt;SearchModule -->
<g id="edge1" class="edge">
<title>AuthModule&#45;&gt;SearchModule</title>
<path fill="none" stroke="black" d="M584,-122.28C584,-143.32 584,-175 584,-175 584,-175 406.9,-175 406.9,-175"/>
<polygon fill="black" stroke="black" points="406.9,-171.5 396.9,-175 406.9,-178.5 406.9,-171.5"/>
</g>
<!-- DbUtilsModule -->
<g id="node2" class="node">
<title>DbUtilsModule</title>
<polygon fill="#8dd3c7" stroke="black" points="521.88,-122 518.88,-126 497.88,-126 494.88,-122 418.12,-122 418.12,-86 521.88,-86 521.88,-122"/>
<text text-anchor="middle" x="470" y="-99.8" font-family="Times,serif" font-size="14.00">DbUtilsModule</text>
</g>
<!-- DbUtilsModule&#45;&gt;SearchModule -->
<g id="edge2" class="edge">
<title>DbUtilsModule&#45;&gt;SearchModule</title>
<path fill="none" stroke="black" d="M470,-122.02C470,-139.37 470,-163 470,-163 470,-163 406.92,-163 406.92,-163"/>
<polygon fill="black" stroke="black" points="406.92,-159.5 396.92,-163 406.92,-166.5 406.92,-159.5"/>
</g>
<!-- DtoGenModule -->
<g id="node3" class="node">
<title>DtoGenModule</title>
<polygon fill="#8dd3c7" stroke="black" points="399.87,-122 396.87,-126 375.87,-126 372.87,-122 296.13,-122 296.13,-86 399.87,-86 399.87,-122"/>
<text text-anchor="middle" x="348" y="-99.8" font-family="Times,serif" font-size="14.00">DtoGenModule</text>
</g>
<!-- DtoGenModule&#45;&gt;SearchModule -->
<g id="edge3" class="edge">
<title>DtoGenModule&#45;&gt;SearchModule</title>
<path fill="none" stroke="black" d="M348,-122.11C348,-122.11 348,-140.99 348,-140.99"/>
<polygon fill="black" stroke="black" points="344.5,-140.99 348,-150.99 351.5,-140.99 344.5,-140.99"/>
</g>
<!-- PrismaModule -->
<g id="node4" class="node">
<title>PrismaModule</title>
<polygon fill="#8dd3c7" stroke="black" points="278.43,-122 275.43,-126 254.43,-126 251.43,-122 179.57,-122 179.57,-86 278.43,-86 278.43,-122"/>
<text text-anchor="middle" x="229" y="-99.8" font-family="Times,serif" font-size="14.00">PrismaModule</text>
</g>
<!-- PrismaModule&#45;&gt;SearchModule -->
<g id="edge4" class="edge">
<title>PrismaModule&#45;&gt;SearchModule</title>
<path fill="none" stroke="black" d="M229,-122.02C229,-139.37 229,-163 229,-163 229,-163 289.25,-163 289.25,-163"/>
<polygon fill="black" stroke="black" points="289.25,-166.5 299.25,-163 289.25,-159.5 289.25,-166.5"/>
</g>
<!-- SearchService  -->
<g id="node6" class="node">
<title>SearchService </title>
<polygon fill="#fb8072" stroke="black" points="397.57,-252 298.43,-252 298.43,-216 397.57,-216 397.57,-252"/>
<text text-anchor="middle" x="348" y="-229.8" font-family="Times,serif" font-size="14.00">SearchService </text>
</g>
<!-- SearchModule&#45;&gt;SearchService  -->
<g id="edge5" class="edge">
<title>SearchModule&#45;&gt;SearchService </title>
<path fill="none" stroke="black" stroke-dasharray="5,2" d="M348,-187.11C348,-187.11 348,-205.99 348,-205.99"/>
<polygon fill="black" stroke="black" points="344.5,-205.99 348,-215.99 351.5,-205.99 344.5,-205.99"/>
</g>
<!-- SearchService -->
<g id="node7" class="node">
<title>SearchService</title>
<ellipse fill="#fdb462" stroke="black" cx="90" cy="-104" rx="66.03" ry="18"/>
<text text-anchor="middle" x="90" y="-99.8" font-family="Times,serif" font-size="14.00">SearchService</text>
</g>
<!-- SearchService&#45;&gt;SearchModule -->
<g id="edge6" class="edge">
<title>SearchService&#45;&gt;SearchModule</title>
<path fill="none" stroke="black" d="M90,-122.28C90,-143.32 90,-175 90,-175 90,-175 289.17,-175 289.17,-175"/>
<polygon fill="black" stroke="black" points="289.17,-178.5 299.17,-175 289.17,-171.5 289.17,-178.5"/>
</g>
</g>
</svg>
