<?xml version="1.0" encoding="UTF-8" standalone="no"?>
<!DOCTYPE svg PUBLIC "-//W3C//DTD SVG 1.1//EN"
 "http://www.w3.org/Graphics/SVG/1.1/DTD/svg11.dtd">
<!-- Generated by graphviz version 2.47.0 (20210316.0004)
 -->
<!-- Title: dependencies Pages: 1 -->
<svg width="504pt" height="284pt"
 viewBox="0.00 0.00 504.00 284.00" xmlns="http://www.w3.org/2000/svg" xmlns:xlink="http://www.w3.org/1999/xlink">
<g id="graph0" class="graph" transform="scale(1 1) rotate(0) translate(4 280)">
<title>dependencies</title>
<polygon fill="white" stroke="transparent" points="-4,4 -4,-280 500,-280 500,4 -4,4"/>
<text text-anchor="start" x="227.01" y="-42.4" font-family="Times-12" font-weight="bold" font-size="14.00">Legend</text>
<polygon fill="#ffffb3" stroke="transparent" points="14,-10 14,-30 34,-30 34,-10 14,-10"/>
<text text-anchor="start" x="37.63" y="-15.4" font-family="Times-12" font-size="14.00"> &#160;Declarations</text>
<polygon fill="#8dd3c7" stroke="transparent" points="127,-10 127,-30 147,-30 147,-10 127,-10"/>
<text text-anchor="start" x="150.73" y="-15.4" font-family="Times-12" font-size="14.00"> &#160;Module</text>
<polygon fill="#80b1d3" stroke="transparent" points="213,-10 213,-30 233,-30 233,-10 213,-10"/>
<text text-anchor="start" x="236.78" y="-15.4" font-family="Times-12" font-size="14.00"> &#160;Bootstrap</text>
<polygon fill="#fdb462" stroke="transparent" points="310,-10 310,-30 330,-30 330,-10 310,-10"/>
<text text-anchor="start" x="333.67" y="-15.4" font-family="Times-12" font-size="14.00"> &#160;Providers</text>
<polygon fill="#fb8072" stroke="transparent" points="406,-10 406,-30 426,-30 426,-10 406,-10"/>
<text text-anchor="start" x="429.73" y="-15.4" font-family="Times-12" font-size="14.00"> &#160;Exports</text>
<g id="clust1" class="cluster">
<title>cluster_SongsModule</title>
<polygon fill="none" stroke="black" stroke-dasharray="1,5" points="54,-70 54,-268 442,-268 442,-70 54,-70"/>
</g>
<g id="clust4" class="cluster">
<title>cluster_SongsModule_exports</title>
<polygon fill="none" stroke="black" points="215,-208 215,-260 327,-260 327,-208 215,-208"/>
</g>
<g id="clust3" class="cluster">
<title>cluster_SongsModule_imports</title>
<polygon fill="none" stroke="black" points="214,-78 214,-130 434,-130 434,-78 214,-78"/>
</g>
<g id="clust6" class="cluster">
<title>cluster_SongsModule_providers</title>
<polygon fill="none" stroke="black" points="62,-78 62,-130 206,-130 206,-78 62,-78"/>
</g>
<!-- AuthModule -->
<g id="node1" class="node">
<title>AuthModule</title>
<polygon fill="#8dd3c7" stroke="black" points="425.55,-122 422.55,-126 401.55,-126 398.55,-122 338.45,-122 338.45,-86 425.55,-86 425.55,-122"/>
<text text-anchor="middle" x="382" y="-99.8" font-family="Times,serif" font-size="14.00">AuthModule</text>
</g>
<!-- SongsModule -->
<g id="node3" class="node">
<title>SongsModule</title>
<polygon fill="#8dd3c7" stroke="black" points="317.78,-187 314.78,-191 293.78,-191 290.78,-187 224.22,-187 224.22,-151 317.78,-151 317.78,-187"/>
<text text-anchor="middle" x="271" y="-164.8" font-family="Times,serif" font-size="14.00">SongsModule</text>
</g>
<!-- AuthModule&#45;&gt;SongsModule -->
<g id="edge1" class="edge">
<title>AuthModule&#45;&gt;SongsModule</title>
<path fill="none" stroke="black" d="M382,-122.11C382,-141.34 382,-169 382,-169 382,-169 328.07,-169 328.07,-169"/>
<polygon fill="black" stroke="black" points="328.07,-165.5 318.07,-169 328.07,-172.5 328.07,-165.5"/>
</g>
<!-- PrismaModule -->
<g id="node2" class="node">
<title>PrismaModule</title>
<polygon fill="#8dd3c7" stroke="black" points="320.43,-122 317.43,-126 296.43,-126 293.43,-122 221.57,-122 221.57,-86 320.43,-86 320.43,-122"/>
<text text-anchor="middle" x="271" y="-99.8" font-family="Times,serif" font-size="14.00">PrismaModule</text>
</g>
<!-- PrismaModule&#45;&gt;SongsModule -->
<g id="edge2" class="edge">
<title>PrismaModule&#45;&gt;SongsModule</title>
<path fill="none" stroke="black" d="M271,-122.11C271,-122.11 271,-140.99 271,-140.99"/>
<polygon fill="black" stroke="black" points="267.5,-140.99 271,-150.99 274.5,-140.99 267.5,-140.99"/>
</g>
<!-- SongsService  -->
<g id="node4" class="node">
<title>SongsService </title>
<polygon fill="#fb8072" stroke="black" points="318.71,-252 223.29,-252 223.29,-216 318.71,-216 318.71,-252"/>
<text text-anchor="middle" x="271" y="-229.8" font-family="Times,serif" font-size="14.00">SongsService </text>
</g>
<!-- SongsModule&#45;&gt;SongsService  -->
<g id="edge3" class="edge">
<title>SongsModule&#45;&gt;SongsService </title>
<path fill="none" stroke="black" stroke-dasharray="5,2" d="M271,-187.11C271,-187.11 271,-205.99 271,-205.99"/>
<polygon fill="black" stroke="black" points="267.5,-205.99 271,-215.99 274.5,-205.99 267.5,-205.99"/>
</g>
<!-- SongsService -->
<g id="node5" class="node">
<title>SongsService</title>
<ellipse fill="#fdb462" stroke="black" cx="134" cy="-104" rx="63.7" ry="18"/>
<text text-anchor="middle" x="134" y="-99.8" font-family="Times,serif" font-size="14.00">SongsService</text>
</g>
<!-- SongsService&#45;&gt;SongsModule -->
<g id="edge4" class="edge">
<title>SongsService&#45;&gt;SongsModule</title>
<path fill="none" stroke="black" d="M134,-122.11C134,-141.34 134,-169 134,-169 134,-169 213.85,-169 213.85,-169"/>
<polygon fill="black" stroke="black" points="213.85,-172.5 223.85,-169 213.85,-165.5 213.85,-172.5"/>
</g>
</g>
</svg>
