<?xml version="1.0" encoding="UTF-8" standalone="no"?>
<!DOCTYPE svg PUBLIC "-//W3C//DTD SVG 1.1//EN"
 "http://www.w3.org/Graphics/SVG/1.1/DTD/svg11.dtd">
<!-- Generated by graphviz version 2.47.0 (20210316.0004)
 -->
<!-- Title: dependencies Pages: 1 -->
<svg width="504pt" height="284pt"
 viewBox="0.00 0.00 504.00 284.00" xmlns="http://www.w3.org/2000/svg" xmlns:xlink="http://www.w3.org/1999/xlink">
<g id="graph0" class="graph" transform="scale(1 1) rotate(0) translate(4 280)">
<title>dependencies</title>
<polygon fill="white" stroke="transparent" points="-4,4 -4,-280 500,-280 500,4 -4,4"/>
<text text-anchor="start" x="227.01" y="-42.4" font-family="Times-12" font-weight="bold" font-size="14.00">Legend</text>
<polygon fill="#ffffb3" stroke="transparent" points="14,-10 14,-30 34,-30 34,-10 14,-10"/>
<text text-anchor="start" x="37.63" y="-15.4" font-family="Times-12" font-size="14.00"> &#160;Declarations</text>
<polygon fill="#8dd3c7" stroke="transparent" points="127,-10 127,-30 147,-30 147,-10 127,-10"/>
<text text-anchor="start" x="150.73" y="-15.4" font-family="Times-12" font-size="14.00"> &#160;Module</text>
<polygon fill="#80b1d3" stroke="transparent" points="213,-10 213,-30 233,-30 233,-10 213,-10"/>
<text text-anchor="start" x="236.78" y="-15.4" font-family="Times-12" font-size="14.00"> &#160;Bootstrap</text>
<polygon fill="#fdb462" stroke="transparent" points="310,-10 310,-30 330,-30 330,-10 310,-10"/>
<text text-anchor="start" x="333.67" y="-15.4" font-family="Times-12" font-size="14.00"> &#160;Providers</text>
<polygon fill="#fb8072" stroke="transparent" points="406,-10 406,-30 426,-30 426,-10 406,-10"/>
<text text-anchor="start" x="429.73" y="-15.4" font-family="Times-12" font-size="14.00"> &#160;Exports</text>
<g id="clust1" class="cluster">
<title>cluster_BullBoardModule</title>
<polygon fill="none" stroke="black" stroke-dasharray="1,5" points="79,-70 79,-268 417,-268 417,-70 79,-70"/>
</g>
<g id="clust4" class="cluster">
<title>cluster_BullBoardModule_exports</title>
<polygon fill="none" stroke="black" points="189,-208 189,-260 325,-260 325,-208 189,-208"/>
</g>
<g id="clust3" class="cluster">
<title>cluster_BullBoardModule_imports</title>
<polygon fill="none" stroke="black" points="271,-78 271,-130 409,-130 409,-78 271,-78"/>
</g>
<g id="clust6" class="cluster">
<title>cluster_BullBoardModule_providers</title>
<polygon fill="none" stroke="black" points="87,-78 87,-130 263,-130 263,-78 87,-78"/>
</g>
<!-- BullConfigModule -->
<g id="node1" class="node">
<title>BullConfigModule</title>
<polygon fill="#8dd3c7" stroke="black" points="401.06,-122 398.06,-126 377.06,-126 374.06,-122 278.94,-122 278.94,-86 401.06,-86 401.06,-122"/>
<text text-anchor="middle" x="340" y="-99.8" font-family="Times,serif" font-size="14.00">BullConfigModule</text>
</g>
<!-- BullBoardModule -->
<g id="node2" class="node">
<title>BullBoardModule</title>
<polygon fill="#8dd3c7" stroke="black" points="315.88,-187 312.88,-191 291.88,-191 288.88,-187 198.12,-187 198.12,-151 315.88,-151 315.88,-187"/>
<text text-anchor="middle" x="257" y="-164.8" font-family="Times,serif" font-size="14.00">BullBoardModule</text>
</g>
<!-- BullConfigModule&#45;&gt;BullBoardModule -->
<g id="edge1" class="edge">
<title>BullConfigModule&#45;&gt;BullBoardModule</title>
<path fill="none" stroke="black" d="M297.33,-122.11C297.33,-122.11 297.33,-140.99 297.33,-140.99"/>
<polygon fill="black" stroke="black" points="293.83,-140.99 297.33,-150.99 300.83,-140.99 293.83,-140.99"/>
</g>
<!-- BullBoardService  -->
<g id="node3" class="node">
<title>BullBoardService </title>
<polygon fill="#fb8072" stroke="black" points="316.81,-252 197.19,-252 197.19,-216 316.81,-216 316.81,-252"/>
<text text-anchor="middle" x="257" y="-229.8" font-family="Times,serif" font-size="14.00">BullBoardService </text>
</g>
<!-- BullBoardModule&#45;&gt;BullBoardService  -->
<g id="edge2" class="edge">
<title>BullBoardModule&#45;&gt;BullBoardService </title>
<path fill="none" stroke="black" stroke-dasharray="5,2" d="M257,-187.11C257,-187.11 257,-205.99 257,-205.99"/>
<polygon fill="black" stroke="black" points="253.5,-205.99 257,-215.99 260.5,-205.99 253.5,-205.99"/>
</g>
<!-- BullBoardService -->
<g id="node4" class="node">
<title>BullBoardService</title>
<ellipse fill="#fdb462" stroke="black" cx="175" cy="-104" rx="80.45" ry="18"/>
<text text-anchor="middle" x="175" y="-99.8" font-family="Times,serif" font-size="14.00">BullBoardService</text>
</g>
<!-- BullBoardService&#45;&gt;BullBoardModule -->
<g id="edge3" class="edge">
<title>BullBoardService&#45;&gt;BullBoardModule</title>
<path fill="none" stroke="black" d="M226.64,-117.78C226.64,-117.78 226.64,-140.55 226.64,-140.55"/>
<polygon fill="black" stroke="black" points="223.14,-140.55 226.64,-150.55 230.14,-140.55 223.14,-140.55"/>
</g>
</g>
</svg>
