<?xml version="1.0" encoding="UTF-8" standalone="no"?>
<!DOCTYPE svg PUBLIC "-//W3C//DTD SVG 1.1//EN"
 "http://www.w3.org/Graphics/SVG/1.1/DTD/svg11.dtd">
<!-- Generated by graphviz version 2.47.0 (20210316.0004)
 -->
<!-- Title: dependencies Pages: 1 -->
<svg width="559pt" height="284pt"
 viewBox="0.00 0.00 559.00 284.00" xmlns="http://www.w3.org/2000/svg" xmlns:xlink="http://www.w3.org/1999/xlink">
<g id="graph0" class="graph" transform="scale(1 1) rotate(0) translate(4 280)">
<title>dependencies</title>
<polygon fill="white" stroke="transparent" points="-4,4 -4,-280 555,-280 555,4 -4,4"/>
<text text-anchor="start" x="254.51" y="-42.4" font-family="Times-12" font-weight="bold" font-size="14.00">Legend</text>
<polygon fill="#ffffb3" stroke="transparent" points="41.5,-10 41.5,-30 61.5,-30 61.5,-10 41.5,-10"/>
<text text-anchor="start" x="65.13" y="-15.4" font-family="Times-12" font-size="14.00"> &#160;Declarations</text>
<polygon fill="#8dd3c7" stroke="transparent" points="154.5,-10 154.5,-30 174.5,-30 174.5,-10 154.5,-10"/>
<text text-anchor="start" x="178.23" y="-15.4" font-family="Times-12" font-size="14.00"> &#160;Module</text>
<polygon fill="#80b1d3" stroke="transparent" points="240.5,-10 240.5,-30 260.5,-30 260.5,-10 240.5,-10"/>
<text text-anchor="start" x="264.28" y="-15.4" font-family="Times-12" font-size="14.00"> &#160;Bootstrap</text>
<polygon fill="#fdb462" stroke="transparent" points="337.5,-10 337.5,-30 357.5,-30 357.5,-10 337.5,-10"/>
<text text-anchor="start" x="361.17" y="-15.4" font-family="Times-12" font-size="14.00"> &#160;Providers</text>
<polygon fill="#fb8072" stroke="transparent" points="433.5,-10 433.5,-30 453.5,-30 453.5,-10 433.5,-10"/>
<text text-anchor="start" x="457.23" y="-15.4" font-family="Times-12" font-size="14.00"> &#160;Exports</text>
<g id="clust1" class="cluster">
<title>cluster_TasksModule</title>
<polygon fill="none" stroke="black" stroke-dasharray="1,5" points="8,-70 8,-268 543,-268 543,-70 8,-70"/>
</g>
<g id="clust3" class="cluster">
<title>cluster_TasksModule_imports</title>
<polygon fill="none" stroke="black" points="166,-78 166,-130 535,-130 535,-78 166,-78"/>
</g>
<g id="clust6" class="cluster">
<title>cluster_TasksModule_providers</title>
<polygon fill="none" stroke="black" points="16,-78 16,-130 158,-130 158,-78 16,-78"/>
</g>
<g id="clust4" class="cluster">
<title>cluster_TasksModule_exports</title>
<polygon fill="none" stroke="black" points="228,-208 228,-260 338,-260 338,-208 228,-208"/>
</g>
<!-- BullBoardModule -->
<g id="node1" class="node">
<title>BullBoardModule</title>
<polygon fill="#8dd3c7" stroke="black" points="526.88,-122 523.88,-126 502.88,-126 499.88,-122 409.12,-122 409.12,-86 526.88,-86 526.88,-122"/>
<text text-anchor="middle" x="468" y="-99.8" font-family="Times,serif" font-size="14.00">BullBoardModule</text>
</g>
<!-- TasksModule -->
<g id="node4" class="node">
<title>TasksModule</title>
<polygon fill="#8dd3c7" stroke="black" points="329.21,-187 326.21,-191 305.21,-191 302.21,-187 236.79,-187 236.79,-151 329.21,-151 329.21,-187"/>
<text text-anchor="middle" x="283" y="-164.8" font-family="Times,serif" font-size="14.00">TasksModule</text>
</g>
<!-- BullBoardModule&#45;&gt;TasksModule -->
<g id="edge1" class="edge">
<title>BullBoardModule&#45;&gt;TasksModule</title>
<path fill="none" stroke="black" d="M468,-122.11C468,-141.34 468,-169 468,-169 468,-169 339.21,-169 339.21,-169"/>
<polygon fill="black" stroke="black" points="339.21,-165.5 329.21,-169 339.21,-172.5 339.21,-165.5"/>
</g>
<!-- PrismaModule -->
<g id="node2" class="node">
<title>PrismaModule</title>
<polygon fill="#8dd3c7" stroke="black" points="391.43,-122 388.43,-126 367.43,-126 364.43,-122 292.57,-122 292.57,-86 391.43,-86 391.43,-122"/>
<text text-anchor="middle" x="342" y="-99.8" font-family="Times,serif" font-size="14.00">PrismaModule</text>
</g>
<!-- PrismaModule&#45;&gt;TasksModule -->
<g id="edge2" class="edge">
<title>PrismaModule&#45;&gt;TasksModule</title>
<path fill="none" stroke="black" d="M310.94,-122.11C310.94,-122.11 310.94,-140.99 310.94,-140.99"/>
<polygon fill="black" stroke="black" points="307.44,-140.99 310.94,-150.99 314.44,-140.99 307.44,-140.99"/>
</g>
<!-- SpotifyModule -->
<g id="node3" class="node">
<title>SpotifyModule</title>
<polygon fill="#8dd3c7" stroke="black" points="274.27,-122 271.27,-126 250.27,-126 247.27,-122 173.73,-122 173.73,-86 274.27,-86 274.27,-122"/>
<text text-anchor="middle" x="224" y="-99.8" font-family="Times,serif" font-size="14.00">SpotifyModule</text>
</g>
<!-- SpotifyModule&#45;&gt;TasksModule -->
<g id="edge3" class="edge">
<title>SpotifyModule&#45;&gt;TasksModule</title>
<path fill="none" stroke="black" d="M255.64,-122.11C255.64,-122.11 255.64,-140.99 255.64,-140.99"/>
<polygon fill="black" stroke="black" points="252.14,-140.99 255.64,-150.99 259.14,-140.99 252.14,-140.99"/>
</g>
<!-- TasksService  -->
<g id="node5" class="node">
<title>TasksService </title>
<polygon fill="#fb8072" stroke="black" points="330.13,-252 235.87,-252 235.87,-216 330.13,-216 330.13,-252"/>
<text text-anchor="middle" x="283" y="-229.8" font-family="Times,serif" font-size="14.00">TasksService </text>
</g>
<!-- TasksModule&#45;&gt;TasksService  -->
<g id="edge4" class="edge">
<title>TasksModule&#45;&gt;TasksService </title>
<path fill="none" stroke="black" stroke-dasharray="5,2" d="M283,-187.11C283,-187.11 283,-205.99 283,-205.99"/>
<polygon fill="black" stroke="black" points="279.5,-205.99 283,-215.99 286.5,-205.99 279.5,-205.99"/>
</g>
<!-- TasksService -->
<g id="node6" class="node">
<title>TasksService</title>
<ellipse fill="#fdb462" stroke="black" cx="87" cy="-104" rx="62.54" ry="18"/>
<text text-anchor="middle" x="87" y="-99.8" font-family="Times,serif" font-size="14.00">TasksService</text>
</g>
<!-- TasksService&#45;&gt;TasksModule -->
<g id="edge5" class="edge">
<title>TasksService&#45;&gt;TasksModule</title>
<path fill="none" stroke="black" d="M87,-122.11C87,-141.34 87,-169 87,-169 87,-169 226.55,-169 226.55,-169"/>
<polygon fill="black" stroke="black" points="226.55,-172.5 236.55,-169 226.55,-165.5 226.55,-172.5"/>
</g>
</g>
</svg>
