<?xml version="1.0" encoding="UTF-8" standalone="no"?>
<!DOCTYPE svg PUBLIC "-//W3C//DTD SVG 1.1//EN"
 "http://www.w3.org/Graphics/SVG/1.1/DTD/svg11.dtd">
<!-- Generated by graphviz version 2.47.0 (20210316.0004)
 -->
<!-- Title: dependencies Pages: 1 -->
<svg width="782pt" height="211pt"
 viewBox="0.00 0.00 782.00 211.00" xmlns="http://www.w3.org/2000/svg" xmlns:xlink="http://www.w3.org/1999/xlink">
<g id="graph0" class="graph" transform="scale(1 1) rotate(0) translate(4 207)">
<title>dependencies</title>
<polygon fill="white" stroke="transparent" points="-4,4 -4,-207 778,-207 778,4 -4,4"/>
<text text-anchor="start" x="366.01" y="-42.4" font-family="Times-12" font-weight="bold" font-size="14.00">Legend</text>
<polygon fill="#ffffb3" stroke="transparent" points="153,-10 153,-30 173,-30 173,-10 153,-10"/>
<text text-anchor="start" x="176.63" y="-15.4" font-family="Times-12" font-size="14.00"> &#160;Declarations</text>
<polygon fill="#8dd3c7" stroke="transparent" points="266,-10 266,-30 286,-30 286,-10 266,-10"/>
<text text-anchor="start" x="289.73" y="-15.4" font-family="Times-12" font-size="14.00"> &#160;Module</text>
<polygon fill="#80b1d3" stroke="transparent" points="352,-10 352,-30 372,-30 372,-10 352,-10"/>
<text text-anchor="start" x="375.78" y="-15.4" font-family="Times-12" font-size="14.00"> &#160;Bootstrap</text>
<polygon fill="#fdb462" stroke="transparent" points="449,-10 449,-30 469,-30 469,-10 449,-10"/>
<text text-anchor="start" x="472.67" y="-15.4" font-family="Times-12" font-size="14.00"> &#160;Providers</text>
<polygon fill="#fb8072" stroke="transparent" points="545,-10 545,-30 565,-30 565,-10 545,-10"/>
<text text-anchor="start" x="568.73" y="-15.4" font-family="Times-12" font-size="14.00"> &#160;Exports</text>
<g id="clust1" class="cluster">
<title>cluster_RoomsModule</title>
<polygon fill="none" stroke="black" stroke-dasharray="1,5" points="8,-70 8,-195 766,-195 766,-70 8,-70"/>
</g>
<g id="clust3" class="cluster">
<title>cluster_RoomsModule_imports</title>
<polygon fill="none" stroke="black" points="644,-78 644,-130 758,-130 758,-78 644,-78"/>
</g>
<g id="clust6" class="cluster">
<title>cluster_RoomsModule_providers</title>
<polygon fill="none" stroke="black" points="16,-78 16,-130 636,-130 636,-78 16,-78"/>
</g>
<!-- PrismaModule -->
<g id="node1" class="node">
<title>PrismaModule</title>
<polygon fill="#8dd3c7" stroke="black" points="750.43,-122 747.43,-126 726.43,-126 723.43,-122 651.57,-122 651.57,-86 750.43,-86 750.43,-122"/>
<text text-anchor="middle" x="701" y="-99.8" font-family="Times,serif" font-size="14.00">PrismaModule</text>
</g>
<!-- RoomsModule -->
<g id="node2" class="node">
<title>RoomsModule</title>
<polygon fill="#8dd3c7" stroke="black" points="447.72,-187 444.72,-191 423.72,-191 420.72,-187 348.28,-187 348.28,-151 447.72,-151 447.72,-187"/>
<text text-anchor="middle" x="398" y="-164.8" font-family="Times,serif" font-size="14.00">RoomsModule</text>
</g>
<!-- PrismaModule&#45;&gt;RoomsModule -->
<g id="edge1" class="edge">
<title>PrismaModule&#45;&gt;RoomsModule</title>
<path fill="none" stroke="black" d="M701,-122.28C701,-143.32 701,-175 701,-175 701,-175 457.69,-175 457.69,-175"/>
<polygon fill="black" stroke="black" points="457.7,-171.5 447.69,-175 457.69,-178.5 457.7,-171.5"/>
</g>
<!-- DbUtilsService -->
<g id="node3" class="node">
<title>DbUtilsService</title>
<ellipse fill="#fdb462" stroke="black" cx="557" cy="-104" rx="70.64" ry="18"/>
<text text-anchor="middle" x="557" y="-99.8" font-family="Times,serif" font-size="14.00">DbUtilsService</text>
</g>
<!-- DbUtilsService&#45;&gt;RoomsModule -->
<g id="edge2" class="edge">
<title>DbUtilsService&#45;&gt;RoomsModule</title>
<path fill="none" stroke="black" d="M557,-122.02C557,-139.37 557,-163 557,-163 557,-163 457.87,-163 457.87,-163"/>
<polygon fill="black" stroke="black" points="457.87,-159.5 447.87,-163 457.87,-166.5 457.87,-159.5"/>
</g>
<!-- DtoGenService -->
<g id="node4" class="node">
<title>DtoGenService</title>
<ellipse fill="#fdb462" stroke="black" cx="398" cy="-104" rx="70.62" ry="18"/>
<text text-anchor="middle" x="398" y="-99.8" font-family="Times,serif" font-size="14.00">DtoGenService</text>
</g>
<!-- DtoGenService&#45;&gt;RoomsModule -->
<g id="edge3" class="edge">
<title>DtoGenService&#45;&gt;RoomsModule</title>
<path fill="none" stroke="black" d="M398,-122.11C398,-122.11 398,-140.99 398,-140.99"/>
<polygon fill="black" stroke="black" points="394.5,-140.99 398,-150.99 401.5,-140.99 394.5,-140.99"/>
</g>
<!-- PrismaService -->
<g id="node5" class="node">
<title>PrismaService</title>
<ellipse fill="#fdb462" stroke="black" cx="243" cy="-104" rx="66.63" ry="18"/>
<text text-anchor="middle" x="243" y="-99.8" font-family="Times,serif" font-size="14.00">PrismaService</text>
</g>
<!-- PrismaService&#45;&gt;RoomsModule -->
<g id="edge4" class="edge">
<title>PrismaService&#45;&gt;RoomsModule</title>
<path fill="none" stroke="black" d="M243,-122.02C243,-139.37 243,-163 243,-163 243,-163 338.1,-163 338.1,-163"/>
<polygon fill="black" stroke="black" points="338.1,-166.5 348.1,-163 338.1,-159.5 338.1,-166.5"/>
</g>
<!-- RoomsService -->
<g id="node6" class="node">
<title>RoomsService</title>
<ellipse fill="#fdb462" stroke="black" cx="91" cy="-104" rx="67.21" ry="18"/>
<text text-anchor="middle" x="91" y="-99.8" font-family="Times,serif" font-size="14.00">RoomsService</text>
</g>
<!-- RoomsService&#45;&gt;RoomsModule -->
<g id="edge5" class="edge">
<title>RoomsService&#45;&gt;RoomsModule</title>
<path fill="none" stroke="black" d="M91,-122.28C91,-143.32 91,-175 91,-175 91,-175 338.33,-175 338.33,-175"/>
<polygon fill="black" stroke="black" points="338.33,-178.5 348.33,-175 338.33,-171.5 338.33,-178.5"/>
</g>
</g>
</svg>
