<?xml version="1.0" encoding="UTF-8" standalone="no"?>
<!DOCTYPE svg PUBLIC "-//W3C//DTD SVG 1.1//EN"
 "http://www.w3.org/Graphics/SVG/1.1/DTD/svg11.dtd">
<!-- Generated by graphviz version 2.47.0 (20210316.0004)
 -->
<!-- Title: dependencies Pages: 1 -->
<svg width="1461pt" height="284pt"
 viewBox="0.00 0.00 1461.00 284.00" xmlns="http://www.w3.org/2000/svg" xmlns:xlink="http://www.w3.org/1999/xlink">
<g id="graph0" class="graph" transform="scale(1 1) rotate(0) translate(4 280)">
<title>dependencies</title>
<polygon fill="white" stroke="transparent" points="-4,4 -4,-280 1457,-280 1457,4 -4,4"/>
<text text-anchor="start" x="705.51" y="-42.4" font-family="Times-12" font-weight="bold" font-size="14.00">Legend</text>
<polygon fill="#ffffb3" stroke="transparent" points="492.5,-10 492.5,-30 512.5,-30 512.5,-10 492.5,-10"/>
<text text-anchor="start" x="516.13" y="-15.4" font-family="Times-12" font-size="14.00"> &#160;Declarations</text>
<polygon fill="#8dd3c7" stroke="transparent" points="605.5,-10 605.5,-30 625.5,-30 625.5,-10 605.5,-10"/>
<text text-anchor="start" x="629.23" y="-15.4" font-family="Times-12" font-size="14.00"> &#160;Module</text>
<polygon fill="#80b1d3" stroke="transparent" points="691.5,-10 691.5,-30 711.5,-30 711.5,-10 691.5,-10"/>
<text text-anchor="start" x="715.28" y="-15.4" font-family="Times-12" font-size="14.00"> &#160;Bootstrap</text>
<polygon fill="#fdb462" stroke="transparent" points="788.5,-10 788.5,-30 808.5,-30 808.5,-10 788.5,-10"/>
<text text-anchor="start" x="812.17" y="-15.4" font-family="Times-12" font-size="14.00"> &#160;Providers</text>
<polygon fill="#fb8072" stroke="transparent" points="884.5,-10 884.5,-30 904.5,-30 904.5,-10 884.5,-10"/>
<text text-anchor="start" x="908.23" y="-15.4" font-family="Times-12" font-size="14.00"> &#160;Exports</text>
<g id="clust1" class="cluster">
<title>cluster_RoomsModule</title>
<polygon fill="none" stroke="black" stroke-dasharray="1,5" points="8,-70 8,-268 1445,-268 1445,-70 8,-70"/>
</g>
<g id="clust3" class="cluster">
<title>cluster_RoomsModule_imports</title>
<polygon fill="none" stroke="black" points="394,-78 394,-130 1437,-130 1437,-78 394,-78"/>
</g>
<g id="clust4" class="cluster">
<title>cluster_RoomsModule_exports</title>
<polygon fill="none" stroke="black" points="695,-208 695,-260 980,-260 980,-208 695,-208"/>
</g>
<g id="clust6" class="cluster">
<title>cluster_RoomsModule_providers</title>
<polygon fill="none" stroke="black" points="16,-78 16,-130 386,-130 386,-78 16,-78"/>
</g>
<!-- AuthModule -->
<g id="node1" class="node">
<title>AuthModule</title>
<polygon fill="#8dd3c7" stroke="black" points="1428.55,-122 1425.55,-126 1404.55,-126 1401.55,-122 1341.45,-122 1341.45,-86 1428.55,-86 1428.55,-122"/>
<text text-anchor="middle" x="1385" y="-99.8" font-family="Times,serif" font-size="14.00">AuthModule</text>
</g>
<!-- RoomsModule -->
<g id="node9" class="node">
<title>RoomsModule</title>
<polygon fill="#8dd3c7" stroke="black" points="874.72,-187 871.72,-191 850.72,-191 847.72,-187 775.28,-187 775.28,-151 874.72,-151 874.72,-187"/>
<text text-anchor="middle" x="825" y="-164.8" font-family="Times,serif" font-size="14.00">RoomsModule</text>
</g>
<!-- AuthModule&#45;&gt;RoomsModule -->
<g id="edge1" class="edge">
<title>AuthModule&#45;&gt;RoomsModule</title>
<path fill="none" stroke="black" d="M1385,-122.01C1385,-144.49 1385,-180 1385,-180 1385,-180 884.7,-180 884.7,-180"/>
<polygon fill="black" stroke="black" points="884.7,-176.5 874.7,-180 884.7,-183.5 884.7,-176.5"/>
</g>
<!-- DbUtilsModule -->
<g id="node2" class="node">
<title>DbUtilsModule</title>
<polygon fill="#8dd3c7" stroke="black" points="1322.88,-122 1319.88,-126 1298.88,-126 1295.88,-122 1219.12,-122 1219.12,-86 1322.88,-86 1322.88,-122"/>
<text text-anchor="middle" x="1271" y="-99.8" font-family="Times,serif" font-size="14.00">DbUtilsModule</text>
</g>
<!-- DbUtilsModule&#45;&gt;RoomsModule -->
<g id="edge2" class="edge">
<title>DbUtilsModule&#45;&gt;RoomsModule</title>
<path fill="none" stroke="black" d="M1271,-122.13C1271,-142.57 1271,-173 1271,-173 1271,-173 884.86,-173 884.86,-173"/>
<polygon fill="black" stroke="black" points="884.86,-169.5 874.86,-173 884.86,-176.5 884.86,-169.5"/>
</g>
<!-- DmUsersModule -->
<g id="node3" class="node">
<title>DmUsersModule</title>
<polygon fill="#8dd3c7" stroke="black" points="1201.42,-122 1198.42,-126 1177.42,-126 1174.42,-122 1088.58,-122 1088.58,-86 1201.42,-86 1201.42,-122"/>
<text text-anchor="middle" x="1145" y="-99.8" font-family="Times,serif" font-size="14.00">DmUsersModule</text>
</g>
<!-- DmUsersModule&#45;&gt;RoomsModule -->
<g id="edge3" class="edge">
<title>DmUsersModule&#45;&gt;RoomsModule</title>
<path fill="none" stroke="black" d="M1145,-122.27C1145,-140.56 1145,-166 1145,-166 1145,-166 884.65,-166 884.65,-166"/>
<polygon fill="black" stroke="black" points="884.65,-162.5 874.65,-166 884.65,-169.5 884.65,-162.5"/>
</g>
<!-- DtoGenModule -->
<g id="node4" class="node">
<title>DtoGenModule</title>
<polygon fill="#8dd3c7" stroke="black" points="1070.87,-122 1067.87,-126 1046.87,-126 1043.87,-122 967.13,-122 967.13,-86 1070.87,-86 1070.87,-122"/>
<text text-anchor="middle" x="1019" y="-99.8" font-family="Times,serif" font-size="14.00">DtoGenModule</text>
</g>
<!-- DtoGenModule&#45;&gt;RoomsModule -->
<g id="edge4" class="edge">
<title>DtoGenModule&#45;&gt;RoomsModule</title>
<path fill="none" stroke="black" d="M1021.31,-122.01C1021.31,-138.05 1021.31,-159 1021.31,-159 1021.31,-159 884.79,-159 884.79,-159"/>
<polygon fill="black" stroke="black" points="884.79,-155.5 874.79,-159 884.79,-162.5 884.79,-155.5"/>
</g>
<!-- PrismaModule -->
<g id="node5" class="node">
<title>PrismaModule</title>
<polygon fill="#8dd3c7" stroke="black" points="949.43,-122 946.43,-126 925.43,-126 922.43,-122 850.57,-122 850.57,-86 949.43,-86 949.43,-122"/>
<text text-anchor="middle" x="900" y="-99.8" font-family="Times,serif" font-size="14.00">PrismaModule</text>
</g>
<!-- PrismaModule&#45;&gt;RoomsModule -->
<g id="edge5" class="edge">
<title>PrismaModule&#45;&gt;RoomsModule</title>
<path fill="none" stroke="black" d="M862.7,-122.11C862.7,-122.11 862.7,-140.99 862.7,-140.99"/>
<polygon fill="black" stroke="black" points="859.2,-140.99 862.7,-150.99 866.2,-140.99 859.2,-140.99"/>
</g>
<!-- RecommendationsModule -->
<g id="node6" class="node">
<title>RecommendationsModule</title>
<polygon fill="#8dd3c7" stroke="black" points="832.75,-122 829.75,-126 808.75,-126 805.75,-122 669.25,-122 669.25,-86 832.75,-86 832.75,-122"/>
<text text-anchor="middle" x="751" y="-99.8" font-family="Times,serif" font-size="14.00">RecommendationsModule</text>
</g>
<!-- RecommendationsModule&#45;&gt;RoomsModule -->
<g id="edge6" class="edge">
<title>RecommendationsModule&#45;&gt;RoomsModule</title>
<path fill="none" stroke="black" d="M804.13,-122.11C804.13,-122.11 804.13,-140.99 804.13,-140.99"/>
<polygon fill="black" stroke="black" points="800.63,-140.99 804.13,-150.99 807.63,-140.99 800.63,-140.99"/>
</g>
<!-- RoomQueueModule -->
<g id="node7" class="node">
<title>RoomQueueModule</title>
<polygon fill="#8dd3c7" stroke="black" points="651.31,-122 648.31,-126 627.31,-126 624.31,-122 520.69,-122 520.69,-86 651.31,-86 651.31,-122"/>
<text text-anchor="middle" x="586" y="-99.8" font-family="Times,serif" font-size="14.00">RoomQueueModule</text>
</g>
<!-- RoomQueueModule&#45;&gt;RoomsModule -->
<g id="edge7" class="edge">
<title>RoomQueueModule&#45;&gt;RoomsModule</title>
<path fill="none" stroke="black" d="M586,-122.01C586,-138.05 586,-159 586,-159 586,-159 765.19,-159 765.19,-159"/>
<polygon fill="black" stroke="black" points="765.19,-162.5 775.19,-159 765.19,-155.5 765.19,-162.5"/>
</g>
<!-- SpotifyModule -->
<g id="node8" class="node">
<title>SpotifyModule</title>
<polygon fill="#8dd3c7" stroke="black" points="502.27,-122 499.27,-126 478.27,-126 475.27,-122 401.73,-122 401.73,-86 502.27,-86 502.27,-122"/>
<text text-anchor="middle" x="452" y="-99.8" font-family="Times,serif" font-size="14.00">SpotifyModule</text>
</g>
<!-- SpotifyModule&#45;&gt;RoomsModule -->
<g id="edge8" class="edge">
<title>SpotifyModule&#45;&gt;RoomsModule</title>
<path fill="none" stroke="black" d="M452,-122.27C452,-140.56 452,-166 452,-166 452,-166 765.08,-166 765.08,-166"/>
<polygon fill="black" stroke="black" points="765.08,-169.5 775.08,-166 765.08,-162.5 765.08,-169.5"/>
</g>
<!-- RoomAnalyticsService  -->
<g id="node10" class="node">
<title>RoomAnalyticsService </title>
<polygon fill="#fb8072" stroke="black" points="971.86,-252 822.14,-252 822.14,-216 971.86,-216 971.86,-252"/>
<text text-anchor="middle" x="897" y="-229.8" font-family="Times,serif" font-size="14.00">RoomAnalyticsService </text>
</g>
<!-- RoomsModule&#45;&gt;RoomAnalyticsService  -->
<g id="edge9" class="edge">
<title>RoomsModule&#45;&gt;RoomAnalyticsService </title>
<path fill="none" stroke="black" stroke-dasharray="5,2" d="M848.47,-187.11C848.47,-187.11 848.47,-205.99 848.47,-205.99"/>
<polygon fill="black" stroke="black" points="844.97,-205.99 848.47,-215.99 851.97,-205.99 844.97,-205.99"/>
</g>
<!-- RoomsService  -->
<g id="node11" class="node">
<title>RoomsService </title>
<polygon fill="#fb8072" stroke="black" points="804.65,-252 703.35,-252 703.35,-216 804.65,-216 804.65,-252"/>
<text text-anchor="middle" x="754" y="-229.8" font-family="Times,serif" font-size="14.00">RoomsService </text>
</g>
<!-- RoomsModule&#45;&gt;RoomsService  -->
<g id="edge10" class="edge">
<title>RoomsModule&#45;&gt;RoomsService </title>
<path fill="none" stroke="black" stroke-dasharray="5,2" d="M789.98,-187.11C789.98,-187.11 789.98,-205.99 789.98,-205.99"/>
<polygon fill="black" stroke="black" points="786.48,-205.99 789.98,-215.99 793.48,-205.99 786.48,-205.99"/>
</g>
<!-- RoomAnalyticsService -->
<g id="node12" class="node">
<title>RoomAnalyticsService</title>
<ellipse fill="#fdb462" stroke="black" cx="277" cy="-104" rx="100.72" ry="18"/>
<text text-anchor="middle" x="277" y="-99.8" font-family="Times,serif" font-size="14.00">RoomAnalyticsService</text>
</g>
<!-- RoomAnalyticsService&#45;&gt;RoomsModule -->
<g id="edge11" class="edge">
<title>RoomAnalyticsService&#45;&gt;RoomsModule</title>
<path fill="none" stroke="black" d="M277,-122.13C277,-142.57 277,-173 277,-173 277,-173 764.92,-173 764.92,-173"/>
<polygon fill="black" stroke="black" points="764.92,-176.5 774.92,-173 764.92,-169.5 764.92,-176.5"/>
</g>
<!-- RoomsService -->
<g id="node13" class="node">
<title>RoomsService</title>
<ellipse fill="#fdb462" stroke="black" cx="91" cy="-104" rx="67.21" ry="18"/>
<text text-anchor="middle" x="91" y="-99.8" font-family="Times,serif" font-size="14.00">RoomsService</text>
</g>
<!-- RoomsService&#45;&gt;RoomsModule -->
<g id="edge12" class="edge">
<title>RoomsService&#45;&gt;RoomsModule</title>
<path fill="none" stroke="black" d="M91,-122.01C91,-144.49 91,-180 91,-180 91,-180 765.13,-180 765.13,-180"/>
<polygon fill="black" stroke="black" points="765.13,-183.5 775.13,-180 765.13,-176.5 765.13,-183.5"/>
</g>
</g>
</svg>
