<?xml version="1.0" encoding="UTF-8" standalone="no"?>
<!DOCTYPE svg PUBLIC "-//W3C//DTD SVG 1.1//EN"
 "http://www.w3.org/Graphics/SVG/1.1/DTD/svg11.dtd">
<!-- Generated by graphviz version 2.47.0 (20210316.0004)
 -->
<!-- Title: dependencies Pages: 1 -->
<svg width="918pt" height="211pt"
 viewBox="0.00 0.00 918.00 211.00" xmlns="http://www.w3.org/2000/svg" xmlns:xlink="http://www.w3.org/1999/xlink">
<g id="graph0" class="graph" transform="scale(1 1) rotate(0) translate(4 207)">
<title>dependencies</title>
<polygon fill="white" stroke="transparent" points="-4,4 -4,-207 914,-207 914,4 -4,4"/>
<text text-anchor="start" x="434.01" y="-42.4" font-family="Times-12" font-weight="bold" font-size="14.00">Legend</text>
<polygon fill="#ffffb3" stroke="transparent" points="221,-10 221,-30 241,-30 241,-10 221,-10"/>
<text text-anchor="start" x="244.63" y="-15.4" font-family="Times-12" font-size="14.00"> &#160;Declarations</text>
<polygon fill="#8dd3c7" stroke="transparent" points="334,-10 334,-30 354,-30 354,-10 334,-10"/>
<text text-anchor="start" x="357.73" y="-15.4" font-family="Times-12" font-size="14.00"> &#160;Module</text>
<polygon fill="#80b1d3" stroke="transparent" points="420,-10 420,-30 440,-30 440,-10 420,-10"/>
<text text-anchor="start" x="443.78" y="-15.4" font-family="Times-12" font-size="14.00"> &#160;Bootstrap</text>
<polygon fill="#fdb462" stroke="transparent" points="517,-10 517,-30 537,-30 537,-10 517,-10"/>
<text text-anchor="start" x="540.67" y="-15.4" font-family="Times-12" font-size="14.00"> &#160;Providers</text>
<polygon fill="#fb8072" stroke="transparent" points="613,-10 613,-30 633,-30 633,-10 613,-10"/>
<text text-anchor="start" x="636.73" y="-15.4" font-family="Times-12" font-size="14.00"> &#160;Exports</text>
<g id="clust1" class="cluster">
<title>cluster_RoomsModule</title>
<polygon fill="none" stroke="black" stroke-dasharray="1,5" points="8,-70 8,-195 902,-195 902,-70 8,-70"/>
</g>
<g id="clust3" class="cluster">
<title>cluster_RoomsModule_imports</title>
<polygon fill="none" stroke="black" points="780,-78 780,-130 894,-130 894,-78 780,-78"/>
</g>
<g id="clust6" class="cluster">
<title>cluster_RoomsModule_providers</title>
<polygon fill="none" stroke="black" points="16,-78 16,-130 772,-130 772,-78 16,-78"/>
</g>
<!-- PrismaModule -->
<g id="node1" class="node">
<title>PrismaModule</title>
<polygon fill="#8dd3c7" stroke="black" points="886.43,-122 883.43,-126 862.43,-126 859.43,-122 787.57,-122 787.57,-86 886.43,-86 886.43,-122"/>
<text text-anchor="middle" x="837" y="-99.8" font-family="Times,serif" font-size="14.00">PrismaModule</text>
</g>
<!-- RoomsModule -->
<g id="node2" class="node">
<title>RoomsModule</title>
<polygon fill="#8dd3c7" stroke="black" points="526.72,-187 523.72,-191 502.72,-191 499.72,-187 427.28,-187 427.28,-151 526.72,-151 526.72,-187"/>
<text text-anchor="middle" x="477" y="-164.8" font-family="Times,serif" font-size="14.00">RoomsModule</text>
</g>
<!-- PrismaModule&#45;&gt;RoomsModule -->
<g id="edge1" class="edge">
<title>PrismaModule&#45;&gt;RoomsModule</title>
<path fill="none" stroke="black" d="M837,-122.28C837,-143.32 837,-175 837,-175 837,-175 536.68,-175 536.68,-175"/>
<polygon fill="black" stroke="black" points="536.68,-171.5 526.68,-175 536.68,-178.5 536.68,-171.5"/>
</g>
<!-- AuthService -->
<g id="node3" class="node">
<title>AuthService</title>
<ellipse fill="#fdb462" stroke="black" cx="705" cy="-104" rx="59.11" ry="18"/>
<text text-anchor="middle" x="705" y="-99.8" font-family="Times,serif" font-size="14.00">AuthService</text>
</g>
<!-- AuthService&#45;&gt;RoomsModule -->
<g id="edge2" class="edge">
<title>AuthService&#45;&gt;RoomsModule</title>
<path fill="none" stroke="black" d="M705,-122.02C705,-139.37 705,-163 705,-163 705,-163 536.75,-163 536.75,-163"/>
<polygon fill="black" stroke="black" points="536.75,-159.5 526.75,-163 536.75,-166.5 536.75,-159.5"/>
</g>
<!-- DbUtilsService -->
<g id="node4" class="node">
<title>DbUtilsService</title>
<ellipse fill="#fdb462" stroke="black" cx="557" cy="-104" rx="70.64" ry="18"/>
<text text-anchor="middle" x="557" y="-99.8" font-family="Times,serif" font-size="14.00">DbUtilsService</text>
</g>
<!-- DbUtilsService&#45;&gt;RoomsModule -->
<g id="edge3" class="edge">
<title>DbUtilsService&#45;&gt;RoomsModule</title>
<path fill="none" stroke="black" d="M506.52,-116.84C506.52,-116.84 506.52,-140.52 506.52,-140.52"/>
<polygon fill="black" stroke="black" points="503.02,-140.52 506.52,-150.52 510.02,-140.52 503.02,-140.52"/>
</g>
<!-- DtoGenService -->
<g id="node5" class="node">
<title>DtoGenService</title>
<ellipse fill="#fdb462" stroke="black" cx="398" cy="-104" rx="70.62" ry="18"/>
<text text-anchor="middle" x="398" y="-99.8" font-family="Times,serif" font-size="14.00">DtoGenService</text>
</g>
<!-- DtoGenService&#45;&gt;RoomsModule -->
<g id="edge4" class="edge">
<title>DtoGenService&#45;&gt;RoomsModule</title>
<path fill="none" stroke="black" d="M447.98,-116.84C447.98,-116.84 447.98,-140.52 447.98,-140.52"/>
<polygon fill="black" stroke="black" points="444.48,-140.52 447.98,-150.52 451.48,-140.52 444.48,-140.52"/>
</g>
<!-- PrismaService -->
<g id="node6" class="node">
<title>PrismaService</title>
<ellipse fill="#fdb462" stroke="black" cx="243" cy="-104" rx="66.63" ry="18"/>
<text text-anchor="middle" x="243" y="-99.8" font-family="Times,serif" font-size="14.00">PrismaService</text>
</g>
<!-- PrismaService&#45;&gt;RoomsModule -->
<g id="edge5" class="edge">
<title>PrismaService&#45;&gt;RoomsModule</title>
<path fill="none" stroke="black" d="M243,-122.02C243,-139.37 243,-163 243,-163 243,-163 417.37,-163 417.37,-163"/>
<polygon fill="black" stroke="black" points="417.37,-166.5 427.37,-163 417.37,-159.5 417.37,-166.5"/>
</g>
<!-- RoomsService -->
<g id="node7" class="node">
<title>RoomsService</title>
<ellipse fill="#fdb462" stroke="black" cx="91" cy="-104" rx="67.21" ry="18"/>
<text text-anchor="middle" x="91" y="-99.8" font-family="Times,serif" font-size="14.00">RoomsService</text>
</g>
<!-- RoomsService&#45;&gt;RoomsModule -->
<g id="edge6" class="edge">
<title>RoomsService&#45;&gt;RoomsModule</title>
<path fill="none" stroke="black" d="M91,-122.28C91,-143.32 91,-175 91,-175 91,-175 417.33,-175 417.33,-175"/>
<polygon fill="black" stroke="black" points="417.33,-178.5 427.33,-175 417.33,-171.5 417.33,-178.5"/>
</g>
</g>
</svg>
