<?xml version="1.0" encoding="UTF-8" standalone="no"?>
<!DOCTYPE svg PUBLIC "-//W3C//DTD SVG 1.1//EN"
 "http://www.w3.org/Graphics/SVG/1.1/DTD/svg11.dtd">
<!-- Generated by graphviz version 2.47.0 (20210316.0004)
 -->
<!-- Title: dependencies Pages: 1 -->
<svg width="586pt" height="284pt"
 viewBox="0.00 0.00 586.00 284.00" xmlns="http://www.w3.org/2000/svg" xmlns:xlink="http://www.w3.org/1999/xlink">
<g id="graph0" class="graph" transform="scale(1 1) rotate(0) translate(4 280)">
<title>dependencies</title>
<polygon fill="white" stroke="transparent" points="-4,4 -4,-280 582,-280 582,4 -4,4"/>
<text text-anchor="start" x="268.01" y="-42.4" font-family="Times-12" font-weight="bold" font-size="14.00">Legend</text>
<polygon fill="#ffffb3" stroke="transparent" points="55,-10 55,-30 75,-30 75,-10 55,-10"/>
<text text-anchor="start" x="78.63" y="-15.4" font-family="Times-12" font-size="14.00"> &#160;Declarations</text>
<polygon fill="#8dd3c7" stroke="transparent" points="168,-10 168,-30 188,-30 188,-10 168,-10"/>
<text text-anchor="start" x="191.73" y="-15.4" font-family="Times-12" font-size="14.00"> &#160;Module</text>
<polygon fill="#80b1d3" stroke="transparent" points="254,-10 254,-30 274,-30 274,-10 254,-10"/>
<text text-anchor="start" x="277.78" y="-15.4" font-family="Times-12" font-size="14.00"> &#160;Bootstrap</text>
<polygon fill="#fdb462" stroke="transparent" points="351,-10 351,-30 371,-30 371,-10 351,-10"/>
<text text-anchor="start" x="374.67" y="-15.4" font-family="Times-12" font-size="14.00"> &#160;Providers</text>
<polygon fill="#fb8072" stroke="transparent" points="447,-10 447,-30 467,-30 467,-10 447,-10"/>
<text text-anchor="start" x="470.73" y="-15.4" font-family="Times-12" font-size="14.00"> &#160;Exports</text>
<g id="clust1" class="cluster">
<title>cluster_SpotifyAuthModule</title>
<polygon fill="none" stroke="black" stroke-dasharray="1,5" points="8,-70 8,-268 570,-268 570,-70 8,-70"/>
</g>
<g id="clust6" class="cluster">
<title>cluster_SpotifyAuthModule_providers</title>
<polygon fill="none" stroke="black" points="370,-78 370,-130 562,-130 562,-78 370,-78"/>
</g>
<g id="clust3" class="cluster">
<title>cluster_SpotifyAuthModule_imports</title>
<polygon fill="none" stroke="black" points="16,-78 16,-130 362,-130 362,-78 16,-78"/>
</g>
<g id="clust4" class="cluster">
<title>cluster_SpotifyAuthModule_exports</title>
<polygon fill="none" stroke="black" points="169,-208 169,-260 315,-260 315,-208 169,-208"/>
</g>
<!-- DbUtilsModule -->
<g id="node1" class="node">
<title>DbUtilsModule</title>
<polygon fill="#8dd3c7" stroke="black" points="353.88,-122 350.88,-126 329.88,-126 326.88,-122 250.12,-122 250.12,-86 353.88,-86 353.88,-122"/>
<text text-anchor="middle" x="302" y="-99.8" font-family="Times,serif" font-size="14.00">DbUtilsModule</text>
</g>
<!-- SpotifyAuthModule -->
<g id="node4" class="node">
<title>SpotifyAuthModule</title>
<polygon fill="#8dd3c7" stroke="black" points="306.27,-187 303.27,-191 282.27,-191 279.27,-187 177.73,-187 177.73,-151 306.27,-151 306.27,-187"/>
<text text-anchor="middle" x="242" y="-164.8" font-family="Times,serif" font-size="14.00">SpotifyAuthModule</text>
</g>
<!-- DbUtilsModule&#45;&gt;SpotifyAuthModule -->
<g id="edge1" class="edge">
<title>DbUtilsModule&#45;&gt;SpotifyAuthModule</title>
<path fill="none" stroke="black" d="M278.22,-122.11C278.22,-122.11 278.22,-140.99 278.22,-140.99"/>
<polygon fill="black" stroke="black" points="274.72,-140.99 278.22,-150.99 281.72,-140.99 274.72,-140.99"/>
</g>
<!-- PrismaModule -->
<g id="node2" class="node">
<title>PrismaModule</title>
<polygon fill="#8dd3c7" stroke="black" points="232.43,-122 229.43,-126 208.43,-126 205.43,-122 133.57,-122 133.57,-86 232.43,-86 232.43,-122"/>
<text text-anchor="middle" x="183" y="-99.8" font-family="Times,serif" font-size="14.00">PrismaModule</text>
</g>
<!-- PrismaModule&#45;&gt;SpotifyAuthModule -->
<g id="edge2" class="edge">
<title>PrismaModule&#45;&gt;SpotifyAuthModule</title>
<path fill="none" stroke="black" d="M204.92,-122.11C204.92,-122.11 204.92,-140.99 204.92,-140.99"/>
<polygon fill="black" stroke="black" points="201.42,-140.99 204.92,-150.99 208.42,-140.99 201.42,-140.99"/>
</g>
<!-- TasksModule -->
<g id="node3" class="node">
<title>TasksModule</title>
<polygon fill="#8dd3c7" stroke="black" points="116.21,-122 113.21,-126 92.21,-126 89.21,-122 23.79,-122 23.79,-86 116.21,-86 116.21,-122"/>
<text text-anchor="middle" x="70" y="-99.8" font-family="Times,serif" font-size="14.00">TasksModule</text>
</g>
<!-- TasksModule&#45;&gt;SpotifyAuthModule -->
<g id="edge3" class="edge">
<title>TasksModule&#45;&gt;SpotifyAuthModule</title>
<path fill="none" stroke="black" d="M70,-122.11C70,-141.34 70,-169 70,-169 70,-169 167.46,-169 167.46,-169"/>
<polygon fill="black" stroke="black" points="167.46,-172.5 177.46,-169 167.46,-165.5 167.46,-172.5"/>
</g>
<!-- SpotifyAuthService  -->
<g id="node5" class="node">
<title>SpotifyAuthService </title>
<polygon fill="#fb8072" stroke="black" points="307.2,-252 176.8,-252 176.8,-216 307.2,-216 307.2,-252"/>
<text text-anchor="middle" x="242" y="-229.8" font-family="Times,serif" font-size="14.00">SpotifyAuthService </text>
</g>
<!-- SpotifyAuthModule&#45;&gt;SpotifyAuthService  -->
<g id="edge4" class="edge">
<title>SpotifyAuthModule&#45;&gt;SpotifyAuthService </title>
<path fill="none" stroke="black" stroke-dasharray="5,2" d="M242,-187.11C242,-187.11 242,-205.99 242,-205.99"/>
<polygon fill="black" stroke="black" points="238.5,-205.99 242,-215.99 245.5,-205.99 238.5,-205.99"/>
</g>
<!-- SpotifyAuthService -->
<g id="node6" class="node">
<title>SpotifyAuthService</title>
<ellipse fill="#fdb462" stroke="black" cx="466" cy="-104" rx="87.98" ry="18"/>
<text text-anchor="middle" x="466" y="-99.8" font-family="Times,serif" font-size="14.00">SpotifyAuthService</text>
</g>
<!-- SpotifyAuthService&#45;&gt;SpotifyAuthModule -->
<g id="edge5" class="edge">
<title>SpotifyAuthService&#45;&gt;SpotifyAuthModule</title>
<path fill="none" stroke="black" d="M466,-122.11C466,-141.34 466,-169 466,-169 466,-169 316.49,-169 316.49,-169"/>
<polygon fill="black" stroke="black" points="316.49,-165.5 306.49,-169 316.49,-172.5 316.49,-165.5"/>
</g>
</g>
</svg>
