<?xml version="1.0" encoding="UTF-8" standalone="no"?>
<!DOCTYPE svg PUBLIC "-//W3C//DTD SVG 1.1//EN"
 "http://www.w3.org/Graphics/SVG/1.1/DTD/svg11.dtd">
<!-- Generated by graphviz version 2.47.0 (20210316.0004)
 -->
<!-- Title: dependencies Pages: 1 -->
<svg width="834pt" height="284pt"
 viewBox="0.00 0.00 834.00 284.00" xmlns="http://www.w3.org/2000/svg" xmlns:xlink="http://www.w3.org/1999/xlink">
<g id="graph0" class="graph" transform="scale(1 1) rotate(0) translate(4 280)">
<title>dependencies</title>
<polygon fill="white" stroke="transparent" points="-4,4 -4,-280 830,-280 830,4 -4,4"/>
<text text-anchor="start" x="392.01" y="-42.4" font-family="Times-12" font-weight="bold" font-size="14.00">Legend</text>
<polygon fill="#ffffb3" stroke="transparent" points="179,-10 179,-30 199,-30 199,-10 179,-10"/>
<text text-anchor="start" x="202.63" y="-15.4" font-family="Times-12" font-size="14.00"> &#160;Declarations</text>
<polygon fill="#8dd3c7" stroke="transparent" points="292,-10 292,-30 312,-30 312,-10 292,-10"/>
<text text-anchor="start" x="315.73" y="-15.4" font-family="Times-12" font-size="14.00"> &#160;Module</text>
<polygon fill="#80b1d3" stroke="transparent" points="378,-10 378,-30 398,-30 398,-10 378,-10"/>
<text text-anchor="start" x="401.78" y="-15.4" font-family="Times-12" font-size="14.00"> &#160;Bootstrap</text>
<polygon fill="#fdb462" stroke="transparent" points="475,-10 475,-30 495,-30 495,-10 475,-10"/>
<text text-anchor="start" x="498.67" y="-15.4" font-family="Times-12" font-size="14.00"> &#160;Providers</text>
<polygon fill="#fb8072" stroke="transparent" points="571,-10 571,-30 591,-30 591,-10 571,-10"/>
<text text-anchor="start" x="594.73" y="-15.4" font-family="Times-12" font-size="14.00"> &#160;Exports</text>
<g id="clust1" class="cluster">
<title>cluster_UsersModule</title>
<polygon fill="none" stroke="black" stroke-dasharray="1,5" points="8,-70 8,-268 818,-268 818,-70 8,-70"/>
</g>
<g id="clust6" class="cluster">
<title>cluster_UsersModule_providers</title>
<polygon fill="none" stroke="black" points="670,-78 670,-130 810,-130 810,-78 670,-78"/>
</g>
<g id="clust4" class="cluster">
<title>cluster_UsersModule_exports</title>
<polygon fill="none" stroke="black" points="380,-208 380,-260 490,-260 490,-208 380,-208"/>
</g>
<g id="clust3" class="cluster">
<title>cluster_UsersModule_imports</title>
<polygon fill="none" stroke="black" points="16,-78 16,-130 662,-130 662,-78 16,-78"/>
</g>
<!-- AuthModule -->
<g id="node1" class="node">
<title>AuthModule</title>
<polygon fill="#8dd3c7" stroke="black" points="653.55,-122 650.55,-126 629.55,-126 626.55,-122 566.45,-122 566.45,-86 653.55,-86 653.55,-122"/>
<text text-anchor="middle" x="610" y="-99.8" font-family="Times,serif" font-size="14.00">AuthModule</text>
</g>
<!-- UsersModule -->
<g id="node6" class="node">
<title>UsersModule</title>
<polygon fill="#8dd3c7" stroke="black" points="480.92,-187 477.92,-191 456.92,-191 453.92,-187 389.08,-187 389.08,-151 480.92,-151 480.92,-187"/>
<text text-anchor="middle" x="435" y="-164.8" font-family="Times,serif" font-size="14.00">UsersModule</text>
</g>
<!-- AuthModule&#45;&gt;UsersModule -->
<g id="edge1" class="edge">
<title>AuthModule&#45;&gt;UsersModule</title>
<path fill="none" stroke="black" d="M610,-122.02C610,-139.37 610,-163 610,-163 610,-163 490.98,-163 490.98,-163"/>
<polygon fill="black" stroke="black" points="490.98,-159.5 480.98,-163 490.98,-166.5 490.98,-159.5"/>
</g>
<!-- DbUtilsModule -->
<g id="node2" class="node">
<title>DbUtilsModule</title>
<polygon fill="#8dd3c7" stroke="black" points="547.88,-122 544.88,-126 523.88,-126 520.88,-122 444.12,-122 444.12,-86 547.88,-86 547.88,-122"/>
<text text-anchor="middle" x="496" y="-99.8" font-family="Times,serif" font-size="14.00">DbUtilsModule</text>
</g>
<!-- DbUtilsModule&#45;&gt;UsersModule -->
<g id="edge2" class="edge">
<title>DbUtilsModule&#45;&gt;UsersModule</title>
<path fill="none" stroke="black" d="M462.39,-122.11C462.39,-122.11 462.39,-140.99 462.39,-140.99"/>
<polygon fill="black" stroke="black" points="458.89,-140.99 462.39,-150.99 465.89,-140.99 458.89,-140.99"/>
</g>
<!-- DtoGenModule -->
<g id="node3" class="node">
<title>DtoGenModule</title>
<polygon fill="#8dd3c7" stroke="black" points="425.87,-122 422.87,-126 401.87,-126 398.87,-122 322.13,-122 322.13,-86 425.87,-86 425.87,-122"/>
<text text-anchor="middle" x="374" y="-99.8" font-family="Times,serif" font-size="14.00">DtoGenModule</text>
</g>
<!-- DtoGenModule&#45;&gt;UsersModule -->
<g id="edge3" class="edge">
<title>DtoGenModule&#45;&gt;UsersModule</title>
<path fill="none" stroke="black" d="M407.61,-122.11C407.61,-122.11 407.61,-140.99 407.61,-140.99"/>
<polygon fill="black" stroke="black" points="404.11,-140.99 407.61,-150.99 411.11,-140.99 404.11,-140.99"/>
</g>
<!-- PrismaModule -->
<g id="node4" class="node">
<title>PrismaModule</title>
<polygon fill="#8dd3c7" stroke="black" points="304.43,-122 301.43,-126 280.43,-126 277.43,-122 205.57,-122 205.57,-86 304.43,-86 304.43,-122"/>
<text text-anchor="middle" x="255" y="-99.8" font-family="Times,serif" font-size="14.00">PrismaModule</text>
</g>
<!-- PrismaModule&#45;&gt;UsersModule -->
<g id="edge4" class="edge">
<title>PrismaModule&#45;&gt;UsersModule</title>
<path fill="none" stroke="black" d="M255,-122.02C255,-139.37 255,-163 255,-163 255,-163 379.11,-163 379.11,-163"/>
<polygon fill="black" stroke="black" points="379.11,-166.5 389.11,-163 379.11,-159.5 379.11,-166.5"/>
</g>
<!-- RecommendationsModule -->
<g id="node5" class="node">
<title>RecommendationsModule</title>
<polygon fill="#8dd3c7" stroke="black" points="187.75,-122 184.75,-126 163.75,-126 160.75,-122 24.25,-122 24.25,-86 187.75,-86 187.75,-122"/>
<text text-anchor="middle" x="106" y="-99.8" font-family="Times,serif" font-size="14.00">RecommendationsModule</text>
</g>
<!-- RecommendationsModule&#45;&gt;UsersModule -->
<g id="edge5" class="edge">
<title>RecommendationsModule&#45;&gt;UsersModule</title>
<path fill="none" stroke="black" d="M106,-122.28C106,-143.32 106,-175 106,-175 106,-175 379.25,-175 379.25,-175"/>
<polygon fill="black" stroke="black" points="379.25,-178.5 389.25,-175 379.25,-171.5 379.25,-178.5"/>
</g>
<!-- UsersService  -->
<g id="node7" class="node">
<title>UsersService </title>
<polygon fill="#fb8072" stroke="black" points="481.85,-252 388.15,-252 388.15,-216 481.85,-216 481.85,-252"/>
<text text-anchor="middle" x="435" y="-229.8" font-family="Times,serif" font-size="14.00">UsersService </text>
</g>
<!-- UsersModule&#45;&gt;UsersService  -->
<g id="edge6" class="edge">
<title>UsersModule&#45;&gt;UsersService </title>
<path fill="none" stroke="black" stroke-dasharray="5,2" d="M435,-187.11C435,-187.11 435,-205.99 435,-205.99"/>
<polygon fill="black" stroke="black" points="431.5,-205.99 435,-215.99 438.5,-205.99 431.5,-205.99"/>
</g>
<!-- UsersService -->
<g id="node8" class="node">
<title>UsersService</title>
<ellipse fill="#fdb462" stroke="black" cx="740" cy="-104" rx="61.95" ry="18"/>
<text text-anchor="middle" x="740" y="-99.8" font-family="Times,serif" font-size="14.00">UsersService</text>
</g>
<!-- UsersService&#45;&gt;UsersModule -->
<g id="edge7" class="edge">
<title>UsersService&#45;&gt;UsersModule</title>
<path fill="none" stroke="black" d="M740,-122.28C740,-143.32 740,-175 740,-175 740,-175 490.99,-175 490.99,-175"/>
<polygon fill="black" stroke="black" points="490.99,-171.5 480.99,-175 490.99,-178.5 490.99,-171.5"/>
</g>
</g>
</svg>
