<?xml version="1.0" encoding="UTF-8" standalone="no"?>
<!DOCTYPE svg PUBLIC "-//W3C//DTD SVG 1.1//EN"
 "http://www.w3.org/Graphics/SVG/1.1/DTD/svg11.dtd">
<!-- Generated by graphviz version 2.47.0 (20210316.0004)
 -->
<!-- Title: dependencies Pages: 1 -->
<svg width="908pt" height="211pt"
 viewBox="0.00 0.00 908.00 211.00" xmlns="http://www.w3.org/2000/svg" xmlns:xlink="http://www.w3.org/1999/xlink">
<g id="graph0" class="graph" transform="scale(1 1) rotate(0) translate(4 207)">
<title>dependencies</title>
<polygon fill="white" stroke="transparent" points="-4,4 -4,-207 904,-207 904,4 -4,4"/>
<text text-anchor="start" x="429.01" y="-42.4" font-family="Times-12" font-weight="bold" font-size="14.00">Legend</text>
<polygon fill="#ffffb3" stroke="transparent" points="216,-10 216,-30 236,-30 236,-10 216,-10"/>
<text text-anchor="start" x="239.63" y="-15.4" font-family="Times-12" font-size="14.00"> &#160;Declarations</text>
<polygon fill="#8dd3c7" stroke="transparent" points="329,-10 329,-30 349,-30 349,-10 329,-10"/>
<text text-anchor="start" x="352.73" y="-15.4" font-family="Times-12" font-size="14.00"> &#160;Module</text>
<polygon fill="#80b1d3" stroke="transparent" points="415,-10 415,-30 435,-30 435,-10 415,-10"/>
<text text-anchor="start" x="438.78" y="-15.4" font-family="Times-12" font-size="14.00"> &#160;Bootstrap</text>
<polygon fill="#fdb462" stroke="transparent" points="512,-10 512,-30 532,-30 532,-10 512,-10"/>
<text text-anchor="start" x="535.67" y="-15.4" font-family="Times-12" font-size="14.00"> &#160;Providers</text>
<polygon fill="#fb8072" stroke="transparent" points="608,-10 608,-30 628,-30 628,-10 608,-10"/>
<text text-anchor="start" x="631.73" y="-15.4" font-family="Times-12" font-size="14.00"> &#160;Exports</text>
<g id="clust1" class="cluster">
<title>cluster_UsersModule</title>
<polygon fill="none" stroke="black" stroke-dasharray="1,5" points="8,-70 8,-195 892,-195 892,-70 8,-70"/>
</g>
<g id="clust6" class="cluster">
<title>cluster_UsersModule_providers</title>
<polygon fill="none" stroke="black" points="138,-78 138,-130 884,-130 884,-78 138,-78"/>
</g>
<g id="clust3" class="cluster">
<title>cluster_UsersModule_imports</title>
<polygon fill="none" stroke="black" points="16,-78 16,-130 130,-130 130,-78 16,-78"/>
</g>
<!-- PrismaModule -->
<g id="node1" class="node">
<title>PrismaModule</title>
<polygon fill="#8dd3c7" stroke="black" points="122.43,-122 119.43,-126 98.43,-126 95.43,-122 23.57,-122 23.57,-86 122.43,-86 122.43,-122"/>
<text text-anchor="middle" x="73" y="-99.8" font-family="Times,serif" font-size="14.00">PrismaModule</text>
</g>
<!-- UsersModule -->
<g id="node2" class="node">
<title>UsersModule</title>
<polygon fill="#8dd3c7" stroke="black" points="477.92,-187 474.92,-191 453.92,-191 450.92,-187 386.08,-187 386.08,-151 477.92,-151 477.92,-187"/>
<text text-anchor="middle" x="432" y="-164.8" font-family="Times,serif" font-size="14.00">UsersModule</text>
</g>
<!-- PrismaModule&#45;&gt;UsersModule -->
<g id="edge1" class="edge">
<title>PrismaModule&#45;&gt;UsersModule</title>
<path fill="none" stroke="black" d="M73,-122.28C73,-143.32 73,-175 73,-175 73,-175 376.17,-175 376.17,-175"/>
<polygon fill="black" stroke="black" points="376.17,-178.5 386.17,-175 376.17,-171.5 376.17,-178.5"/>
</g>
<!-- AuthService -->
<g id="node3" class="node">
<title>AuthService</title>
<ellipse fill="#fdb462" stroke="black" cx="817" cy="-104" rx="59.11" ry="18"/>
<text text-anchor="middle" x="817" y="-99.8" font-family="Times,serif" font-size="14.00">AuthService</text>
</g>
<!-- AuthService&#45;&gt;UsersModule -->
<g id="edge2" class="edge">
<title>AuthService&#45;&gt;UsersModule</title>
<path fill="none" stroke="black" d="M817,-122.28C817,-143.32 817,-175 817,-175 817,-175 488.06,-175 488.06,-175"/>
<polygon fill="black" stroke="black" points="488.06,-171.5 478.06,-175 488.06,-178.5 488.06,-171.5"/>
</g>
<!-- DbUtilsService -->
<g id="node4" class="node">
<title>DbUtilsService</title>
<ellipse fill="#fdb462" stroke="black" cx="669" cy="-104" rx="70.64" ry="18"/>
<text text-anchor="middle" x="669" y="-99.8" font-family="Times,serif" font-size="14.00">DbUtilsService</text>
</g>
<!-- DbUtilsService&#45;&gt;UsersModule -->
<g id="edge3" class="edge">
<title>DbUtilsService&#45;&gt;UsersModule</title>
<path fill="none" stroke="black" d="M669,-122.02C669,-139.37 669,-163 669,-163 669,-163 487.98,-163 487.98,-163"/>
<polygon fill="black" stroke="black" points="487.98,-159.5 477.98,-163 487.98,-166.5 487.98,-159.5"/>
</g>
<!-- DtoGenService -->
<g id="node5" class="node">
<title>DtoGenService</title>
<ellipse fill="#fdb462" stroke="black" cx="510" cy="-104" rx="70.62" ry="18"/>
<text text-anchor="middle" x="510" y="-99.8" font-family="Times,serif" font-size="14.00">DtoGenService</text>
</g>
<!-- DtoGenService&#45;&gt;UsersModule -->
<g id="edge4" class="edge">
<title>DtoGenService&#45;&gt;UsersModule</title>
<path fill="none" stroke="black" d="M458.57,-116.53C458.57,-116.53 458.57,-140.85 458.57,-140.85"/>
<polygon fill="black" stroke="black" points="455.07,-140.85 458.57,-150.85 462.07,-140.85 455.07,-140.85"/>
</g>
<!-- PrismaService -->
<g id="node6" class="node">
<title>PrismaService</title>
<ellipse fill="#fdb462" stroke="black" cx="355" cy="-104" rx="66.63" ry="18"/>
<text text-anchor="middle" x="355" y="-99.8" font-family="Times,serif" font-size="14.00">PrismaService</text>
</g>
<!-- PrismaService&#45;&gt;UsersModule -->
<g id="edge5" class="edge">
<title>PrismaService&#45;&gt;UsersModule</title>
<path fill="none" stroke="black" d="M404.05,-116.23C404.05,-116.23 404.05,-140.68 404.05,-140.68"/>
<polygon fill="black" stroke="black" points="400.55,-140.68 404.05,-150.68 407.55,-140.68 400.55,-140.68"/>
</g>
<!-- UsersService -->
<g id="node7" class="node">
<title>UsersService</title>
<ellipse fill="#fdb462" stroke="black" cx="208" cy="-104" rx="61.95" ry="18"/>
<text text-anchor="middle" x="208" y="-99.8" font-family="Times,serif" font-size="14.00">UsersService</text>
</g>
<!-- UsersService&#45;&gt;UsersModule -->
<g id="edge6" class="edge">
<title>UsersService&#45;&gt;UsersModule</title>
<path fill="none" stroke="black" d="M208,-122.02C208,-139.37 208,-163 208,-163 208,-163 376.13,-163 376.13,-163"/>
<polygon fill="black" stroke="black" points="376.13,-166.5 386.13,-163 376.13,-159.5 376.13,-166.5"/>
</g>
</g>
</svg>
