<?xml version="1.0" encoding="UTF-8" standalone="no"?>
<!DOCTYPE svg PUBLIC "-//W3C//DTD SVG 1.1//EN"
 "http://www.w3.org/Graphics/SVG/1.1/DTD/svg11.dtd">
<!-- Generated by graphviz version 2.47.0 (20210316.0004)
 -->
<!-- Title: dependencies Pages: 1 -->
<svg width="738pt" height="284pt"
 viewBox="0.00 0.00 738.00 284.00" xmlns="http://www.w3.org/2000/svg" xmlns:xlink="http://www.w3.org/1999/xlink">
<g id="graph0" class="graph" transform="scale(1 1) rotate(0) translate(4 280)">
<title>dependencies</title>
<polygon fill="white" stroke="transparent" points="-4,4 -4,-280 734,-280 734,4 -4,4"/>
<text text-anchor="start" x="344.01" y="-42.4" font-family="Times-12" font-weight="bold" font-size="14.00">Legend</text>
<polygon fill="#ffffb3" stroke="transparent" points="131,-10 131,-30 151,-30 151,-10 131,-10"/>
<text text-anchor="start" x="154.63" y="-15.4" font-family="Times-12" font-size="14.00"> &#160;Declarations</text>
<polygon fill="#8dd3c7" stroke="transparent" points="244,-10 244,-30 264,-30 264,-10 244,-10"/>
<text text-anchor="start" x="267.73" y="-15.4" font-family="Times-12" font-size="14.00"> &#160;Module</text>
<polygon fill="#80b1d3" stroke="transparent" points="330,-10 330,-30 350,-30 350,-10 330,-10"/>
<text text-anchor="start" x="353.78" y="-15.4" font-family="Times-12" font-size="14.00"> &#160;Bootstrap</text>
<polygon fill="#fdb462" stroke="transparent" points="427,-10 427,-30 447,-30 447,-10 427,-10"/>
<text text-anchor="start" x="450.67" y="-15.4" font-family="Times-12" font-size="14.00"> &#160;Providers</text>
<polygon fill="#fb8072" stroke="transparent" points="523,-10 523,-30 543,-30 543,-10 523,-10"/>
<text text-anchor="start" x="546.73" y="-15.4" font-family="Times-12" font-size="14.00"> &#160;Exports</text>
<g id="clust1" class="cluster">
<title>cluster_DmUsersModule</title>
<polygon fill="none" stroke="black" stroke-dasharray="1,5" points="8,-70 8,-268 722,-268 722,-70 8,-70"/>
</g>
<g id="clust3" class="cluster">
<title>cluster_DmUsersModule_imports</title>
<polygon fill="none" stroke="black" points="192,-78 192,-130 714,-130 714,-78 192,-78"/>
</g>
<g id="clust6" class="cluster">
<title>cluster_DmUsersModule_providers</title>
<polygon fill="none" stroke="black" points="16,-78 16,-130 184,-130 184,-78 16,-78"/>
</g>
<g id="clust4" class="cluster">
<title>cluster_DmUsersModule_exports</title>
<polygon fill="none" stroke="black" points="297,-208 297,-260 427,-260 427,-208 297,-208"/>
</g>
<!-- AutoModerationModule -->
<g id="node1" class="node">
<title>AutoModerationModule</title>
<polygon fill="#8dd3c7" stroke="black" points="706.36,-122 703.36,-126 682.36,-126 679.36,-122 553.64,-122 553.64,-86 706.36,-86 706.36,-122"/>
<text text-anchor="middle" x="630" y="-99.8" font-family="Times,serif" font-size="14.00">AutoModerationModule</text>
</g>
<!-- DmUsersModule -->
<g id="node5" class="node">
<title>DmUsersModule</title>
<polygon fill="#8dd3c7" stroke="black" points="418.42,-187 415.42,-191 394.42,-191 391.42,-187 305.58,-187 305.58,-151 418.42,-151 418.42,-187"/>
<text text-anchor="middle" x="362" y="-164.8" font-family="Times,serif" font-size="14.00">DmUsersModule</text>
</g>
<!-- AutoModerationModule&#45;&gt;DmUsersModule -->
<g id="edge1" class="edge">
<title>AutoModerationModule&#45;&gt;DmUsersModule</title>
<path fill="none" stroke="black" d="M630,-122.28C630,-143.32 630,-175 630,-175 630,-175 428.51,-175 428.51,-175"/>
<polygon fill="black" stroke="black" points="428.51,-171.5 418.51,-175 428.51,-178.5 428.51,-171.5"/>
</g>
<!-- DbUtilsModule -->
<g id="node2" class="node">
<title>DbUtilsModule</title>
<polygon fill="#8dd3c7" stroke="black" points="535.88,-122 532.88,-126 511.88,-126 508.88,-122 432.12,-122 432.12,-86 535.88,-86 535.88,-122"/>
<text text-anchor="middle" x="484" y="-99.8" font-family="Times,serif" font-size="14.00">DbUtilsModule</text>
</g>
<!-- DbUtilsModule&#45;&gt;DmUsersModule -->
<g id="edge2" class="edge">
<title>DbUtilsModule&#45;&gt;DmUsersModule</title>
<path fill="none" stroke="black" d="M484,-122.02C484,-139.37 484,-163 484,-163 484,-163 428.36,-163 428.36,-163"/>
<polygon fill="black" stroke="black" points="428.36,-159.5 418.36,-163 428.36,-166.5 428.36,-159.5"/>
</g>
<!-- DtoGenModule -->
<g id="node3" class="node">
<title>DtoGenModule</title>
<polygon fill="#8dd3c7" stroke="black" points="413.87,-122 410.87,-126 389.87,-126 386.87,-122 310.13,-122 310.13,-86 413.87,-86 413.87,-122"/>
<text text-anchor="middle" x="362" y="-99.8" font-family="Times,serif" font-size="14.00">DtoGenModule</text>
</g>
<!-- DtoGenModule&#45;&gt;DmUsersModule -->
<g id="edge3" class="edge">
<title>DtoGenModule&#45;&gt;DmUsersModule</title>
<path fill="none" stroke="black" d="M362,-122.11C362,-122.11 362,-140.99 362,-140.99"/>
<polygon fill="black" stroke="black" points="358.5,-140.99 362,-150.99 365.5,-140.99 358.5,-140.99"/>
</g>
<!-- UsersModule -->
<g id="node4" class="node">
<title>UsersModule</title>
<polygon fill="#8dd3c7" stroke="black" points="291.92,-122 288.92,-126 267.92,-126 264.92,-122 200.08,-122 200.08,-86 291.92,-86 291.92,-122"/>
<text text-anchor="middle" x="246" y="-99.8" font-family="Times,serif" font-size="14.00">UsersModule</text>
</g>
<!-- UsersModule&#45;&gt;DmUsersModule -->
<g id="edge4" class="edge">
<title>UsersModule&#45;&gt;DmUsersModule</title>
<path fill="none" stroke="black" d="M246,-122.02C246,-139.37 246,-163 246,-163 246,-163 295.7,-163 295.7,-163"/>
<polygon fill="black" stroke="black" points="295.7,-166.5 305.7,-163 295.7,-159.5 295.7,-166.5"/>
</g>
<!-- DmUsersService  -->
<g id="node6" class="node">
<title>DmUsersService </title>
<polygon fill="#fb8072" stroke="black" points="419.35,-252 304.65,-252 304.65,-216 419.35,-216 419.35,-252"/>
<text text-anchor="middle" x="362" y="-229.8" font-family="Times,serif" font-size="14.00">DmUsersService </text>
</g>
<!-- DmUsersModule&#45;&gt;DmUsersService  -->
<g id="edge5" class="edge">
<title>DmUsersModule&#45;&gt;DmUsersService </title>
<path fill="none" stroke="black" stroke-dasharray="5,2" d="M362,-187.11C362,-187.11 362,-205.99 362,-205.99"/>
<polygon fill="black" stroke="black" points="358.5,-205.99 362,-215.99 365.5,-205.99 358.5,-205.99"/>
</g>
<!-- DmUsersService -->
<g id="node7" class="node">
<title>DmUsersService</title>
<ellipse fill="#fdb462" stroke="black" cx="100" cy="-104" rx="76.42" ry="18"/>
<text text-anchor="middle" x="100" y="-99.8" font-family="Times,serif" font-size="14.00">DmUsersService</text>
</g>
<!-- DmUsersService&#45;&gt;DmUsersModule -->
<g id="edge6" class="edge">
<title>DmUsersService&#45;&gt;DmUsersModule</title>
<path fill="none" stroke="black" d="M100,-122.28C100,-143.32 100,-175 100,-175 100,-175 295.47,-175 295.47,-175"/>
<polygon fill="black" stroke="black" points="295.47,-178.5 305.47,-175 295.47,-171.5 295.47,-178.5"/>
</g>
</g>
</svg>
