<?xml version="1.0" encoding="UTF-8" standalone="no"?>
<!DOCTYPE svg PUBLIC "-//W3C//DTD SVG 1.1//EN"
 "http://www.w3.org/Graphics/SVG/1.1/DTD/svg11.dtd">
<!-- Generated by graphviz version 2.47.0 (20210316.0004)
 -->
<!-- Title: dependencies Pages: 1 -->
<svg width="764pt" height="284pt"
 viewBox="0.00 0.00 764.00 284.00" xmlns="http://www.w3.org/2000/svg" xmlns:xlink="http://www.w3.org/1999/xlink">
<g id="graph0" class="graph" transform="scale(1 1) rotate(0) translate(4 280)">
<title>dependencies</title>
<polygon fill="white" stroke="transparent" points="-4,4 -4,-280 760,-280 760,4 -4,4"/>
<text text-anchor="start" x="357.01" y="-42.4" font-family="Times-12" font-weight="bold" font-size="14.00">Legend</text>
<polygon fill="#ffffb3" stroke="transparent" points="144,-10 144,-30 164,-30 164,-10 144,-10"/>
<text text-anchor="start" x="167.63" y="-15.4" font-family="Times-12" font-size="14.00"> &#160;Declarations</text>
<polygon fill="#8dd3c7" stroke="transparent" points="257,-10 257,-30 277,-30 277,-10 257,-10"/>
<text text-anchor="start" x="280.73" y="-15.4" font-family="Times-12" font-size="14.00"> &#160;Module</text>
<polygon fill="#80b1d3" stroke="transparent" points="343,-10 343,-30 363,-30 363,-10 343,-10"/>
<text text-anchor="start" x="366.78" y="-15.4" font-family="Times-12" font-size="14.00"> &#160;Bootstrap</text>
<polygon fill="#fdb462" stroke="transparent" points="440,-10 440,-30 460,-30 460,-10 440,-10"/>
<text text-anchor="start" x="463.67" y="-15.4" font-family="Times-12" font-size="14.00"> &#160;Providers</text>
<polygon fill="#fb8072" stroke="transparent" points="536,-10 536,-30 556,-30 556,-10 536,-10"/>
<text text-anchor="start" x="559.73" y="-15.4" font-family="Times-12" font-size="14.00"> &#160;Exports</text>
<g id="clust1" class="cluster">
<title>cluster_RoomUsersModule</title>
<polygon fill="none" stroke="black" stroke-dasharray="1,5" points="8,-70 8,-268 748,-268 748,-70 8,-70"/>
</g>
<g id="clust3" class="cluster">
<title>cluster_RoomUsersModule_imports</title>
<polygon fill="none" stroke="black" points="212,-78 212,-130 740,-130 740,-78 212,-78"/>
</g>
<g id="clust6" class="cluster">
<title>cluster_RoomUsersModule_providers</title>
<polygon fill="none" stroke="black" points="16,-78 16,-130 204,-130 204,-78 16,-78"/>
</g>
<g id="clust4" class="cluster">
<title>cluster_RoomUsersModule_exports</title>
<polygon fill="none" stroke="black" points="316,-208 316,-260 460,-260 460,-208 316,-208"/>
</g>
<!-- AutoModerationModule -->
<g id="node1" class="node">
<title>AutoModerationModule</title>
<polygon fill="#8dd3c7" stroke="black" points="732.36,-122 729.36,-126 708.36,-126 705.36,-122 579.64,-122 579.64,-86 732.36,-86 732.36,-122"/>
<text text-anchor="middle" x="656" y="-99.8" font-family="Times,serif" font-size="14.00">AutoModerationModule</text>
</g>
<!-- RoomUsersModule -->
<g id="node5" class="node">
<title>RoomUsersModule</title>
<polygon fill="#8dd3c7" stroke="black" points="450.65,-187 447.65,-191 426.65,-191 423.65,-187 325.35,-187 325.35,-151 450.65,-151 450.65,-187"/>
<text text-anchor="middle" x="388" y="-164.8" font-family="Times,serif" font-size="14.00">RoomUsersModule</text>
</g>
<!-- AutoModerationModule&#45;&gt;RoomUsersModule -->
<g id="edge1" class="edge">
<title>AutoModerationModule&#45;&gt;RoomUsersModule</title>
<path fill="none" stroke="black" d="M656,-122.11C656,-141.34 656,-169 656,-169 656,-169 460.83,-169 460.83,-169"/>
<polygon fill="black" stroke="black" points="460.83,-165.5 450.83,-169 460.83,-172.5 460.83,-165.5"/>
</g>
<!-- DbUtilsModule -->
<g id="node2" class="node">
<title>DbUtilsModule</title>
<polygon fill="#8dd3c7" stroke="black" points="561.88,-122 558.88,-126 537.88,-126 534.88,-122 458.12,-122 458.12,-86 561.88,-86 561.88,-122"/>
<text text-anchor="middle" x="510" y="-99.8" font-family="Times,serif" font-size="14.00">DbUtilsModule</text>
</g>
<!-- DbUtilsModule&#45;&gt;RoomUsersModule -->
<g id="edge2" class="edge">
<title>DbUtilsModule&#45;&gt;RoomUsersModule</title>
<path fill="none" stroke="black" d="M457.84,-104C450.49,-104 445.38,-104 445.38,-104 445.38,-104 445.38,-140.89 445.38,-140.89"/>
<polygon fill="black" stroke="black" points="441.88,-140.89 445.38,-150.89 448.88,-140.89 441.88,-140.89"/>
</g>
<!-- DtoGenModule -->
<g id="node3" class="node">
<title>DtoGenModule</title>
<polygon fill="#8dd3c7" stroke="black" points="439.87,-122 436.87,-126 415.87,-126 412.87,-122 336.13,-122 336.13,-86 439.87,-86 439.87,-122"/>
<text text-anchor="middle" x="388" y="-99.8" font-family="Times,serif" font-size="14.00">DtoGenModule</text>
</g>
<!-- DtoGenModule&#45;&gt;RoomUsersModule -->
<g id="edge3" class="edge">
<title>DtoGenModule&#45;&gt;RoomUsersModule</title>
<path fill="none" stroke="black" d="M388,-122.11C388,-122.11 388,-140.99 388,-140.99"/>
<polygon fill="black" stroke="black" points="384.5,-140.99 388,-150.99 391.5,-140.99 384.5,-140.99"/>
</g>
<!-- PrismaModule -->
<g id="node4" class="node">
<title>PrismaModule</title>
<polygon fill="#8dd3c7" stroke="black" points="318.43,-122 315.43,-126 294.43,-126 291.43,-122 219.57,-122 219.57,-86 318.43,-86 318.43,-122"/>
<text text-anchor="middle" x="269" y="-99.8" font-family="Times,serif" font-size="14.00">PrismaModule</text>
</g>
<!-- PrismaModule&#45;&gt;RoomUsersModule -->
<g id="edge4" class="edge">
<title>PrismaModule&#45;&gt;RoomUsersModule</title>
<path fill="none" stroke="black" d="M318.45,-104C325.61,-104 330.62,-104 330.62,-104 330.62,-104 330.62,-140.89 330.62,-140.89"/>
<polygon fill="black" stroke="black" points="327.12,-140.89 330.62,-150.89 334.12,-140.89 327.12,-140.89"/>
</g>
<!-- RoomUsersService  -->
<g id="node6" class="node">
<title>RoomUsersService </title>
<polygon fill="#fb8072" stroke="black" points="451.58,-252 324.42,-252 324.42,-216 451.58,-216 451.58,-252"/>
<text text-anchor="middle" x="388" y="-229.8" font-family="Times,serif" font-size="14.00">RoomUsersService </text>
</g>
<!-- RoomUsersModule&#45;&gt;RoomUsersService  -->
<g id="edge5" class="edge">
<title>RoomUsersModule&#45;&gt;RoomUsersService </title>
<path fill="none" stroke="black" stroke-dasharray="5,2" d="M388,-187.11C388,-187.11 388,-205.99 388,-205.99"/>
<polygon fill="black" stroke="black" points="384.5,-205.99 388,-215.99 391.5,-205.99 384.5,-205.99"/>
</g>
<!-- RoomUsersService -->
<g id="node7" class="node">
<title>RoomUsersService</title>
<ellipse fill="#fdb462" stroke="black" cx="110" cy="-104" rx="85.67" ry="18"/>
<text text-anchor="middle" x="110" y="-99.8" font-family="Times,serif" font-size="14.00">RoomUsersService</text>
</g>
<!-- RoomUsersService&#45;&gt;RoomUsersModule -->
<g id="edge6" class="edge">
<title>RoomUsersService&#45;&gt;RoomUsersModule</title>
<path fill="none" stroke="black" d="M110,-122.11C110,-141.34 110,-169 110,-169 110,-169 315.26,-169 315.26,-169"/>
<polygon fill="black" stroke="black" points="315.26,-172.5 325.26,-169 315.26,-165.5 315.26,-172.5"/>
</g>
</g>
</svg>
