<?xml version="1.0" encoding="UTF-8" standalone="no"?>
<!DOCTYPE svg PUBLIC "-//W3C//DTD SVG 1.1//EN"
 "http://www.w3.org/Graphics/SVG/1.1/DTD/svg11.dtd">
<!-- Generated by graphviz version 2.47.0 (20210316.0004)
 -->
<!-- Title: dependencies Pages: 1 -->
<svg width="504pt" height="211pt"
 viewBox="0.00 0.00 504.00 211.00" xmlns="http://www.w3.org/2000/svg" xmlns:xlink="http://www.w3.org/1999/xlink">
<g id="graph0" class="graph" transform="scale(1 1) rotate(0) translate(4 207)">
<title>dependencies</title>
<polygon fill="white" stroke="transparent" points="-4,4 -4,-207 500,-207 500,4 -4,4"/>
<text text-anchor="start" x="227.01" y="-42.4" font-family="Times-12" font-weight="bold" font-size="14.00">Legend</text>
<polygon fill="#ffffb3" stroke="transparent" points="14,-10 14,-30 34,-30 34,-10 14,-10"/>
<text text-anchor="start" x="37.63" y="-15.4" font-family="Times-12" font-size="14.00"> &#160;Declarations</text>
<polygon fill="#8dd3c7" stroke="transparent" points="127,-10 127,-30 147,-30 147,-10 127,-10"/>
<text text-anchor="start" x="150.73" y="-15.4" font-family="Times-12" font-size="14.00"> &#160;Module</text>
<polygon fill="#80b1d3" stroke="transparent" points="213,-10 213,-30 233,-30 233,-10 213,-10"/>
<text text-anchor="start" x="236.78" y="-15.4" font-family="Times-12" font-size="14.00"> &#160;Bootstrap</text>
<polygon fill="#fdb462" stroke="transparent" points="310,-10 310,-30 330,-30 330,-10 310,-10"/>
<text text-anchor="start" x="333.67" y="-15.4" font-family="Times-12" font-size="14.00"> &#160;Providers</text>
<polygon fill="#fb8072" stroke="transparent" points="406,-10 406,-30 426,-30 426,-10 406,-10"/>
<text text-anchor="start" x="429.73" y="-15.4" font-family="Times-12" font-size="14.00"> &#160;Exports</text>
<g id="clust1" class="cluster">
<title>cluster_MockPrismaModule</title>
<polygon fill="none" stroke="black" stroke-dasharray="1,5" points="174,-70 174,-195 322,-195 322,-70 174,-70"/>
</g>
<g id="clust4" class="cluster">
<title>cluster_MockPrismaModule_exports</title>
<polygon fill="none" stroke="black" points="190,-135 190,-187 306,-187 306,-135 190,-135"/>
</g>
<!-- PrismaService  -->
<g id="node1" class="node">
<title>PrismaService </title>
<polygon fill="#fb8072" stroke="black" points="298.36,-179 197.64,-179 197.64,-143 298.36,-143 298.36,-179"/>
<text text-anchor="middle" x="248" y="-156.8" font-family="Times,serif" font-size="14.00">PrismaService </text>
</g>
<!-- MockPrismaModule -->
<g id="node2" class="node">
<title>MockPrismaModule</title>
<polygon fill="#8dd3c7" stroke="black" points="313.59,-114 310.59,-118 289.59,-118 286.59,-114 182.41,-114 182.41,-78 313.59,-78 313.59,-114"/>
<text text-anchor="middle" x="248" y="-91.8" font-family="Times,serif" font-size="14.00">MockPrismaModule</text>
</g>
<!-- MockPrismaModule&#45;&gt;PrismaService  -->
<g id="edge1" class="edge">
<title>MockPrismaModule&#45;&gt;PrismaService </title>
<path fill="none" stroke="black" stroke-dasharray="5,2" d="M248,-114.11C248,-114.11 248,-132.99 248,-132.99"/>
<polygon fill="black" stroke="black" points="244.5,-132.99 248,-142.99 251.5,-132.99 244.5,-132.99"/>
</g>
</g>
</svg>
